<svg width="20" height="20" viewBox="0 0 20 20" fill="none" xmlns="http://www.w3.org/2000/svg">
    <path
        d="M13.333 1.66666C13.7912 1.66666 14.1668 2.04148 14.167 2.49966V3.33365H15C16.3783 3.33365 17.5 4.45532 17.5 5.83365V15.8336C17.4998 17.2118 16.3782 18.3336 15 18.3336H5C3.62177 18.3336 2.50018 17.2118 2.5 15.8336V5.83365C2.5 4.45532 3.62167 3.33365 5 3.33365H5.83301V2.49966C5.83319 2.04148 6.20877 1.66666 6.66699 1.66666C7.12507 1.66683 7.49982 2.04159 7.5 2.49966V3.33365H12.5V2.49966C12.5002 2.04159 12.8749 1.66683 13.333 1.66666ZM4.16699 10.8336V15.8336C4.16717 16.2927 4.54094 16.6667 5 16.6667H15C15.4591 16.6667 15.8328 16.2927 15.833 15.8336V10.8336H4.16699ZM6.66699 12.4997C7.12496 12.4998 7.49965 12.8747 7.5 13.3327C7.5 13.7909 7.12518 14.1665 6.66699 14.1667C6.20866 14.1667 5.83398 13.791 5.83398 13.3327C5.83434 12.8746 6.20888 12.4997 6.66699 12.4997ZM13.334 12.4997C13.7918 12.5 14.1666 12.8749 14.167 13.3327C14.167 13.7908 13.792 14.1663 13.334 14.1667H10C9.54181 14.1665 9.16699 13.7909 9.16699 13.3327C9.16735 12.8747 9.54203 12.4998 10 12.4997H13.334ZM5 4.99966C4.54083 4.99966 4.16699 5.37448 4.16699 5.83365V9.16666H15.833V5.83365C15.833 5.37448 15.4592 4.99966 15 4.99966H14.167V5.83365C14.1668 6.29183 13.7912 6.66666 13.333 6.66666C12.8749 6.66648 12.5002 6.29173 12.5 5.83365V4.99966H7.5V5.83365C7.49982 6.29173 7.12507 6.66648 6.66699 6.66666C6.20877 6.66666 5.83319 6.29183 5.83301 5.83365V4.99966H5Z"
        fill="#2E3A59" />
</svg>
