<svg xmlns="http://www.w3.org/2000/svg"  viewBox="0 0 32 32" width="32px" height="32px"><path d="M26.491 20.947c-1.232-.696-1.977-1.709-2.042-2.78-.064-1.068.554-2.139 1.741-3.013.383-.282.515-.793.315-1.225C25.454 11.652 23.113 10 20.941 10c-1.358 0-2.305.361-3.065.651-.557.212-.996.379-1.491.379-.559 0-1.099-.194-1.724-.418-.796-.286-1.697-.61-2.847-.61-2.208 0-4.031 1.01-5.42 3.001-1.881 2.694-2.097 8.091.798 12.458 1.48 2.233 3.456 3.523 5.43 3.539 1.238 0 2.044-.189 2.692-.34.838-.196 1.354-.195 2.204.002.65.15 1.458.337 2.666.337.002 0 .005-.001.009 0 1.322 0 4.622-.669 6.752-6.855C27.103 21.688 26.912 21.185 26.491 20.947zM20.99 2.935c-.063-.44-.409-.786-.849-.848-2.582-.371-4.061.495-4.849 1.283-.789.789-1.651 2.27-1.283 4.849.063.44.409.786.849.848.423.061.815.088 1.181.088 1.865 0 3.009-.711 3.668-1.371C20.496 6.995 21.358 5.514 20.99 2.935z"/></svg>