<svg width="24" height="28" viewBox="0 0 24 28" fill="none" xmlns="http://www.w3.org/2000/svg">
<path fill-rule="evenodd" clip-rule="evenodd" d="M3.35281 19.3333L4.92614 17.7573C5.43014 17.2533 5.70748 16.584 5.70748 15.872V9.63599C5.70748 7.82666 6.49414 6.09732 7.86748 4.89466C9.25148 3.68132 11.0141 3.14799 12.8501 3.38932C15.9528 3.80132 18.2928 6.60666 18.2928 9.91599V15.872C18.2928 16.584 18.5701 17.2533 19.0728 17.756L20.6475 19.3333H3.35281ZM14.6661 22.4547C14.6661 23.6533 13.4448 24.6667 11.9995 24.6667C10.5541 24.6667 9.3328 23.6533 9.3328 22.4547V22H14.6661V22.4547ZM23.3608 18.2773L20.9595 15.872V9.91599C20.9595 5.27466 17.6235 1.33199 13.1995 0.746658C10.6368 0.405325 8.05014 1.18799 6.11014 2.88932C4.15814 4.59866 3.0408 7.05732 3.0408 9.63599L3.03947 15.872L0.638137 18.2773C0.0128039 18.904 -0.172529 19.836 0.166137 20.6533C0.506137 21.472 1.2968 22 2.18214 22H6.66614V22.4547C6.66614 25.1453 9.05814 27.3333 11.9995 27.3333C14.9408 27.3333 17.3328 25.1453 17.3328 22.4547V22H21.8168C22.7021 22 23.4915 21.472 23.8301 20.6547C24.1701 19.836 23.9861 18.9027 23.3608 18.2773Z" fill="#FF9914"/>
</svg>
