<svg width="20" height="22" viewBox="0 0 20 22" fill="none" xmlns="http://www.w3.org/2000/svg">
<path fill-rule="evenodd" clip-rule="evenodd" d="M3.24435 15.1666L4.47351 13.9354C4.86726 13.5416 5.08393 13.0187 5.08393 12.4625V7.59057C5.08393 6.17703 5.69851 4.82599 6.77143 3.88641C7.85268 2.93849 9.22976 2.52182 10.6641 2.71037C13.0881 3.03224 14.9162 5.22391 14.9162 7.80932V12.4625C14.9162 13.0187 15.1329 13.5416 15.5256 13.9343L16.7558 15.1666H3.24435ZM12.0829 17.6052C12.0829 18.5416 11.1287 19.3333 9.99956 19.3333C8.87039 19.3333 7.91622 18.5416 7.91622 17.6052V17.2499H12.0829V17.6052ZM18.8756 14.3416L16.9996 12.4624V7.80932C16.9996 4.18328 14.3933 1.10307 10.9371 0.645782C8.93497 0.379115 6.91414 0.990573 5.39851 2.31974C3.87351 3.65516 3.0006 5.57599 3.0006 7.59057L2.99956 12.4624L1.12351 14.3416C0.634973 14.8312 0.490181 15.5593 0.754764 16.1979C1.02039 16.8375 1.6381 17.25 2.32976 17.25H5.83289V17.6052C5.83289 19.7072 7.70164 21.4166 9.99956 21.4166C12.2975 21.4166 14.1662 19.7072 14.1662 17.6052V17.25H17.6693C18.361 17.25 18.9777 16.8375 19.2423 16.1989C19.5079 15.5593 19.3641 14.8302 18.8756 14.3416Z" fill="white"/>
</svg>
