<svg width="50" height="50" viewBox="0 0 50 50" fill="none" xmlns="http://www.w3.org/2000/svg">
<circle cx="25" cy="25" r="25" fill="#FF9914"/>
<path fill-rule="evenodd" clip-rule="evenodd" d="M18.2443 29.1666L19.4735 27.9354C19.8673 27.5416 20.0839 27.0187 20.0839 26.4625V21.5906C20.0839 20.177 20.6985 18.826 21.7714 17.8864C22.8527 16.9385 24.2298 16.5218 25.6641 16.7104C28.0881 17.0322 29.9162 19.2239 29.9162 21.8093V26.4625C29.9162 27.0187 30.1329 27.5416 30.5256 27.9343L31.7558 29.1666H18.2443ZM27.0829 31.6052C27.0829 32.5416 26.1287 33.3333 24.9996 33.3333C23.8704 33.3333 22.9162 32.5416 22.9162 31.6052V31.2499H27.0829V31.6052ZM33.8756 28.3416L31.9996 26.4624V21.8093C31.9996 18.1833 29.3933 15.1031 25.9371 14.6458C23.935 14.3791 21.9141 14.9906 20.3985 16.3197C18.8735 17.6552 18.0006 19.576 18.0006 21.5906L17.9996 26.4624L16.1235 28.3416C15.635 28.8312 15.4902 29.5593 15.7548 30.1979C16.0204 30.8375 16.6381 31.25 17.3298 31.25H20.8329V31.6052C20.8329 33.7072 22.7016 35.4166 24.9996 35.4166C27.2975 35.4166 29.1662 33.7072 29.1662 31.6052V31.25H32.6693C33.361 31.25 33.9777 30.8375 34.2423 30.1989C34.5079 29.5593 34.3641 28.8302 33.8756 28.3416Z" fill="white"/>
</svg>
