<svg width="46" height="27" viewBox="0 0 46 27" fill="none" xmlns="http://www.w3.org/2000/svg">
<g clip-path="url(#clip0_9589_5530)">
<path fill-rule="evenodd" clip-rule="evenodd" d="M5.00505 0H46V23.0254H43.1025L43.3047 6.13051V5.92969C43.3047 5.21286 43.0236 4.52533 42.5232 4.01809C42.0227 3.51086 41.3438 3.22539 40.6356 3.22439H4.99756V0H5.00505ZM0 5.46365H40.995V27H0V5.46365Z" fill="#427D2A"/>
<path fill-rule="evenodd" clip-rule="evenodd" d="M34.3355 8.80929C34.3513 9.61209 34.6707 10.3782 35.2278 10.9498C35.7849 11.5215 36.5374 11.8551 37.3302 11.8821V20.4034C36.9058 20.4038 36.4858 20.4901 36.0947 20.657C35.7037 20.824 35.3496 21.0684 35.0532 21.3758C34.7567 21.6833 34.524 22.0476 34.3686 22.4473C34.2132 22.847 34.1383 23.2742 34.1483 23.7036H6.89567C6.908 22.8743 6.59921 22.073 6.03534 21.4711C5.47148 20.8692 4.69731 20.5146 3.87842 20.483V11.9617C4.71411 11.9708 5.51925 11.644 6.11718 11.053C6.71511 10.462 7.05701 9.6551 7.06787 8.80929H34.3355Z" fill="#87CC71"/>
<path fill-rule="evenodd" clip-rule="evenodd" d="M15.0787 13.3295C15.6621 12.2209 16.5572 11.3124 17.6508 10.7187C18.7444 10.1251 19.9874 9.87299 21.2225 9.99436C22.4577 10.1157 23.6295 10.6051 24.5899 11.4006C25.5502 12.1961 26.2559 13.2619 26.6177 14.4634C26.9795 15.6648 26.9812 16.9479 26.6225 18.1503C26.2639 19.3527 25.561 20.4205 24.6027 21.2186C23.6444 22.0166 22.4739 22.5091 21.2391 22.6338C20.0042 22.7585 18.7606 22.5097 17.6655 21.919C16.9381 21.5273 16.2941 20.9942 15.7704 20.3504C15.2467 19.7066 14.8535 18.9646 14.6133 18.1669C14.373 17.3692 14.2905 16.5313 14.3703 15.7013C14.4502 14.8713 14.6909 14.0653 15.0787 13.3295Z" fill="#427D2A"/>
</g>
<defs>
<clipPath id="clip0_9589_5530">
<rect width="46" height="27" fill="white"/>
</clipPath>
</defs>
</svg>
