<svg width="18" height="12" viewBox="0 0 18 12" fill="none" xmlns="http://www.w3.org/2000/svg">
<path fill-rule="evenodd" clip-rule="evenodd" d="M8.99988 7.25C8.31071 7.25 7.74988 6.68916 7.74988 6C7.74988 5.31083 8.31071 4.75 8.99988 4.75C9.68904 4.75 10.2499 5.31083 10.2499 6C10.2499 6.68916 9.68904 7.25 8.99988 7.25ZM8.99988 3.08333C7.39154 3.08333 6.08321 4.39166 6.08321 6C6.08321 7.60833 7.39154 8.91666 8.99988 8.91666C10.6082 8.91666 11.9165 7.60833 11.9165 6C11.9165 4.39166 10.6082 3.08333 8.99988 3.08333ZM9.18296 10.1647C5.59463 10.248 3.25379 7.17883 2.47713 5.99633C3.33213 4.65883 5.48546 1.9205 8.81713 1.8355C12.3913 1.74466 14.7455 4.82133 15.5221 6.00383C14.668 7.34133 12.5138 10.0797 9.18296 10.1647ZM17.223 5.5855C16.6913 4.65883 13.7546 0.0138301 8.77463 0.169663C4.16796 0.28633 1.4888 4.34466 0.777129 5.5855C0.629629 5.84216 0.629629 6.158 0.777129 6.41466C1.3013 7.32883 4.13463 11.833 9.02046 11.833C9.08879 11.833 9.15713 11.8322 9.22546 11.8305C13.8313 11.713 16.5113 7.6555 17.223 6.41466C17.3696 6.158 17.3696 5.84216 17.223 5.5855Z" fill="#2E3A59"/>
</svg>
