<svg width="14" height="14" viewBox="0 0 14 14" fill="none" xmlns="http://www.w3.org/2000/svg">
<path fill-rule="evenodd" clip-rule="evenodd" d="M8.57786 4.89708L6.37052 7.79566L5.41794 6.57883C5.21961 6.32449 4.85211 6.28016 4.59894 6.47908C4.34519 6.67741 4.30028 7.04433 4.49919 7.29749L5.91727 9.10991C6.02811 9.25108 6.19727 9.33333 6.37694 9.33333H6.38102C6.56127 9.33274 6.73161 9.24758 6.84069 9.10349L9.50594 5.60349C9.70136 5.34683 9.65177 4.98166 9.39511 4.78624C9.13786 4.59083 8.77269 4.64099 8.57786 4.89708ZM7.00065 11.6673C4.42757 11.6673 2.33398 9.57373 2.33398 7.00065C2.33398 4.42757 4.42757 2.33398 7.00065 2.33398C9.57373 2.33398 11.6673 4.42757 11.6673 7.00065C11.6673 9.57373 9.57373 11.6673 7.00065 11.6673ZM7.00033 1.16699C3.77858 1.16699 1.16699 3.77916 1.16699 7.00033C1.16699 10.2215 3.77858 12.8337 7.00033 12.8337C10.2221 12.8337 12.8337 10.2215 12.8337 7.00033C12.8337 3.77916 10.2221 1.16699 7.00033 1.16699Z" fill="#FF9914"/>
</svg>
