<svg width="20" height="20" viewBox="0 0 20 20" fill="none" xmlns="http://www.w3.org/2000/svg">
<path fill-rule="evenodd" clip-rule="evenodd" d="M12.3571 10L19.5121 2.845C20.1637 2.19334 20.1637 1.14 19.5121 0.488338C18.8604 -0.163329 17.8071 -0.163329 17.1554 0.488338L10.0004 7.64334L2.84542 0.488338C2.19375 -0.163329 1.14042 -0.163329 0.48875 0.488338C-0.162917 1.14 -0.162917 2.19334 0.48875 2.845L7.64375 10L0.48875 17.155C-0.162917 17.8067 -0.162917 18.86 0.48875 19.5117C0.81375 19.8367 1.24042 20 1.66708 20C2.09375 20 2.52042 19.8367 2.84542 19.5117L10.0004 12.3567L17.1554 19.5117C17.4804 19.8367 17.9071 20 18.3337 20C18.7604 20 19.1871 19.8367 19.5121 19.5117C20.1637 18.86 20.1637 17.8067 19.5121 17.155L12.3571 10Z" fill="#E0E5EB"/>
</svg>
