<svg width="79" height="20" viewBox="0 0 79 20" fill="none" xmlns="http://www.w3.org/2000/svg">
<g clip-path="url(#clip0_9589_5477)">
<path fill-rule="evenodd" clip-rule="evenodd" d="M19.8124 10.0786C19.8124 13.897 13.7166 20.0003 9.90258 20.0003C6.08859 20.0003 -0.00732422 13.897 -0.00732422 10.0786C-0.00732422 6.26015 6.08859 0.156738 9.90258 0.156738C13.7166 0.156738 19.8124 6.26015 19.8124 10.0786ZM13.8665 10.0786C13.8665 11.606 11.428 14.0472 9.90258 14.0472C8.37692 14.0472 5.93859 11.606 5.93859 10.0786C5.93859 8.55125 8.37702 6.10985 9.90258 6.10985C11.428 6.10985 13.8665 8.55125 13.8665 10.0786Z" fill="#0065FF"/>
<path d="M30.6042 19.9991C34.3024 19.9991 36.6201 17.6786 37.3233 14.6278H33.2606C32.7659 15.6707 31.9845 16.453 30.6042 16.453C28.9374 16.453 27.7135 15.2536 27.7135 13.1937C27.7135 11.1339 28.9374 9.93435 30.6042 9.93435C31.9845 9.93435 32.7659 10.7166 33.2606 11.7597H37.3233C36.6201 8.70895 34.3024 6.3883 30.6042 6.3883C26.6456 6.3883 23.7549 9.413 23.7549 13.1937C23.7549 16.9746 26.6456 19.9991 30.6042 19.9991ZM38.7101 19.7123H42.6427V0.156604H38.7101V19.7123ZM46.9463 4.90204C48.3266 4.90204 49.4204 3.80695 49.4204 2.45106C49.4204 1.09528 48.3266 0.000183105 46.9463 0.000183105C45.6182 0.000183105 44.4982 1.09528 44.4982 2.45106C44.4982 3.80695 45.6182 4.90204 46.9463 4.90204ZM44.9931 19.7123H48.9257V6.6752H44.9931V19.7123ZM57.3443 19.9991C61.0422 19.9991 63.3599 17.6786 64.0634 14.6278H60.0006C59.5055 15.6707 58.7246 16.453 57.3443 16.453C55.6773 16.453 54.4535 15.2536 54.4535 13.1937C54.4535 11.1339 55.6773 9.93435 57.3443 9.93435C58.7246 9.93435 59.5055 10.7166 60.0006 11.7597H64.0634C63.3599 8.70895 61.0422 6.3883 57.3443 6.3883C53.3858 6.3883 50.495 9.413 50.495 13.1937C50.495 16.9746 53.3858 19.9991 57.3443 19.9991ZM74.2267 19.7123H78.9923L73.0548 12.568L77.8466 6.6752H73.1846L69.3825 11.3425V0.156604H65.4501V19.7123H69.3825V13.8977L74.2267 19.7123Z" fill="black"/>
</g>
<defs>
<clipPath id="clip0_9589_5477">
<rect width="79" height="20" fill="white"/>
</clipPath>
</defs>
</svg>
