<svg width="22" height="22" viewBox="0 0 22 22" fill="none" xmlns="http://www.w3.org/2000/svg">
<path d="M0.227182 21.6469C0.299739 21.7196 0.385902 21.7772 0.480744 21.8165C0.575586 21.8558 0.677248 21.876 0.779916 21.876C0.882585 21.876 0.984246 21.8558 1.07909 21.8165C1.17393 21.7772 1.26009 21.7196 1.33265 21.6469L10.9342 12.0454L20.5397 21.6469C20.6863 21.7935 20.8851 21.8759 21.0924 21.8759C21.2997 21.8759 21.4986 21.7935 21.6451 21.6469C21.7917 21.5003 21.8741 21.3015 21.8741 21.0942C21.8741 20.8869 21.7917 20.688 21.6451 20.5415L12.0397 10.9399L21.6412 1.33442C21.7878 1.18782 21.8702 0.989 21.8702 0.781684C21.8702 0.574369 21.7878 0.375544 21.6412 0.22895C21.4946 0.0823557 21.2958 0 21.0885 0C20.8812 0 20.6824 0.0823557 20.5358 0.22895L10.9342 9.83442L1.32874 0.232856C1.17929 0.104867 0.987043 0.0379873 0.790421 0.0455819C0.593799 0.0531766 0.407284 0.134686 0.268148 0.273822C0.129012 0.412959 0.047502 0.599474 0.0399074 0.796096C0.0323127 0.992718 0.0991924 1.18496 0.227182 1.33442L9.82874 10.9399L0.227182 20.5454C0.0816732 20.6917 0 20.8897 0 21.0961C0 21.3025 0.0816732 21.5005 0.227182 21.6469Z" fill="black"/>
</svg>
