<svg width="18" height="18" viewBox="0 0 18 18" fill="none" xmlns="http://www.w3.org/2000/svg">
<path d="M8.9766 0.666748C9.63884 0.676765 10.3136 0.743296 10.96 0.898193C11.4066 1.00652 11.6825 1.45659 11.5743 1.90405C11.4668 2.35072 11.0144 2.62595 10.5694 2.51929C10.052 2.39434 9.50302 2.34209 8.98148 2.33374C7.20065 2.33874 5.5275 3.03706 4.2725 4.29956C3.01689 5.56202 2.32902 7.23862 2.33402 9.01929C2.33903 10.8001 3.03736 12.4715 4.29984 13.7273C5.55809 14.978 7.22601 15.6667 9.00004 15.6667H9.01957C10.8003 15.6617 12.4726 14.9633 13.7276 13.7009C14.9833 12.4377 15.672 10.7619 15.667 8.9812C15.6662 8.5212 16.0381 8.1461 16.4981 8.14526H16.5C16.9592 8.14526 17.3332 8.51715 17.334 8.97632C17.3406 11.202 16.4791 13.2975 14.9092 14.8757C13.3401 16.454 11.2502 17.3271 9.02445 17.3337H9.00004C6.78271 17.3336 4.69744 16.473 3.12504 14.9089C1.5467 13.3398 0.673697 11.25 0.66703 9.02417C0.660384 6.79753 1.52088 4.70209 3.09086 3.12378C4.66002 1.54548 6.75079 0.673415 8.9766 0.666748ZM14.2071 4.28394C14.5104 3.93989 15.0362 3.90349 15.3829 4.20679C15.7287 4.50929 15.7633 5.03591 15.46 5.38257L9.62699 12.0496C9.47543 12.2226 9.25891 12.3253 9.02836 12.3337H9.00004C8.77942 12.3336 8.56773 12.2461 8.41117 12.0896L5.91117 9.5896C5.58536 9.26379 5.5854 8.73673 5.91117 8.41089C6.237 8.08506 6.76405 8.08506 7.08988 8.41089L8.96 10.281L14.2071 4.28394Z" fill="white"/>
</svg>
