<svg width="17" height="17" viewBox="0 0 17 17" fill="none" xmlns="http://www.w3.org/2000/svg">
<mask id="path-1-outside-1_567_2052" maskUnits="userSpaceOnUse" x="-0.111328" y="-0.428993" width="17" height="17" fill="black">
<rect fill="white" x="-0.111328" y="-0.428993" width="17" height="17"/>
<path fill-rule="evenodd" clip-rule="evenodd" d="M15.778 7.80655C16.0407 7.54318 16.1932 7.18606 16.1932 6.80282C16.1932 6.24995 15.8769 5.76403 15.4063 5.52681C15.5038 5.33168 15.5555 5.1155 15.5555 4.88976C15.5555 4.33689 15.2385 3.85034 14.7679 3.61375C14.9133 3.32296 14.956 2.98818 14.8827 2.6553C14.7399 2.00998 14.1322 1.5419 13.4377 1.5419H7.58438C7.14118 1.5419 6.42698 1.68538 5.89641 1.95832C5.67449 1.34423 5.08527 0.904226 4.39594 0.904226H2.48288C1.60353 0.904226 0.888672 1.61905 0.888672 2.49843V7.59994C0.888672 8.47929 1.60353 9.19415 2.48288 9.19418H5.67129C5.84729 9.19418 5.99015 9.05133 5.99015 8.87532V8.75352L6.06604 8.7924L7.90321 12.7709V14.9333C7.90321 15.0302 7.94721 15.1221 8.0231 15.1827L8.02379 15.1832C8.05186 15.205 8.52294 15.571 9.17859 15.571C9.9164 15.571 11.0917 14.4034 11.0917 13.0203C11.0917 12.1479 10.7792 11.062 10.5841 10.4695H14.5231C15.3814 10.4695 16.1115 9.83439 16.1861 9.02388C16.2276 8.56923 16.0758 8.1324 15.778 7.80655ZM14.5817 5.79975C14.6212 5.91773 14.7252 6.00125 14.8483 6.01592C15.2513 6.06247 15.5555 6.40045 15.5554 6.80282C15.5554 7.09997 15.3884 7.37034 15.1186 7.50745C15.0166 7.56039 14.9503 7.6637 14.9458 7.77911C14.9414 7.89452 14.9994 8.00294 15.097 8.06287C15.4101 8.25609 15.5848 8.60173 15.551 8.96521C15.5064 9.45112 15.0549 9.83182 14.5231 9.83182H10.1351C10.0306 9.83182 9.93234 9.88348 9.8724 9.96956C9.8131 10.0563 9.80037 10.1666 9.83734 10.2642C9.83746 10.2645 9.83786 10.2656 9.83852 10.2674C9.86887 10.3489 10.454 11.9219 10.454 13.0203C10.454 14.0648 9.52805 14.9333 9.17859 14.9333C8.90377 14.9333 8.67354 14.8339 8.54088 14.7605V12.7014C8.54088 12.6555 8.53069 12.6096 8.51156 12.5675L6.5985 8.42256C6.56789 8.35688 6.51624 8.30332 6.45182 8.27142L5.99011 8.04056V2.64528C6.34964 2.38128 7.11259 2.17958 7.58438 2.17958H13.4378C13.8357 2.17958 14.1813 2.43722 14.2597 2.79305C14.3229 3.07875 14.2387 3.35614 14.0289 3.55382C13.9383 3.63928 13.9058 3.76871 13.9447 3.88669C13.9842 4.00467 14.0882 4.08819 14.2113 4.10286C14.6136 4.1494 14.9178 4.48739 14.9178 4.88976C14.9178 5.10913 14.8279 5.31446 14.6659 5.46688C14.5754 5.55234 14.5428 5.68177 14.5817 5.79975ZM5.35245 2.4924C5.34919 1.96779 4.9213 1.5419 4.39594 1.5419H2.48288C1.9555 1.5419 1.52635 1.97106 1.52635 2.49843V7.59994C1.52635 8.12732 1.9555 8.55647 2.48288 8.55647H5.35247V8.24411C5.35242 8.24187 5.3524 8.23962 5.3524 8.23736V2.49818C5.3524 2.49625 5.35242 2.49432 5.35245 2.4924Z"/>
</mask>
<path fill-rule="evenodd" clip-rule="evenodd" d="M15.778 7.80655C16.0407 7.54318 16.1932 7.18606 16.1932 6.80282C16.1932 6.24995 15.8769 5.76403 15.4063 5.52681C15.5038 5.33168 15.5555 5.1155 15.5555 4.88976C15.5555 4.33689 15.2385 3.85034 14.7679 3.61375C14.9133 3.32296 14.956 2.98818 14.8827 2.6553C14.7399 2.00998 14.1322 1.5419 13.4377 1.5419H7.58438C7.14118 1.5419 6.42698 1.68538 5.89641 1.95832C5.67449 1.34423 5.08527 0.904226 4.39594 0.904226H2.48288C1.60353 0.904226 0.888672 1.61905 0.888672 2.49843V7.59994C0.888672 8.47929 1.60353 9.19415 2.48288 9.19418H5.67129C5.84729 9.19418 5.99015 9.05133 5.99015 8.87532V8.75352L6.06604 8.7924L7.90321 12.7709V14.9333C7.90321 15.0302 7.94721 15.1221 8.0231 15.1827L8.02379 15.1832C8.05186 15.205 8.52294 15.571 9.17859 15.571C9.9164 15.571 11.0917 14.4034 11.0917 13.0203C11.0917 12.1479 10.7792 11.062 10.5841 10.4695H14.5231C15.3814 10.4695 16.1115 9.83439 16.1861 9.02388C16.2276 8.56923 16.0758 8.1324 15.778 7.80655ZM14.5817 5.79975C14.6212 5.91773 14.7252 6.00125 14.8483 6.01592C15.2513 6.06247 15.5555 6.40045 15.5554 6.80282C15.5554 7.09997 15.3884 7.37034 15.1186 7.50745C15.0166 7.56039 14.9503 7.6637 14.9458 7.77911C14.9414 7.89452 14.9994 8.00294 15.097 8.06287C15.4101 8.25609 15.5848 8.60173 15.551 8.96521C15.5064 9.45112 15.0549 9.83182 14.5231 9.83182H10.1351C10.0306 9.83182 9.93234 9.88348 9.8724 9.96956C9.8131 10.0563 9.80037 10.1666 9.83734 10.2642C9.83746 10.2645 9.83786 10.2656 9.83852 10.2674C9.86887 10.3489 10.454 11.9219 10.454 13.0203C10.454 14.0648 9.52805 14.9333 9.17859 14.9333C8.90377 14.9333 8.67354 14.8339 8.54088 14.7605V12.7014C8.54088 12.6555 8.53069 12.6096 8.51156 12.5675L6.5985 8.42256C6.56789 8.35688 6.51624 8.30332 6.45182 8.27142L5.99011 8.04056V2.64528C6.34964 2.38128 7.11259 2.17958 7.58438 2.17958H13.4378C13.8357 2.17958 14.1813 2.43722 14.2597 2.79305C14.3229 3.07875 14.2387 3.35614 14.0289 3.55382C13.9383 3.63928 13.9058 3.76871 13.9447 3.88669C13.9842 4.00467 14.0882 4.08819 14.2113 4.10286C14.6136 4.1494 14.9178 4.48739 14.9178 4.88976C14.9178 5.10913 14.8279 5.31446 14.6659 5.46688C14.5754 5.55234 14.5428 5.68177 14.5817 5.79975ZM5.35245 2.4924C5.34919 1.96779 4.9213 1.5419 4.39594 1.5419H2.48288C1.9555 1.5419 1.52635 1.97106 1.52635 2.49843V7.59994C1.52635 8.12732 1.9555 8.55647 2.48288 8.55647H5.35247V8.24411C5.35242 8.24187 5.3524 8.23962 5.3524 8.23736V2.49818C5.3524 2.49625 5.35242 2.49432 5.35245 2.4924Z" fill="#FF0000"/>
<path d="M15.778 7.80655L15.4089 8.14387L15.0869 7.79145L15.424 7.45344L15.778 7.80655ZM15.4063 5.52681L15.1812 5.9733L14.7362 5.74897L14.959 5.3032L15.4063 5.52681ZM14.7679 3.61375L14.5433 4.06047L14.0976 3.83638L14.3207 3.39014L14.7679 3.61375ZM14.8827 2.6553L15.3709 2.54726L15.371 2.54774L14.8827 2.6553ZM5.89641 1.95832L6.12513 2.40294L5.61944 2.66308L5.42617 2.12825L5.89641 1.95832ZM2.48288 9.19418V9.69418H2.48286L2.48288 9.19418ZM5.99015 8.75352H5.49015V7.93549L6.21816 8.30853L5.99015 8.75352ZM6.06604 8.7924L6.29405 8.34742L6.44763 8.42612L6.51998 8.58279L6.06604 8.7924ZM7.90321 12.7709L8.35715 12.5613L8.40321 12.6611V12.7709H7.90321ZM8.0231 15.1827L7.71649 15.5777L7.71115 15.5734L8.0231 15.1827ZM8.02379 15.1832L8.33037 14.7882L8.33055 14.7884L8.02379 15.1832ZM10.5841 10.4695L10.1092 10.626L9.89295 9.96953H10.5841V10.4695ZM16.1861 9.02388L16.6841 9.06929L16.684 9.06972L16.1861 9.02388ZM14.8483 6.01592L14.7909 6.51263L14.7891 6.51241L14.8483 6.01592ZM14.5817 5.79975L14.1076 5.95855L14.1069 5.95627L14.5817 5.79975ZM15.5554 6.80282H15.0554V6.80278L15.5554 6.80282ZM15.1186 7.50745L14.8883 7.06363L14.8921 7.06173L15.1186 7.50745ZM14.9458 7.77911L15.4455 7.79839L14.9458 7.77911ZM15.097 8.06287L15.3587 7.63683L15.3596 7.63738L15.097 8.06287ZM15.551 8.96521L15.0531 8.91948L15.0531 8.9189L15.551 8.96521ZM9.8724 9.96956L9.45967 9.6873L9.46205 9.68389L9.8724 9.96956ZM9.83734 10.2642L10.305 10.087L10.308 10.0954L9.83734 10.2642ZM9.83852 10.2674L10.3071 10.093L10.3071 10.093L9.83852 10.2674ZM8.54088 14.7605L8.29901 15.1981L8.04088 15.0555V14.7605H8.54088ZM8.51156 12.5675L8.96555 12.358L8.96675 12.3606L8.51156 12.5675ZM6.5985 8.42256L7.05169 8.21133L7.05248 8.21303L6.5985 8.42256ZM6.45182 8.27142L6.22996 8.71951L6.22821 8.71863L6.45182 8.27142ZM5.99011 8.04056L5.76649 8.48776L5.49011 8.34957V8.04056H5.99011ZM5.99011 2.64528H5.49011V2.39211L5.69417 2.24226L5.99011 2.64528ZM14.2597 2.79305L13.7715 2.90092L13.7715 2.90068L14.2597 2.79305ZM14.0289 3.55382L13.6857 3.19021L13.686 3.18989L14.0289 3.55382ZM13.9447 3.88669L13.4706 4.04549L13.4698 4.04321L13.9447 3.88669ZM14.2113 4.10286L14.1538 4.59956L14.152 4.59935L14.2113 4.10286ZM14.6659 5.46688L14.3227 5.10327L14.3233 5.10274L14.6659 5.46688ZM5.35245 2.4924L5.85259 2.4893L5.85237 2.50133L5.35245 2.4924ZM5.35247 8.55647H5.85247V9.05647H5.35247V8.55647ZM5.35247 8.24411L5.85247 8.2337V8.24411H5.35247ZM16.6932 6.80282C16.6932 7.32065 16.4867 7.80412 16.132 8.15966L15.424 7.45344C15.5948 7.28223 15.6932 7.05148 15.6932 6.80282H16.6932ZM15.6313 5.08032C16.2653 5.39988 16.6932 6.05534 16.6932 6.80282H15.6932C15.6932 6.44455 15.4885 6.12817 15.1812 5.9733L15.6313 5.08032ZM16.0555 4.88976C16.0555 5.19271 15.9859 5.48548 15.8535 5.75042L14.959 5.3032C15.0217 5.17787 15.0555 5.0383 15.0555 4.88976H16.0555ZM14.9925 3.16702C15.6268 3.48592 16.0555 4.14221 16.0555 4.88976H15.0555C15.0555 4.53156 14.8502 4.21476 14.5433 4.06047L14.9925 3.16702ZM15.371 2.54774C15.4686 2.99091 15.4124 3.44274 15.2151 3.83736L14.3207 3.39014C14.4142 3.20319 14.4434 2.98544 14.3944 2.76286L15.371 2.54774ZM13.4377 1.0419C14.3493 1.0419 15.1737 1.65644 15.3709 2.54726L14.3945 2.76335C14.306 2.36351 13.915 2.0419 13.4377 2.0419V1.0419ZM7.58438 1.0419H13.4377V2.0419H7.58438V1.0419ZM5.66768 1.5137C6.27414 1.20173 7.0676 1.0419 7.58438 1.0419V2.0419C7.21476 2.0419 6.57982 2.16904 6.12513 2.40294L5.66768 1.5137ZM4.39594 0.404226C5.30293 0.404226 6.07557 0.982923 6.36664 1.78839L5.42617 2.12825C5.27341 1.70554 4.86761 1.40423 4.39594 1.40423V0.404226ZM2.48288 0.404226H4.39594V1.40423H2.48288V0.404226ZM0.388672 2.49843C0.388672 1.3429 1.32739 0.404226 2.48288 0.404226V1.40423C1.87967 1.40423 1.38867 1.8952 1.38867 2.49843H0.388672ZM0.388672 7.59994V2.49843H1.38867V7.59994H0.388672ZM2.48286 9.69418C1.32739 9.69414 0.388672 8.75543 0.388672 7.59994H1.38867C1.38867 8.20314 1.87967 8.69416 2.4829 8.69418L2.48286 9.69418ZM5.67129 9.69418H2.48288V8.69418H5.67129V9.69418ZM6.49015 8.87532C6.49015 9.32747 6.12344 9.69418 5.67129 9.69418V8.69418C5.57115 8.69418 5.49015 8.77518 5.49015 8.87532H6.49015ZM6.49015 8.75352V8.87532H5.49015V8.75352H6.49015ZM5.83803 9.23739L5.76213 9.1985L6.21816 8.30853L6.29405 8.34742L5.83803 9.23739ZM7.44927 12.9806L5.6121 9.00202L6.51998 8.58279L8.35715 12.5613L7.44927 12.9806ZM7.40321 14.9333V12.7709H8.40321V14.9333H7.40321ZM7.71115 15.5734C7.51602 15.4176 7.40321 15.1818 7.40321 14.9333H8.40321C8.40321 14.8787 8.37839 14.8265 8.33506 14.7919L7.71115 15.5734ZM7.71721 15.5782L7.71652 15.5776L8.32968 14.7877L8.33037 14.7882L7.71721 15.5782ZM9.17859 16.071C8.34985 16.071 7.76637 15.6164 7.71702 15.578L8.33055 14.7884C8.33735 14.7936 8.69604 15.071 9.17859 15.071V16.071ZM11.5917 13.0203C11.5917 13.8517 11.2408 14.5988 10.7964 15.1338C10.573 15.4028 10.3164 15.6301 10.05 15.7933C9.78972 15.9528 9.48691 16.071 9.17859 16.071V15.071C9.23917 15.071 9.35995 15.0433 9.52756 14.9406C9.68906 14.8417 9.8646 14.6906 10.0272 14.4949C10.3549 14.1002 10.5917 13.572 10.5917 13.0203H11.5917ZM11.059 10.3131C11.2549 10.908 11.5917 12.0607 11.5917 13.0203H10.5917C10.5917 12.2351 10.3035 11.2159 10.1092 10.626L11.059 10.3131ZM14.5231 10.9695H10.5841V9.96953H14.5231V10.9695ZM16.684 9.06972C16.5838 10.1587 15.618 10.9695 14.5231 10.9695V9.96953C15.1448 9.96953 15.6393 9.51014 15.6882 8.97805L16.684 9.06972ZM16.1471 7.46923C16.539 7.89801 16.7384 8.47347 16.6841 9.06929L15.6882 8.97848C15.7168 8.665 15.6127 8.36679 15.4089 8.14387L16.1471 7.46923ZM14.7891 6.51241C14.4764 6.47512 14.2093 6.26209 14.1076 5.95854L15.0558 5.64095C15.0332 5.57337 14.974 5.52738 14.9075 5.51944L14.7891 6.51241ZM15.0554 6.80278C15.0555 6.65832 14.9456 6.53049 14.7909 6.51262L14.9056 5.51923C15.557 5.59445 16.0555 6.14258 16.0554 6.80286L15.0554 6.80278ZM14.8921 7.06173C14.997 7.00838 15.0554 6.90845 15.0554 6.80282H16.0554C16.0554 7.29149 15.7797 7.73231 15.3452 7.95318L14.8921 7.06173ZM14.4462 7.75983C14.4577 7.46296 14.6284 7.19854 14.8884 7.06365L15.3489 7.95126C15.4049 7.92224 15.4429 7.86443 15.4455 7.79839L14.4462 7.75983ZM14.8353 8.48891C14.5833 8.33412 14.4348 8.05518 14.4462 7.75983L15.4455 7.79839C15.448 7.73386 15.4155 7.67176 15.3587 7.63683L14.8353 8.48891ZM15.0531 8.9189C15.0691 8.74784 14.9885 8.58351 14.8344 8.48836L15.3596 7.63738C15.8316 7.92867 16.1006 8.45561 16.0488 9.01151L15.0531 8.9189ZM14.5231 9.33182C14.8325 9.33182 15.0353 9.11366 15.0531 8.91948L16.0489 9.01094C15.9775 9.78859 15.2773 10.3318 14.5231 10.3318V9.33182ZM10.1351 9.33182H14.5231V10.3318H10.1351V9.33182ZM9.46205 9.68389C9.61465 9.4647 9.86552 9.33182 10.1351 9.33182V10.3318C10.1956 10.3318 10.25 10.3023 10.2828 10.2552L9.46205 9.68389ZM9.36979 10.4414C9.27522 10.1918 9.30753 9.9098 9.45969 9.68731L10.2851 10.2518C10.3187 10.2028 10.3255 10.1414 10.3049 10.087L9.36979 10.4414ZM9.36992 10.4417C9.3696 10.4409 9.36924 10.4399 9.36892 10.4391C9.36876 10.4386 9.36853 10.438 9.36827 10.4373C9.36815 10.437 9.36748 10.4352 9.36668 10.4329L10.308 10.0954C10.3076 10.0942 10.3072 10.0932 10.3071 10.0928C10.3069 10.0924 10.3068 10.092 10.3067 10.0918C10.3066 10.0915 10.3065 10.0913 10.3065 10.0914C10.3066 10.0916 10.3068 10.0921 10.3071 10.093L9.36992 10.4417ZM9.95397 13.0203C9.95397 12.5416 9.82329 11.9275 9.67584 11.3962C9.53122 10.8751 9.38284 10.4765 9.3699 10.4417L10.3071 10.093C10.3245 10.1398 10.4839 10.5684 10.6394 11.1288C10.7921 11.679 10.954 12.4006 10.954 13.0203H9.95397ZM9.17859 14.4333C9.10125 14.4333 9.11552 14.4601 9.23342 14.3753C9.32726 14.3079 9.44287 14.2002 9.55525 14.0582C9.78365 13.7696 9.95397 13.3976 9.95397 13.0203H10.954C10.954 13.6875 10.6613 14.272 10.3394 14.6788C10.1766 14.8845 9.99524 15.0592 9.81718 15.1873C9.66318 15.298 9.43066 15.4333 9.17859 15.4333V14.4333ZM8.78276 14.3229C8.8755 14.3742 9.02029 14.4333 9.17859 14.4333V15.4333C8.78725 15.4333 8.47158 15.2935 8.29901 15.1981L8.78276 14.3229ZM9.04088 12.7014V14.7605H8.04088V12.7014H9.04088ZM8.96675 12.3606C9.01456 12.4658 9.04088 12.5821 9.04088 12.7014H8.04088C8.04088 12.7289 8.04682 12.7534 8.05638 12.7744L8.96675 12.3606ZM7.05248 8.21303L8.96554 12.358L8.05758 12.7771L6.14452 8.63208L7.05248 8.21303ZM6.67368 7.82334C6.84239 7.90687 6.97431 8.0453 7.05169 8.21133L6.14531 8.63378C6.16147 8.66847 6.19009 8.69977 6.22996 8.71951L6.67368 7.82334ZM6.21372 7.59335L6.67544 7.82422L6.22821 8.71863L5.76649 8.48776L6.21372 7.59335ZM6.49011 2.64528V8.04056H5.49011V2.64528H6.49011ZM7.58438 2.67958C7.40773 2.67958 7.14648 2.71945 6.88136 2.79452C6.61027 2.87127 6.39568 2.96778 6.28604 3.0483L5.69417 2.24226C5.94406 2.05877 6.29072 1.92243 6.60894 1.83234C6.93312 1.74055 7.28924 1.67958 7.58438 1.67958V2.67958ZM13.4378 2.67958H7.58438V1.67958H13.4378V2.67958ZM13.7715 2.90068C13.75 2.80336 13.6324 2.67958 13.4378 2.67958V1.67958C14.0389 1.67958 14.6126 2.07107 14.748 2.68541L13.7715 2.90068ZM13.686 3.18989C13.7653 3.11515 13.7974 3.01792 13.7715 2.90092L14.748 2.68517C14.8484 3.13958 14.712 3.59713 14.3718 3.91774L13.686 3.18989ZM13.4698 4.04321C13.3704 3.7415 13.4537 3.40919 13.6857 3.19021L14.3721 3.91743C14.423 3.86937 14.4413 3.79592 14.4196 3.73016L13.4698 4.04321ZM14.152 4.59935C13.8394 4.56206 13.5723 4.34903 13.4706 4.04549L14.4188 3.72789C14.3962 3.66031 14.337 3.61431 14.2705 3.60638L14.152 4.59935ZM14.4178 4.88976C14.4178 4.74502 14.3077 4.61735 14.1538 4.59955L14.2687 3.60617C14.9196 3.68146 15.4178 4.22976 15.4178 4.88976H14.4178ZM14.3233 5.10274C14.3869 5.04283 14.4178 4.96839 14.4178 4.88976H15.4178C15.4178 5.24988 15.2688 5.58609 15.0085 5.83102L14.3233 5.10274ZM14.1069 5.95627C14.0074 5.65455 14.0907 5.32224 14.3227 5.10327L15.0091 5.83049C15.06 5.78243 15.0783 5.70898 15.0566 5.64322L14.1069 5.95627ZM4.85246 2.49551C4.85091 2.24563 4.64618 2.0419 4.39594 2.0419V1.0419C5.19642 1.0419 5.84748 1.68995 5.85244 2.4893L4.85246 2.49551ZM4.39594 2.0419H2.48288V1.0419H4.39594V2.0419ZM2.48288 2.0419C2.23164 2.0419 2.02635 2.2472 2.02635 2.49843H1.02635C1.02635 1.69491 1.67936 1.0419 2.48288 1.0419V2.0419ZM2.02635 2.49843V7.59994H1.02635V2.49843H2.02635ZM2.02635 7.59994C2.02635 7.85117 2.23165 8.05647 2.48288 8.05647V9.05647C1.67936 9.05647 1.02635 8.40346 1.02635 7.59994H2.02635ZM2.48288 8.05647H5.35247V9.05647H2.48288V8.05647ZM4.85247 8.55647V8.24411H5.85247V8.55647H4.85247ZM4.85258 8.25452C4.85246 8.24879 4.8524 8.24307 4.8524 8.23736H5.8524C5.8524 8.23616 5.85239 8.23494 5.85236 8.2337L4.85258 8.25452ZM4.8524 8.23736V2.49818H5.8524V8.23736H4.8524ZM4.8524 2.49818C4.8524 2.49328 4.85244 2.48838 4.85253 2.48347L5.85237 2.50133C5.85239 2.50027 5.8524 2.49921 5.8524 2.49818H4.8524Z" fill="#FF0000" mask="url(#path-1-outside-1_567_2052)"/>
</svg>
