<svg width="16" height="22" viewBox="0 0 16 22" fill="none" xmlns="http://www.w3.org/2000/svg">
    <path fill-rule="evenodd" clip-rule="evenodd"
        d="M2.87185 11.7999H8.00085C8.28485 11.7999 8.55585 11.9209 8.74485 12.1319C8.93385 12.3429 9.02485 12.6249 8.99485 12.9069L8.54585 17.0569L13.1298 10.1999H8.00085C7.71685 10.1999 7.44585 10.0789 7.25685 9.86786C7.06685 9.65686 6.97585 9.37486 7.00685 9.09286L7.45585 4.94386L2.87185 11.7999ZM7.11185 21.9999C6.99785 21.9999 6.88285 21.9809 6.76985 21.9399C6.33785 21.7819 6.06785 21.3499 6.11785 20.8929L6.88685 13.7999H1.00085C0.631848 13.7999 0.292848 13.5969 0.118848 13.2719C-0.0551524 12.9459 -0.0351524 12.5509 0.169848 12.2439L8.05885 0.444859C8.31385 0.0608593 8.79785 -0.0971408 9.23085 0.0608593C9.66385 0.217859 9.93385 0.650859 9.88385 1.10786L9.11485 8.19986H15.0008C15.3698 8.19986 15.7088 8.40386 15.8828 8.72886C16.0568 9.05486 16.0368 9.44886 15.8318 9.75586L7.94285 21.5559C7.75385 21.8399 7.43785 21.9999 7.11185 21.9999Z"
        fill="#FF9914" />
</svg>
