<svg width="16" height="16" viewBox="0 0 16 16" fill="none" xmlns="http://www.w3.org/2000/svg">
<path fill-rule="evenodd" clip-rule="evenodd" d="M12.0186 6.67871L9.32359 3.98371L11.2716 2.03471L13.9656 4.72871L12.0186 6.67871ZM5.07959 13.6247L2.10259 13.8957L2.36659 10.9397L7.98359 5.32271L10.6796 8.01871L5.07959 13.6247ZM15.4036 3.33771L15.4026 3.33671L12.6646 0.598705C11.9236 -0.140295 10.6506 -0.175295 9.94859 0.529705L0.952591 9.52571C0.626591 9.85071 0.424591 10.2827 0.382591 10.7397L0.00359084 14.9097C-0.0224092 15.2047 0.0825909 15.4967 0.292591 15.7067C0.481591 15.8957 0.736591 15.9997 0.999591 15.9997C1.03059 15.9997 1.06059 15.9987 1.09059 15.9957L5.26059 15.6167C5.71859 15.5747 6.14959 15.3737 6.47459 15.0487L15.4716 6.05171C16.1996 5.32171 16.1686 4.1037 15.4036 3.33771Z" fill="#2E3A59"/>
</svg>
