<svg width="18" height="18" viewBox="0 0 18 18" fill="none" xmlns="http://www.w3.org/2000/svg">
<path fill-rule="evenodd" clip-rule="evenodd" d="M9 10.125C8.37975 10.125 7.875 9.62027 7.875 9.00002C7.875 8.37977 8.37975 7.87502 9 7.87502C9.62025 7.87502 10.125 8.37977 10.125 9.00002C10.125 9.62027 9.62025 10.125 9 10.125ZM9 6.37502C7.5525 6.37502 6.375 7.55252 6.375 9.00002C6.375 10.4475 7.5525 11.625 9 11.625C10.4475 11.625 11.625 10.4475 11.625 9.00002C11.625 7.55252 10.4475 6.37502 9 6.37502ZM9.16478 12.7482C5.93528 12.8232 3.82853 10.061 3.12953 8.99672C3.89903 7.79297 5.83703 5.32847 8.83553 5.25197C12.0523 5.17022 14.171 7.93922 14.87 9.00347C14.1013 10.2072 12.1625 12.6717 9.16478 12.7482ZM16.4008 8.62697C15.9223 7.79297 13.2793 3.61247 8.79728 3.75272C4.65128 3.85772 2.24003 7.51022 1.59953 8.62697C1.46678 8.85797 1.46678 9.14222 1.59953 9.37322C2.07128 10.196 4.62128 14.2497 9.01853 14.2497C9.08003 14.2497 9.14153 14.249 9.20303 14.2475C13.3483 14.1417 15.7603 10.49 16.4008 9.37322C16.5328 9.14222 16.5328 8.85797 16.4008 8.62697Z" fill="#888888"/>
</svg>
