<svg width="24" height="24" viewBox="0 0 24 24" fill="none" xmlns="http://www.w3.org/2000/svg">
<g clip-path="url(#clip0_567_4093)">
<path d="M2.49998 0H21.5C22.8807 0 24 1.11928 24 2.49998V21.5C24 22.8807 22.8807 24 21.5 24H2.49998C1.11928 24 0 22.8807 0 21.5V2.49998C0 1.11928 1.11928 0 2.49998 0Z" fill="#2196F3"/>
<path d="M18.5 6.99998H20.5C20.7762 6.99998 21.0001 6.77611 21.0001 6.49997V3.49997C21 3.22388 20.7761 3 20.5 3H18.5C15.4624 3 13 5.46244 13 8.49998V11H10.5C10.2239 11 10 11.2238 10 11.5V14.5C10 14.7761 10.2239 15 10.5 15H13V24H17V15H19.5C19.7151 14.9999 19.906 14.8621 19.974 14.658L20.974 11.658C21.0613 11.396 20.9196 11.1129 20.6576 11.0256C20.6068 11.0087 20.5536 11 20.5 11H17V8.49998C17 7.67156 17.6716 6.99998 18.5 6.99998Z" fill="#FAFAFA"/>
</g>
<defs>
<clipPath id="clip0_567_4093">
<rect width="24" height="24" fill="white"/>
</clipPath>
</defs>
</svg>
