<svg width="30" height="30" viewBox="0 0 30 30" fill="none" xmlns="http://www.w3.org/2000/svg">
<path fill-rule="evenodd" clip-rule="evenodd" d="M13.75 23.75C13.06 23.75 12.5 23.19 12.5 22.5C12.5 21.81 13.06 21.25 13.75 21.25C14.44 21.25 15 21.81 15 22.5C15 23.19 14.44 23.75 13.75 23.75ZM26.25 21.25H17.2687C16.7512 19.7987 15.3775 18.75 13.75 18.75C12.1225 18.75 10.7487 19.7987 10.2312 21.25H3.75C3.05875 21.25 2.5 21.8088 2.5 22.5C2.5 23.1912 3.05875 23.75 3.75 23.75H10.2312C10.7487 25.2013 12.1225 26.25 13.75 26.25C15.3775 26.25 16.7512 25.2013 17.2687 23.75H26.25C26.9412 23.75 27.5 23.1912 27.5 22.5C27.5 21.8088 26.9412 21.25 26.25 21.25ZM23.75 16.25C23.06 16.25 22.5 15.69 22.5 15C22.5 14.31 23.06 13.75 23.75 13.75C24.44 13.75 25 14.31 25 15C25 15.69 24.44 16.25 23.75 16.25ZM23.75 11.25C22.1225 11.25 20.7488 12.2987 20.2313 13.75H3.75C3.05875 13.75 2.5 14.3088 2.5 15C2.5 15.6912 3.05875 16.25 3.75 16.25H20.2313C20.7488 17.7013 22.1225 18.75 23.75 18.75C25.8175 18.75 27.5 17.0675 27.5 15C27.5 12.9325 25.8175 11.25 23.75 11.25ZM8.75 6.25C9.44 6.25 10 6.81 10 7.5C10 8.19 9.44 8.75 8.75 8.75C8.06 8.75 7.5 8.19 7.5 7.5C7.5 6.81 8.06 6.25 8.75 6.25ZM3.75 8.75H5.23125C5.74875 10.2013 7.1225 11.25 8.75 11.25C10.3775 11.25 11.7513 10.2013 12.2688 8.75H26.25C26.9412 8.75 27.5 8.19125 27.5 7.5C27.5 6.80875 26.9412 6.25 26.25 6.25H12.2688C11.7513 4.79875 10.3775 3.75 8.75 3.75C7.1225 3.75 5.74875 4.79875 5.23125 6.25H3.75C3.05875 6.25 2.5 6.80875 2.5 7.5C2.5 8.19125 3.05875 8.75 3.75 8.75Z" fill="#FF9914"/>
</svg>
