<svg width="24" height="24" viewBox="0 0 24 24" fill="none" xmlns="http://www.w3.org/2000/svg">
<g clip-path="url(#clip0_567_4096)">
<path d="M19.7201 21.1267C17.6389 22.8845 14.9389 24.0002 11.9998 24.0002C7.62637 24.0002 3.78726 21.5908 1.70605 18.0752L2.48521 14.4835L5.93887 13.8423C6.74043 16.4298 9.15913 18.3283 11.9998 18.3283C13.3779 18.3283 14.6576 17.8923 15.7123 17.1189L19.0311 17.6252L19.7201 21.1267Z" fill="#59C36A"/>
<path d="M19.7203 21.1264L19.0313 17.6248L15.7125 17.1186C14.6578 17.892 13.3781 18.328 12 18.328V23.9998C14.9391 23.9998 17.6391 22.8842 19.7203 21.1264Z" fill="#00A66C"/>
<path d="M5.67187 11.9996C5.67187 12.6465 5.77031 13.2652 5.93906 13.8418L1.70625 18.0746C0.651563 16.3027 0 14.2215 0 11.9996C0 9.7777 0.651563 7.6965 1.70625 5.92462L5.10342 6.50929L5.93906 10.1574C5.77031 10.7339 5.67187 11.3527 5.67187 11.9996Z" fill="#FFDA2D"/>
<path d="M24 12C24 15.6562 22.3079 18.9328 19.7203 21.1266L15.7125 17.1188C16.5281 16.5281 17.2172 15.7406 17.6672 14.8125H12C11.6062 14.8125 11.2969 14.5031 11.2969 14.1094V9.89063C11.2969 9.49683 11.6062 9.1875 12 9.1875H23.1C23.4375 9.1875 23.7328 9.42652 23.7891 9.76402C23.9297 10.4953 24 11.2546 24 12Z" fill="#4086F4"/>
<path d="M17.6672 14.8125C17.2172 15.7406 16.5281 16.5281 15.7125 17.1188L19.7203 21.1266C22.3079 18.9328 24 15.6563 24 12C24 11.2546 23.9297 10.4953 23.789 9.76402C23.7328 9.42652 23.4375 9.1875 23.1 9.1875H12V14.8125H17.6672Z" fill="#4175DF"/>
<path d="M19.917 3.35152C19.9311 3.54839 19.8467 3.73125 19.7201 3.87183L16.7107 6.86714C16.4717 7.12027 16.078 7.14839 15.7967 6.93745C14.6857 6.10781 13.3779 5.67188 11.9998 5.67188C9.15913 5.67188 6.74043 7.57027 5.93887 10.1578L1.70605 5.925C3.78726 2.40938 7.62637 0 11.9998 0C14.7982 0 17.5264 1.03125 19.6639 2.8312C19.8186 2.95781 19.9029 3.15464 19.917 3.35152Z" fill="#FF641A"/>
<path d="M15.7969 6.93745C16.0781 7.14844 16.4718 7.12027 16.7109 6.86714L19.7203 3.87183C19.8469 3.73125 19.9313 3.54844 19.9172 3.35152C19.903 3.15459 19.8187 2.95781 19.664 2.8312C17.5266 1.03125 14.7984 0 12 0V5.67188C13.3781 5.67188 14.6859 6.10781 15.7969 6.93745Z" fill="#F03800"/>
</g>
<defs>
<clipPath id="clip0_567_4096">
<rect width="24" height="24" fill="white"/>
</clipPath>
</defs>
</svg>
