<svg width="32" height="32" viewBox="0 0 32 32" fill="none" xmlns="http://www.w3.org/2000/svg">
<path fill-rule="evenodd" clip-rule="evenodd" d="M16 14.666C14.8973 14.666 14 13.7687 14 12.666C14 11.5633 14.8973 10.666 16 10.666C17.1027 10.666 18 11.5633 18 12.666C18 13.7687 17.1027 14.666 16 14.666ZM16 7.99933C13.4267 7.99933 11.3333 10.0927 11.3333 12.666C11.3333 15.2393 13.4267 17.3327 16 17.3327C18.5733 17.3327 20.6667 15.2393 20.6667 12.666C20.6667 10.0927 18.5733 7.99933 16 7.99933ZM16 26.1947C13.7667 24.0827 8 18.1533 8 13.2293C8 8.87599 11.588 5.33332 16 5.33332C20.412 5.33332 24 8.87599 24 13.2293C24 18.1533 18.2333 24.0827 16 26.1947ZM16 2.66666C10.1187 2.66666 5.33334 7.40399 5.33334 13.2293C5.33334 20.5293 14.732 28.668 15.132 29.0107C15.3827 29.2253 15.6907 29.3333 16 29.3333C16.3093 29.3333 16.6173 29.2253 16.868 29.0107C17.268 28.668 26.6667 20.5293 26.6667 13.2293C26.6667 7.40399 21.8813 2.66666 16 2.66666Z" fill="#FF9914"/>
</svg>
