<svg width="17" height="17" viewBox="0 0 17 17" fill="none" xmlns="http://www.w3.org/2000/svg">
<path fill-rule="evenodd" clip-rule="evenodd" d="M12.4075 13.5983C12.2642 13.2375 12.0608 12.9225 11.8825 12.6533C11.7925 12.5183 11.7 12.3808 11.6192 12.2392C11.295 11.6758 11.4067 11.4475 11.9325 10.5667L12.0175 10.4225C12.4433 9.705 12.4667 9.01667 12.4883 8.41C12.4983 8.11167 12.5083 7.83083 12.5658 7.56667C12.7 6.95667 13.9892 6.79417 14.7883 6.69833C14.9225 7.2225 15 7.76833 15 8.33333C15 10.4742 13.9817 12.3775 12.4075 13.5983ZM2.46833 11.4992C2.99833 11.6342 3.5725 11.7275 4.15667 11.7275C5.05667 11.7275 5.97583 11.5075 6.77083 10.885C8.20083 9.76667 8.20083 8.33667 8.20083 7.18667C8.20083 6.44333 8.20083 5.8025 8.51083 5.23333C8.6775 4.92833 9.0325 4.71667 9.44333 4.47083C9.695 4.32 9.95583 4.165 10.2058 3.96833C10.7417 3.54917 11.14 3.01 11.3867 2.41333C12.5533 3.0175 13.52 3.95333 14.1583 5.09917C12.9683 5.26417 11.2792 5.65417 10.9383 7.21C10.8483 7.62167 10.8342 8.00917 10.8233 8.35167C10.8058 8.8375 10.7925 9.22167 10.5842 9.57333L10.5008 9.71333C9.96167 10.6158 9.35167 11.6392 10.1742 13.07C10.2733 13.2433 10.3842 13.41 10.4933 13.5758C10.78 14.0058 10.9208 14.2433 10.9217 14.4767C10.1258 14.8133 9.25083 15 8.33333 15C5.8025 15 3.5975 13.5817 2.46833 11.4992ZM8.33333 1.66667C8.84667 1.66667 9.3425 1.73 9.8225 1.84C9.68167 2.15 9.46417 2.4325 9.1775 2.65667C8.99583 2.8 8.79167 2.91917 8.58917 3.04C8.04667 3.36333 7.4325 3.73 7.0475 4.435C6.53417 5.37667 6.53417 6.33833 6.53417 7.18667C6.53417 8.31583 6.4975 8.98333 5.74417 9.5725C4.60333 10.4667 2.8575 9.9675 1.7775 9.51333C1.70917 9.12917 1.66667 8.73583 1.66667 8.33333C1.66667 4.6575 4.6575 1.66667 8.33333 1.66667ZM8.33333 0C3.73833 0 0 3.73833 0 8.33333C0 12.9275 3.73833 16.6667 8.33333 16.6667C12.9283 16.6667 16.6667 12.9275 16.6667 8.33333C16.6667 3.73833 12.9283 0 8.33333 0Z" fill="#222222"/>
</svg>
