<svg width="19" height="17" viewBox="0 0 19 17" fill="none" xmlns="http://www.w3.org/2000/svg">
<mask id="path-1-outside-1_567_2040" maskUnits="userSpaceOnUse" x="0.275391" y="0.428986" width="19" height="17" fill="black">
<rect fill="white" x="0.275391" y="0.428986" width="19" height="17"/>
<path d="M10.2266 1.42899C11.0232 1.4293 12.292 2.59681 12.292 3.97977C12.292 4.85209 11.9548 5.93812 11.7441 6.53055H15.9961C16.9227 6.53055 17.7113 7.16548 17.792 7.97586C17.8368 8.43051 17.6731 8.86779 17.3516 9.19363C17.6351 9.457 17.7998 9.81435 17.7998 10.1975C17.7997 10.7502 17.4581 11.2357 16.9502 11.4729C17.0555 11.6681 17.1113 11.8849 17.1113 12.1106C17.1112 12.6633 16.7687 13.1495 16.2607 13.386C16.4177 13.6768 16.4639 14.0121 16.3848 14.345C16.2305 14.99 15.5747 15.4581 14.8252 15.4583H8.50488C8.02636 15.4583 7.25542 15.3142 6.68262 15.0413C6.44302 15.6554 5.80675 16.096 5.0625 16.096H2.99707C2.04765 16.096 1.27539 15.3806 1.27539 14.5013V9.39969C1.2756 8.52051 2.04778 7.80597 2.99707 7.80594H6.43945C6.62935 7.80594 6.78396 7.94847 6.78418 8.1243V8.24637L6.86523 8.20731L8.84961 4.22879V2.06668C8.84961 1.96987 8.89673 1.87825 8.97852 1.81766C8.99985 1.80235 9.5119 1.42899 10.2266 1.42899ZM2.99707 8.44363C2.4278 8.44363 1.96408 8.87248 1.96387 9.39969V14.5013C1.96387 15.0286 2.42767 15.4583 2.99707 15.4583H5.0625C5.62989 15.4583 6.09149 15.0319 6.09473 14.5071V8.76297L6.0957 8.44363H2.99707ZM10.2266 2.06668C9.93002 2.06668 9.68136 2.16622 9.53809 2.23953V4.29813C9.53809 4.34404 9.52651 4.3908 9.50586 4.43289L7.44043 8.57742C7.40738 8.64308 7.35176 8.6969 7.28223 8.72879L6.78418 8.95828V14.3528C7.1721 14.617 7.99524 14.8206 8.50488 14.8206H14.8252C15.2545 14.8204 15.6271 14.5628 15.7119 14.2073C15.7801 13.9217 15.6893 13.6442 15.4629 13.4466C15.3652 13.3612 15.3302 13.2315 15.3721 13.1136C15.4147 12.9956 15.5273 12.9114 15.6602 12.8968C16.0943 12.8501 16.4226 12.5127 16.4229 12.1106C16.4229 11.8913 16.3253 11.6859 16.1504 11.5335C16.0528 11.4481 16.0178 11.3183 16.0596 11.2005C16.1022 11.0825 16.2148 10.9984 16.3477 10.9837C16.7827 10.9371 17.1112 10.5997 17.1113 10.1975C17.1113 9.90039 16.9309 9.62957 16.6396 9.49246C16.5295 9.43954 16.458 9.33635 16.4531 9.22098C16.4483 9.10557 16.5109 8.99673 16.6162 8.9368C16.9542 8.74356 17.1429 8.39789 17.1064 8.03445C17.0581 7.54869 16.5702 7.16824 15.9961 7.16824H11.2588C11.1461 7.16818 11.0403 7.11647 10.9756 7.03055C10.9116 6.94383 10.8976 6.83319 10.9375 6.73563C10.9473 6.71078 11.6035 5.09896 11.6035 3.97977C11.6035 2.93553 10.6041 2.06718 10.2266 2.06668Z"/>
</mask>
<path d="M10.2266 1.42899C11.0232 1.4293 12.292 2.59681 12.292 3.97977C12.292 4.85209 11.9548 5.93812 11.7441 6.53055H15.9961C16.9227 6.53055 17.7113 7.16548 17.792 7.97586C17.8368 8.43051 17.6731 8.86779 17.3516 9.19363C17.6351 9.457 17.7998 9.81435 17.7998 10.1975C17.7997 10.7502 17.4581 11.2357 16.9502 11.4729C17.0555 11.6681 17.1113 11.8849 17.1113 12.1106C17.1112 12.6633 16.7687 13.1495 16.2607 13.386C16.4177 13.6768 16.4639 14.0121 16.3848 14.345C16.2305 14.99 15.5747 15.4581 14.8252 15.4583H8.50488C8.02636 15.4583 7.25542 15.3142 6.68262 15.0413C6.44302 15.6554 5.80675 16.096 5.0625 16.096H2.99707C2.04765 16.096 1.27539 15.3806 1.27539 14.5013V9.39969C1.2756 8.52051 2.04778 7.80597 2.99707 7.80594H6.43945C6.62935 7.80594 6.78396 7.94847 6.78418 8.1243V8.24637L6.86523 8.20731L8.84961 4.22879V2.06668C8.84961 1.96987 8.89673 1.87825 8.97852 1.81766C8.99985 1.80235 9.5119 1.42899 10.2266 1.42899ZM2.99707 8.44363C2.4278 8.44363 1.96408 8.87248 1.96387 9.39969V14.5013C1.96387 15.0286 2.42767 15.4583 2.99707 15.4583H5.0625C5.62989 15.4583 6.09149 15.0319 6.09473 14.5071V8.76297L6.0957 8.44363H2.99707ZM10.2266 2.06668C9.93002 2.06668 9.68136 2.16622 9.53809 2.23953V4.29813C9.53809 4.34404 9.52651 4.3908 9.50586 4.43289L7.44043 8.57742C7.40738 8.64308 7.35176 8.6969 7.28223 8.72879L6.78418 8.95828V14.3528C7.1721 14.617 7.99524 14.8206 8.50488 14.8206H14.8252C15.2545 14.8204 15.6271 14.5628 15.7119 14.2073C15.7801 13.9217 15.6893 13.6442 15.4629 13.4466C15.3652 13.3612 15.3302 13.2315 15.3721 13.1136C15.4147 12.9956 15.5273 12.9114 15.6602 12.8968C16.0943 12.8501 16.4226 12.5127 16.4229 12.1106C16.4229 11.8913 16.3253 11.6859 16.1504 11.5335C16.0528 11.4481 16.0178 11.3183 16.0596 11.2005C16.1022 11.0825 16.2148 10.9984 16.3477 10.9837C16.7827 10.9371 17.1112 10.5997 17.1113 10.1975C17.1113 9.90039 16.9309 9.62957 16.6396 9.49246C16.5295 9.43954 16.458 9.33635 16.4531 9.22098C16.4483 9.10557 16.5109 8.99673 16.6162 8.9368C16.9542 8.74356 17.1429 8.39789 17.1064 8.03445C17.0581 7.54869 16.5702 7.16824 15.9961 7.16824H11.2588C11.1461 7.16818 11.0403 7.11647 10.9756 7.03055C10.9116 6.94383 10.8976 6.83319 10.9375 6.73563C10.9473 6.71078 11.6035 5.09896 11.6035 3.97977C11.6035 2.93553 10.6041 2.06718 10.2266 2.06668Z" fill="#15CF74"/>
<path d="M10.2266 1.42899L10.2268 0.928986H10.2266V1.42899ZM12.292 3.97977L12.792 3.97977V3.97977H12.292ZM11.7441 6.53055L11.273 6.36302L11.0357 7.03055H11.7441V6.53055ZM17.792 7.97586L18.2896 7.92687L18.2895 7.92632L17.792 7.97586ZM17.3516 9.19363L16.9957 8.84244L16.6337 9.20929L17.0113 9.56001L17.3516 9.19363ZM17.7998 10.1975L18.2998 10.1977V10.1975H17.7998ZM16.9502 11.4729L16.7386 11.0199L16.2585 11.2441L16.5102 11.7105L16.9502 11.4729ZM17.1113 12.1106L17.6113 12.1108V12.1106H17.1113ZM16.2607 13.386L16.0497 12.9327L15.5687 13.1567L15.8208 13.6235L16.2607 13.386ZM16.3848 14.345L16.871 14.4613L16.8712 14.4607L16.3848 14.345ZM14.8252 15.4583V15.9583H14.8253L14.8252 15.4583ZM8.50488 15.4583L8.50486 15.9583H8.50488V15.4583ZM6.68262 15.0413L6.89768 14.5899L6.41226 14.3586L6.21682 14.8596L6.68262 15.0413ZM5.0625 16.096V16.596H5.0625L5.0625 16.096ZM1.27539 9.39969L0.775391 9.39957V9.39969H1.27539ZM2.99707 7.80594V7.30594H2.99705L2.99707 7.80594ZM6.78418 8.1243H7.28418L7.28418 8.12368L6.78418 8.1243ZM6.78418 8.24637H6.28418V9.04237L7.00125 8.69679L6.78418 8.24637ZM6.86523 8.20731L7.08231 8.65773L7.23635 8.58349L7.31267 8.43047L6.86523 8.20731ZM8.84961 4.22879L9.29704 4.45196L9.34961 4.34657V4.22879H8.84961ZM8.97852 1.81766L8.68702 1.41135L8.68087 1.4159L8.97852 1.81766ZM1.96387 9.39969L1.46387 9.39949V9.39969H1.96387ZM5.0625 15.4583V15.9583H5.06251L5.0625 15.4583ZM6.09473 14.5071L6.59473 14.5102V14.5071H6.09473ZM6.09473 8.76297L5.59473 8.76144V8.76297H6.09473ZM6.0957 8.44363L6.5957 8.44516L6.59723 7.94363H6.0957V8.44363ZM10.2266 2.06668L10.2272 1.56668H10.2266V2.06668ZM9.53809 2.23953L9.31032 1.79442L9.03809 1.93372V2.23953H9.53809ZM9.50586 4.43289L9.95338 4.65591L9.95472 4.65318L9.50586 4.43289ZM7.44043 8.57742L7.88704 8.80225L7.88794 8.80044L7.44043 8.57742ZM7.28223 8.72879L7.0738 8.2743L7.07298 8.27468L7.28223 8.72879ZM6.78418 8.95828L6.57493 8.50417L6.28418 8.63815V8.95828H6.78418ZM6.78418 14.3528H6.28418V14.6173L6.50275 14.7661L6.78418 14.3528ZM8.50488 14.8206L8.50485 15.3206H8.50488V14.8206ZM14.8252 14.8206V15.3206H14.8254L14.8252 14.8206ZM15.7119 14.2073L16.1983 14.3234L16.1983 14.3233L15.7119 14.2073ZM15.4629 13.4466L15.1338 13.823L15.1341 13.8232L15.4629 13.4466ZM15.3721 13.1136L14.9019 12.9435L14.9009 12.9463L15.3721 13.1136ZM15.6602 12.8968L15.6068 12.3996L15.6053 12.3998L15.6602 12.8968ZM16.4229 12.1106L16.9229 12.1109V12.1106H16.4229ZM16.1504 11.5335L15.8212 11.9098L15.8219 11.9104L16.1504 11.5335ZM16.0596 11.2005L15.5894 11.0304L15.5883 11.0333L16.0596 11.2005ZM16.3477 10.9837L16.2945 10.4865L16.2928 10.4867L16.3477 10.9837ZM17.1113 10.1975L17.6113 10.1977V10.1975H17.1113ZM16.6396 9.49246L16.423 9.94313L16.4267 9.94484L16.6396 9.49246ZM16.4531 9.22098L15.9536 9.24179L15.9536 9.24196L16.4531 9.22098ZM16.6162 8.9368L16.8635 9.37139L16.8644 9.37085L16.6162 8.9368ZM17.1064 8.03445L16.6089 8.084L16.6089 8.08441L17.1064 8.03445ZM11.2588 7.16824L11.2585 7.66824H11.2588V7.16824ZM10.9756 7.03055L10.5733 7.32757L10.5761 7.33127L10.9756 7.03055ZM10.9375 6.73563L11.4003 6.92499L11.4025 6.91937L10.9375 6.73563ZM11.6035 3.97977L12.1035 3.97977V3.97977H11.6035ZM10.2266 1.42899L10.2264 1.92899C10.4201 1.92906 10.8119 2.1028 11.1858 2.51969C11.5417 2.91662 11.792 3.44018 11.792 3.97977H12.292H12.792C12.792 3.1364 12.4079 2.38473 11.9303 1.85208C11.4705 1.3394 10.8296 0.929225 10.2268 0.928986L10.2266 1.42899ZM12.292 3.97977L11.792 3.97976C11.792 4.75815 11.483 5.77264 11.273 6.36302L11.7441 6.53055L12.2152 6.69808C12.4266 6.1036 12.792 4.94602 12.792 3.97977L12.292 3.97977ZM11.7441 6.53055V7.03055H15.9961V6.53055V6.03055H11.7441V6.53055ZM15.9961 6.53055V7.03055C16.7196 7.03055 17.2442 7.52097 17.2945 8.02541L17.792 7.97586L18.2895 7.92632C18.1784 6.80998 17.1258 6.03055 15.9961 6.03055V6.53055ZM17.792 7.97586L17.2944 8.02485C17.3239 8.32467 17.2179 8.6172 16.9957 8.84244L17.3516 9.19363L17.7075 9.54483C18.1283 9.11837 18.3496 8.53635 18.2896 7.92687L17.792 7.97586ZM17.3516 9.19363L17.0113 9.56001C17.1994 9.73473 17.2998 9.9619 17.2998 10.1975H17.7998H18.2998C18.2998 9.6668 18.0708 9.17927 17.6918 8.82726L17.3516 9.19363ZM17.7998 10.1975L17.2998 10.1974C17.2997 10.5345 17.0909 10.8554 16.7386 11.0199L16.9502 11.4729L17.1618 11.926C17.8254 11.6161 18.2996 10.9659 18.2998 10.1977L17.7998 10.1975ZM16.9502 11.4729L16.5102 11.7105C16.5765 11.8333 16.6113 11.9686 16.6113 12.1106H17.1113H17.6113C17.6113 11.8012 17.5345 11.5028 17.3902 11.2354L16.9502 11.4729ZM17.1113 12.1106L16.6113 12.1105C16.6112 12.4475 16.4017 12.7688 16.0497 12.9327L16.2607 13.386L16.4718 13.8393C17.1358 13.5301 17.6111 12.8792 17.6113 12.1108L17.1113 12.1106ZM16.2607 13.386L15.8208 13.6235C15.9194 13.8063 15.9491 14.0159 15.8983 14.2293L16.3848 14.345L16.8712 14.4607C16.9788 14.0084 16.916 13.5473 16.7007 13.1485L16.2607 13.386ZM16.3848 14.345L15.8985 14.2287C15.8072 14.6102 15.3854 14.9581 14.8251 14.9583L14.8252 15.4583L14.8253 15.9583C15.7639 15.9581 16.6537 15.3699 16.871 14.4613L16.3848 14.345ZM14.8252 15.4583V14.9583H8.50488V15.4583V15.9583H14.8252V15.4583ZM8.50488 15.4583L8.50491 14.9583C8.09432 14.9583 7.39771 14.8282 6.89768 14.5899L6.68262 15.0413L6.46755 15.4927C7.11313 15.8003 7.9584 15.9583 8.50486 15.9583L8.50488 15.4583ZM6.68262 15.0413L6.21682 14.8596C6.05621 15.2712 5.6123 15.596 5.0625 15.596L5.0625 16.096L5.0625 16.596C6.00121 16.596 6.82983 16.0396 7.14842 15.223L6.68262 15.0413ZM5.0625 16.096V15.596H2.99707V16.096V16.596H5.0625V16.096ZM2.99707 16.096V15.596C2.28704 15.596 1.77539 15.0691 1.77539 14.5013H1.27539H0.775391C0.775391 15.6921 1.80826 16.596 2.99707 16.596V16.096ZM1.27539 14.5013H1.77539V9.39969H1.27539H0.775391V14.5013H1.27539ZM1.27539 9.39969L1.77539 9.39981C1.77553 8.83232 2.28688 8.30596 2.99709 8.30594L2.99707 7.80594L2.99705 7.30594C1.80868 7.30598 0.775679 8.20869 0.775391 9.39957L1.27539 9.39969ZM2.99707 7.80594V8.30594H6.43945V7.80594V7.30594H2.99707V7.80594ZM6.43945 7.80594V8.30594C6.4087 8.30594 6.37375 8.29422 6.34382 8.2666C6.31323 8.23836 6.28426 8.18861 6.28418 8.12491L6.78418 8.1243L7.28418 8.12368C7.28358 7.63555 6.86739 7.30594 6.43945 7.30594V7.80594ZM6.78418 8.1243H6.28418V8.24637H6.78418H7.28418V8.1243H6.78418ZM6.78418 8.24637L7.00125 8.69679L7.08231 8.65773L6.86523 8.20731L6.64816 7.75688L6.56711 7.79595L6.78418 8.24637ZM6.86523 8.20731L7.31267 8.43047L9.29704 4.45196L8.84961 4.22879L8.40218 4.00562L6.4178 7.98414L6.86523 8.20731ZM8.84961 4.22879H9.34961V2.06668H8.84961H8.34961V4.22879H8.84961ZM8.84961 2.06668H9.34961C9.34961 2.13595 9.31538 2.19036 9.27616 2.21941L8.97852 1.81766L8.68087 1.4159C8.47808 1.56614 8.34961 1.8038 8.34961 2.06668H8.84961ZM8.97852 1.81766L9.26998 2.22392C9.27009 2.22384 9.67426 1.92899 10.2266 1.92899V1.42899V0.928986C9.783 0.928986 9.40779 1.04448 9.14388 1.15874C9.01105 1.21625 8.90336 1.27476 8.82552 1.32128C8.7865 1.3446 8.75473 1.36506 8.73081 1.38107C8.71884 1.38908 8.70889 1.39595 8.70105 1.40144C8.69713 1.40419 8.69383 1.40654 8.69119 1.40842C8.68946 1.40966 8.68572 1.41235 8.68705 1.41139L8.97852 1.81766ZM2.99707 8.44363V7.94363C2.18887 7.94363 1.46421 8.56049 1.46387 9.39949L1.96387 9.39969L2.46387 9.39989C2.46395 9.18446 2.66674 8.94363 2.99707 8.94363V8.44363ZM1.96387 9.39969H1.46387V14.5013H1.96387H2.46387V9.39969H1.96387ZM1.96387 14.5013H1.46387C1.46387 15.3401 2.18826 15.9583 2.99707 15.9583V15.4583V14.9583C2.66708 14.9583 2.46387 14.7171 2.46387 14.5013H1.96387ZM2.99707 15.4583V15.9583H5.0625V15.4583V14.9583H2.99707V15.4583ZM5.0625 15.4583L5.06251 15.9583C5.86903 15.9583 6.58957 15.3444 6.59472 14.5102L6.09473 14.5071L5.59474 14.504C5.59341 14.7194 5.39076 14.9583 5.06249 14.9583L5.0625 15.4583ZM6.09473 14.5071H6.59473V8.76297H6.09473H5.59473V14.5071H6.09473ZM6.09473 8.76297L6.59472 8.7645L6.5957 8.44516L6.0957 8.44363L5.59571 8.4421L5.59473 8.76144L6.09473 8.76297ZM6.0957 8.44363V7.94363H2.99707V8.44363V8.94363H6.0957V8.44363ZM10.2266 2.06668V1.56668C9.82209 1.56668 9.49306 1.70091 9.31032 1.79442L9.53809 2.23953L9.76585 2.68464C9.86965 2.63153 10.038 2.56668 10.2266 2.56668V2.06668ZM9.53809 2.23953H9.03809V4.29813H9.53809H10.0381V2.23953H9.53809ZM9.53809 4.29813H9.03809C9.03809 4.26187 9.04666 4.23368 9.057 4.21261L9.50586 4.43289L9.95472 4.65318C10.0064 4.54793 10.0381 4.42621 10.0381 4.29813H9.53809ZM9.50586 4.43289L9.05835 4.20988L6.99292 8.35441L7.44043 8.57742L7.88794 8.80044L9.95337 4.65591L9.50586 4.43289ZM7.44043 8.57742L6.99383 8.3526C7.01256 8.31538 7.04172 8.28901 7.0738 8.2743L7.28223 8.72879L7.49065 9.18328C7.6618 9.10479 7.8022 8.97077 7.88703 8.80225L7.44043 8.57742ZM7.28223 8.72879L7.07298 8.27468L6.57493 8.50417L6.78418 8.95828L6.99343 9.41239L7.49147 9.1829L7.28223 8.72879ZM6.78418 8.95828H6.28418V14.3528H6.78418H7.28418V8.95828H6.78418ZM6.78418 14.3528L6.50275 14.7661C6.76557 14.9451 7.13188 15.0796 7.4713 15.1692C7.81711 15.2605 8.19472 15.3206 8.50485 15.3206L8.50488 14.8206L8.50491 14.3206C8.30541 14.3206 8.01663 14.2789 7.72648 14.2023C7.42994 14.124 7.19071 14.0247 7.06561 13.9395L6.78418 14.3528ZM8.50488 14.8206V15.3206H14.8252V14.8206V14.3206H8.50488V14.8206ZM14.8252 14.8206L14.8254 15.3206C15.4301 15.3204 16.0477 14.9541 16.1983 14.3234L15.7119 14.2073L15.2256 14.0912C15.2064 14.1715 15.0789 14.3205 14.825 14.3206L14.8252 14.8206ZM15.7119 14.2073L16.1983 14.3233C16.3108 13.8518 16.1541 13.3862 15.7917 13.0699L15.4629 13.4466L15.1341 13.8232C15.2246 13.9022 15.2494 13.9915 15.2256 14.0913L15.7119 14.2073ZM15.4629 13.4466L15.792 13.0701C15.8427 13.1144 15.8726 13.1981 15.8433 13.2808L15.3721 13.1136L14.9009 12.9463C14.7878 13.2648 14.8877 13.6079 15.1338 13.823L15.4629 13.4466ZM15.3721 13.1136L15.8423 13.2836C15.8142 13.3613 15.7536 13.3895 15.7151 13.3937L15.6602 12.8968L15.6053 12.3998C15.301 12.4334 15.0153 12.6299 14.9019 12.9435L15.3721 13.1136ZM15.6602 12.8968L15.7136 13.3939C16.3665 13.3238 16.9225 12.8022 16.9229 12.1109L16.4229 12.1106L15.9229 12.1104C15.9228 12.2233 15.8221 12.3765 15.6068 12.3996L15.6602 12.8968ZM16.4229 12.1106H16.9229C16.9229 11.7361 16.7545 11.3967 16.4789 11.1565L16.1504 11.5335L15.8219 11.9104C15.8961 11.9751 15.9229 12.0464 15.9229 12.1106H16.4229ZM16.1504 11.5335L16.4796 11.1571C16.5302 11.2014 16.5601 11.2849 16.5308 11.3676L16.0596 11.2005L15.5883 11.0333C15.4754 11.3518 15.5753 11.6948 15.8212 11.9098L16.1504 11.5335ZM16.0596 11.2005L16.5298 11.3705C16.5017 11.4482 16.4411 11.4764 16.4026 11.4806L16.3477 10.9837L16.2928 10.4867C15.9885 10.5203 15.7028 10.7168 15.5894 11.0304L16.0596 11.2005ZM16.3477 10.9837L16.4008 11.4808C17.0545 11.4109 17.611 10.8895 17.6113 10.1977L17.1113 10.1975L16.6113 10.1973C16.6113 10.31 16.5109 10.4634 16.2945 10.4865L16.3477 10.9837ZM17.1113 10.1975H17.6113C17.6113 9.68838 17.3018 9.25157 16.8526 9.04009L16.6396 9.49246L16.4267 9.94484C16.5599 10.0076 16.6113 10.1124 16.6113 10.1975H17.1113ZM16.6396 9.49246L16.8562 9.04181C16.8977 9.06174 16.9491 9.115 16.9527 9.2L16.4531 9.22098L15.9536 9.24196C15.9668 9.5577 16.1614 9.81734 16.4231 9.94312L16.6396 9.49246ZM16.4531 9.22098L16.9527 9.20016C16.9562 9.28356 16.9104 9.34469 16.8635 9.37138L16.6162 8.9368L16.369 8.50221C16.1113 8.64878 15.9405 8.92758 15.9536 9.24179L16.4531 9.22098ZM16.6162 8.9368L16.8644 9.37085C17.3578 9.08872 17.6619 8.56192 17.6039 7.9845L17.1064 8.03445L16.6089 8.08441C16.624 8.23385 16.5505 8.39841 16.368 8.50274L16.6162 8.9368ZM17.1064 8.03445L17.604 7.98491C17.5239 7.18054 16.7586 6.66824 15.9961 6.66824V7.16824V7.66824C16.3818 7.66824 16.5923 7.91684 16.6089 8.084L17.1064 8.03445ZM15.9961 7.16824V6.66824H11.2588V7.16824V7.66824H15.9961V7.16824ZM11.2588 7.16824L11.2591 6.66824C11.2959 6.66826 11.3409 6.68452 11.375 6.72982L10.9756 7.03055L10.5761 7.33127C10.7396 7.54841 10.9963 7.6681 11.2585 7.66824L11.2588 7.16824ZM10.9756 7.03055L11.3778 6.73354C11.4157 6.78488 11.4276 6.85825 11.4003 6.92498L10.9375 6.73563L10.4747 6.54627C10.3676 6.80813 10.4074 7.10278 10.5734 7.32755L10.9756 7.03055ZM10.9375 6.73563L11.4025 6.91937C11.4018 6.92126 11.4156 6.88696 11.435 6.83694C11.455 6.78556 11.4826 6.71307 11.5153 6.62357C11.5806 6.44486 11.6668 6.19694 11.7527 5.91295C11.9208 5.35777 12.1035 4.61648 12.1035 3.97977L11.6035 3.97977L11.1035 3.97976C11.1035 4.46225 10.9581 5.08646 10.7956 5.62321C10.6367 6.14808 10.4768 6.54098 10.4725 6.55188L10.9375 6.73563ZM11.6035 3.97977H12.1035C12.1035 3.30068 11.7824 2.71154 11.4368 2.30704C11.2614 2.10174 11.0671 1.92869 10.8782 1.80286C10.7109 1.69139 10.4743 1.56701 10.2272 1.56668L10.2266 2.06668L10.2259 2.56668C10.1676 2.5666 10.1975 2.55095 10.3238 2.63507C10.4285 2.70483 10.5548 2.81423 10.6765 2.95661C10.925 3.24747 11.1035 3.61463 11.1035 3.97977H11.6035Z" fill="#15CF74" mask="url(#path-1-outside-1_567_2040)"/>
</svg>
