<svg width="32" height="43" viewBox="0 0 32 43" fill="none" xmlns="http://www.w3.org/2000/svg">
<path d="M14.175 42.14C2.21885 24.4419 0 22.627 0 16.125C0 7.21862 7.07257 0 15.7987 0C24.5249 0 31.5975 7.21862 31.5975 16.125C31.5975 22.627 29.3787 24.4383 17.4225 42.1328C17.0609 42.6596 16.4693 43 15.7987 43C15.1282 43 14.5366 42.6596 14.1803 42.14L14.1767 42.1328L14.175 42.14ZM15.7987 22.8438C19.4325 22.8438 22.3798 19.8355 22.3798 16.125C22.3798 12.4145 19.4325 9.40625 15.797 9.40625C12.1615 9.40625 9.21418 12.4145 9.21418 16.125C9.21418 19.8355 12.1615 22.8438 15.797 22.8438H15.7987Z" fill="#2E3A59"/>
</svg>
