<svg width="14" height="18" viewBox="0 0 14 18" fill="none" xmlns="http://www.w3.org/2000/svg">
<path fill-rule="evenodd" clip-rule="evenodd" d="M7 8.16626C6.31083 8.16626 5.75 7.60542 5.75 6.91625C5.75 6.22709 6.31083 5.66625 7 5.66625C7.68916 5.66625 8.25 6.22709 8.25 6.91625C8.25 7.60542 7.68916 8.16626 7 8.16626ZM7 3.99959C5.39166 3.99959 4.08333 5.30792 4.08333 6.91625C4.08333 8.52459 5.39166 9.83292 7 9.83292C8.60833 9.83292 9.91666 8.52459 9.91666 6.91625C9.91666 5.30792 8.60833 3.99959 7 3.99959ZM6.99999 15.3717C5.60416 14.0517 1.99999 10.3458 1.99999 7.26834C1.99999 4.5475 4.24249 2.33334 6.99999 2.33334C9.75749 2.33334 12 4.5475 12 7.26834C12 10.3458 8.39583 14.0517 6.99999 15.3717ZM6.99999 0.666672C3.32416 0.666672 0.333328 3.62751 0.333328 7.26834C0.333328 11.8308 6.20749 16.9175 6.45749 17.1317C6.61416 17.2658 6.80666 17.3333 6.99999 17.3333C7.19333 17.3333 7.38583 17.2658 7.54249 17.1317C7.79249 16.9175 13.6667 11.8308 13.6667 7.26834C13.6667 3.62751 10.6758 0.666672 6.99999 0.666672Z" fill="#2E3A59"/>
</svg>
