<svg width="27" height="27" viewBox="0 0 27 27" fill="none" xmlns="http://www.w3.org/2000/svg">
<path d="M5.80235 11.58C6.24552 11.1404 6.9628 11.1405 7.40489 11.58C7.84701 12.0222 7.84701 12.7377 7.40489 13.1787L5.80235 14.7763C3.93834 16.6358 4.0405 19.7246 6.10899 21.4482C7.94049 22.9748 10.6938 22.6851 12.3824 21.0009L13.815 19.5712C14.2583 19.1291 14.9753 19.1291 15.4186 19.5712C15.8606 20.0134 15.8607 20.7278 15.4186 21.1699L13.815 22.7675C10.9552 25.6178 6.16276 25.3951 3.60801 22.0957C1.49541 19.3687 1.92446 15.4494 4.36778 13.0126L5.80235 11.58ZM14.9547 10.455C15.3946 10.0152 16.1056 10.0152 16.5455 10.455C16.9851 10.8948 16.9851 11.605 16.5455 12.0449L12.0455 16.5449C11.8262 16.7641 11.5385 16.8748 11.2506 16.875C10.9626 16.875 10.6741 16.7642 10.4547 16.5449C10.0152 16.1051 10.0152 15.3948 10.4547 14.955L14.9547 10.455ZM12.9684 4.38667C15.4231 1.92667 19.3839 1.48259 22.1197 3.62202C25.3969 6.18477 25.6116 10.9603 22.7643 13.8144L21.1637 15.4179C20.7216 15.861 20.0062 15.861 19.5641 15.4179C19.1219 14.9758 19.1219 14.2565 19.5641 13.8144L21.1637 12.2099C23.0253 10.3458 22.9245 7.24676 20.858 5.51655C19.0276 3.98318 16.2797 4.27602 14.5934 5.96577L13.1617 7.40034C12.7208 7.84329 12.0031 7.8432 11.5621 7.40034C11.12 6.95822 11.1156 6.24351 11.7613 5.59663L12.9684 4.38667Z" fill="#2E3A59"/>
</svg>
