<svg width="20" height="20" viewBox="0 0 20 20" fill="none" xmlns="http://www.w3.org/2000/svg">
    <path
        d="M13.6416 10.6582C13.5399 10.6178 13.4311 10.5977 13.3216 10.5992C13.2121 10.6008 13.1039 10.6239 13.0033 10.6672C12.9027 10.7106 12.8117 10.7733 12.7353 10.8518C12.6589 10.9303 12.5988 11.0231 12.5583 11.1249C12.5178 11.2267 12.4978 11.3354 12.4993 11.445C12.5009 11.5545 12.5239 11.6626 12.5673 11.7632C12.6106 11.8638 12.6733 11.9549 12.7519 12.0313C12.8304 12.1076 12.9232 12.1678 13.025 12.2082C14.2416 12.6916 15 13.4416 15 14.1666C15 15.3499 12.95 16.6666 9.99998 16.6666C7.04998 16.6666 4.99998 15.3499 4.99998 14.1666C4.99998 13.4416 5.75831 12.6916 6.97498 12.2082C7.18052 12.1265 7.34516 11.9664 7.43268 11.7632C7.5202 11.5601 7.52342 11.3305 7.44165 11.1249C7.35987 10.9194 7.19979 10.7547 6.99663 10.6672C6.79347 10.5797 6.56386 10.5765 6.35831 10.6582C4.46665 11.4082 3.33331 12.7166 3.33331 14.1666C3.33331 16.4999 6.25831 18.3332 9.99998 18.3332C13.7416 18.3332 16.6666 16.4999 16.6666 14.1666C16.6666 12.7166 15.5333 11.4082 13.6416 10.6582ZM9.16665 8.21658V14.1666C9.16665 14.3876 9.25444 14.5996 9.41072 14.7558C9.567 14.9121 9.77897 14.9999 9.99998 14.9999C10.221 14.9999 10.433 14.9121 10.5892 14.7558C10.7455 14.5996 10.8333 14.3876 10.8333 14.1666V8.21658C11.6189 8.01375 12.3035 7.53139 12.7588 6.85991C13.2142 6.18843 13.409 5.37393 13.3067 4.56908C13.2045 3.76424 12.8123 3.0243 12.2035 2.48798C11.5948 1.95166 10.8113 1.65576 9.99998 1.65576C9.18867 1.65576 8.40521 1.95166 7.79645 2.48798C7.1877 3.0243 6.79544 3.76424 6.69321 4.56908C6.59099 5.37393 6.7858 6.18843 7.24114 6.85991C7.69649 7.53139 8.3811 8.01375 9.16665 8.21658ZM9.99998 3.33325C10.3296 3.33325 10.6518 3.431 10.9259 3.61413C11.2 3.79727 11.4136 4.05757 11.5398 4.36211C11.6659 4.66665 11.6989 5.00176 11.6346 5.32507C11.5703 5.64837 11.4116 5.94534 11.1785 6.17843C10.9454 6.41151 10.6484 6.57025 10.3251 6.63456C10.0018 6.69887 9.66672 6.66586 9.36217 6.53971C9.05763 6.41357 8.79733 6.19995 8.6142 5.92586C8.43106 5.65178 8.33331 5.32955 8.33331 4.99991C8.33331 4.55789 8.50891 4.13396 8.82147 3.8214C9.13403 3.50884 9.55795 3.33325 9.99998 3.33325Z"
        fill="#FF9914" />
</svg>
