<svg width="20" height="20" viewBox="0 0 20 20" fill="none" xmlns="http://www.w3.org/2000/svg">
    <path
        d="M8.39749 0.124165C11.6263 -0.374808 14.7863 0.644139 17.0713 2.92788C19.3563 5.21288 20.378 8.37568 19.876 11.6027C19.2399 15.6795 15.9556 19.0594 11.8877 19.8224C9.93183 20.1894 7.93799 19.978 6.12307 19.2111C5.96407 19.1451 5.72552 19.0762 5.47952 19.1232L1.19632 19.9806C1.13056 19.9935 1.06576 19.9991 1.001 19.9992C0.738055 19.9992 0.48296 19.8961 0.293972 19.7062C0.0569715 19.4702 -0.0464425 19.1309 0.0195574 18.8029L0.877956 14.5158C0.915956 14.3228 0.886089 14.1071 0.789089 13.8761C0.0221052 12.0632 -0.190206 10.0694 0.177761 8.11147C0.940754 4.04451 4.32054 0.760208 8.39749 0.124165ZM15.6563 4.34194C13.8284 2.51428 11.2958 1.69887 8.70608 2.1017C5.45108 2.6087 2.75258 5.23161 2.14358 8.48061C1.84866 10.0505 2.01692 11.6479 2.63089 13.0978C2.88371 13.6966 2.95588 14.3225 2.83792 14.9074L2.27444 17.7248L5.08694 17.1623C5.27178 17.1253 5.45961 17.1076 5.64944 17.1076C6.06636 17.1076 6.49144 17.1953 6.90237 17.3693C8.35233 17.9833 9.95059 18.1526 11.5196 17.8566C14.7686 17.2476 17.3915 14.5481 17.8985 11.2941C18.3024 8.70516 17.4852 6.17089 15.6563 4.34194ZM6.00003 8.99916C6.55194 8.99916 6.99989 9.44728 7.00003 9.99916C7.00003 10.5512 6.55203 10.9992 6.00003 10.9992C5.44812 10.9991 5.00003 10.5511 5.00003 9.99916C5.00016 9.44735 5.4482 8.99927 6.00003 8.99916ZM10 8.99916C10.5519 8.99916 10.9999 9.44728 11 9.99916C11 10.5512 10.552 10.9992 10 10.9992C9.44812 10.9991 9.00003 10.5511 9.00003 9.99916C9.00016 9.44735 9.4482 8.99927 10 8.99916ZM14 8.99916C14.5519 8.99916 14.9999 9.44728 15 9.99916C15 10.5512 14.552 10.9992 14 10.9992C13.4481 10.9991 13 10.5511 13 9.99916C13.0002 9.44735 13.4482 8.99927 14 8.99916Z"
        fill="#888888" />
</svg>
