<svg width="140" height="140" viewBox="0 0 140 140" fill="none" xmlns="http://www.w3.org/2000/svg">
<g clip-path="url(#clip0_544_6148)">
<path d="M121.176 118.455C117.674 122.03 114.549 124.136 112.148 125.719C88.779 141.212 62.0718 136.739 53.8162 135.221C40.4954 132.755 29.2468 131.025 19.5934 122.356C-2.36117 102.668 -1.29223 61.5947 15.482 36.1439C17.4719 33.1238 34.2298 8.47301 60.9864 5.01211C61.6442 4.93048 62.1376 4.88151 62.5651 4.83253C66.7094 4.39176 92.3641 2.10625 113.283 19.4924C116.276 21.9901 121.094 26.4795 125.567 33.3197C141.914 58.3786 141.963 97.1832 121.176 118.455Z" fill="#F4F7FA"/>
<path d="M34.0488 9.95972V124.447L115.141 119.239C116.983 119.125 118.414 117.852 118.414 116.317V14.1389C118.414 12.5554 116.901 11.2494 114.993 11.2004L34.0488 9.95972Z" fill="url(#paint0_linear_544_6148)"/>
<path opacity="0.67" d="M29.9209 13.3552V121.084L111.391 116.138C113.118 116.04 114.467 114.832 114.467 113.379V17.2406C114.467 15.755 113.036 14.5306 111.26 14.4817L29.9209 13.3552Z" fill="#F4F7FA"/>
<path d="M123.659 39.1489H115.157V17.4692H123.659C124.087 17.4692 124.449 17.8121 124.449 18.2528V38.3653C124.432 38.7897 124.087 39.1489 123.659 39.1489Z" fill="url(#paint1_linear_544_6148)"/>
<path d="M29 13.2083V121.574C29 123.223 30.4472 124.643 32.4042 124.888L97.9061 133.377C99.9617 133.605 101.787 132.267 101.787 130.536V10.8738C101.787 9.25763 100.192 7.96796 98.2679 8.00061L32.8811 9.84533C30.7103 9.91063 29 11.3962 29 13.2083Z" fill="url(#paint2_linear_544_6148)"/>
<path d="M48.2083 53.7434L73.5176 54.6413V101.135L79.5695 101.739V103.584L48.6029 100.433V98.6699L54.145 99.2249V55.735L48.2083 55.5065V53.7434ZM63.6011 47.3766C59.9338 47.2787 57.3519 46.3155 55.8225 44.5034C54.293 42.6913 53.5365 40.4711 53.5365 37.8428C53.5365 35.2145 54.3588 33.0432 56.0198 31.3291C57.6808 29.615 60.2463 28.7498 63.6998 28.7498C67.1862 28.7498 69.8668 29.5497 71.7087 31.1332C73.567 32.7331 74.4879 35.0022 74.4879 37.9571C74.4879 40.9119 73.5999 43.2464 71.8073 44.9605C70.0477 46.6746 67.3013 47.4746 63.6011 47.3766Z" fill="white"/>
<path opacity="0.3" d="M59.4404 99.9759C58.503 87.324 67.8933 84.3039 66.2981 69.5297C64.0122 48.1439 42.8799 41.0099 44.6231 23.4115C45.1658 17.9263 47.7642 13.1921 50.8888 9.33936L32.8811 9.84543C30.7103 9.91073 29 11.3963 29 13.2084V121.574C29 123.223 30.4472 124.643 32.4042 124.888L82.8751 131.418C65.2621 119.288 60.0653 108.514 59.4404 99.9759Z" fill="url(#paint3_linear_544_6148)"/>
</g>
<defs>
<linearGradient id="paint0_linear_544_6148" x1="132.788" y1="11.5979" x2="101.732" y2="40.6299" gradientUnits="userSpaceOnUse">
<stop stop-color="#FF9085"/>
<stop offset="1" stop-color="#FB6FBB"/>
</linearGradient>
<linearGradient id="paint1_linear_544_6148" x1="135.892" y1="13.2665" x2="104.931" y2="42.2093" gradientUnits="userSpaceOnUse">
<stop stop-color="#FF9085"/>
<stop offset="1" stop-color="#FB6FBB"/>
</linearGradient>
<linearGradient id="paint2_linear_544_6148" x1="95.6211" y1="42.1422" x2="-7.09853" y2="144.326" gradientUnits="userSpaceOnUse">
<stop stop-color="#FF9085"/>
<stop offset="1" stop-color="#FB6FBB"/>
</linearGradient>
<linearGradient id="paint3_linear_544_6148" x1="88.1433" y1="40.1236" x2="-10.7504" y2="138.501" gradientUnits="userSpaceOnUse">
<stop stop-color="#FF9085"/>
<stop offset="1" stop-color="#FB6FBB"/>
</linearGradient>
<clipPath id="clip0_544_6148">
<rect width="135" height="133" fill="white" transform="translate(3 4)"/>
</clipPath>
</defs>
</svg>
