<svg width="86" height="20" viewBox="0 0 86 20" fill="none" xmlns="http://www.w3.org/2000/svg">
<g clip-path="url(#clip0_9589_5485)">
<path d="M7.35593 18.0645C11.5645 18.0645 14.4956 14.842 14.4956 10.6452C14.4956 6.44839 11.5645 3.22584 7.35593 3.22584C3.14731 3.22584 0.216309 6.44839 0.216309 10.6452C0.216309 14.842 3.14731 18.0645 7.35593 18.0645Z" fill="#20CC6D"/>
<path d="M28.7749 9.10771C28.7749 5.79274 26.6343 3.22584 23.5187 3.22584C22.0267 3.22584 20.7871 3.76452 19.9095 4.70232V4.24432C19.9095 3.74271 19.6243 3.4839 19.1196 3.4839H17.2327C16.7281 3.4839 16.4429 3.74271 16.4429 4.24432V19.2131C16.4429 19.7147 16.7281 20 17.2327 20H19.1196C19.6243 20 19.9095 19.7147 19.9095 19.2131V13.5131C20.7871 14.4509 22.0267 15.0968 23.5187 15.0968C26.6343 15.0968 28.7749 12.4227 28.7749 9.10771ZM25.3617 9.10771C25.3617 10.7216 24.166 11.9429 22.6411 11.9429C21.1162 11.9429 19.9095 10.7216 19.9095 9.10771C19.9095 7.50474 21.1162 6.27255 22.6411 6.27255C24.166 6.27255 25.3617 7.50474 25.3617 9.10771Z" fill="black"/>
<path d="M29.4238 9.10771C29.4238 12.4227 31.6183 15.0968 34.7446 15.0968C36.2368 15.0968 37.4655 14.4509 38.354 13.5131V13.9711C38.354 14.4727 38.6393 14.8387 39.1439 14.8387H40.9662C41.4708 14.8387 41.7561 14.4727 41.7561 13.9711V4.24432C41.7561 3.74271 41.4708 3.4839 40.9662 3.4839H39.1439C38.6393 3.4839 38.354 3.74271 38.354 4.24432V4.70232C37.4655 3.76452 36.2368 3.22584 34.7446 3.22584C31.6183 3.22584 29.4238 5.79274 29.4238 9.10771ZM32.9016 9.10771C32.9016 7.50474 34.0865 6.27255 35.6114 6.27255C37.1474 6.27255 38.354 7.50474 38.354 9.10771C38.354 10.7216 37.1474 11.9429 35.6114 11.9429C34.0865 11.9429 32.9016 10.7216 32.9016 9.10771Z" fill="black"/>
<path d="M45.1388 20H47.1791C47.6289 20 47.9252 20.0001 48.0787 19.3658L53.3727 4.36426C53.4181 4.2368 53.4392 4.14251 53.4392 4.01651C53.4392 3.66726 53.2111 3.4839 52.7629 3.4839H50.7444C50.2838 3.4839 49.9876 3.67729 49.8558 4.11345L47.9252 10.3072L46.0273 4.11345C45.8956 3.67729 45.5993 3.4839 45.1388 3.4839H43.1202C42.6665 3.4839 42.4053 3.67216 42.4053 4.02893C42.4053 4.14251 42.4293 4.24187 42.4728 4.36426L46.2136 14.8387L44.5244 19.0823C44.3051 19.6384 44.5462 20 45.1388 20Z" fill="black"/>
<path d="M60.823 3.22584C59.5284 3.22584 58.3777 3.7209 57.6098 4.64777V4.24432C57.6098 3.74271 57.3246 3.4839 56.8199 3.4839H54.878C54.3733 3.4839 54.0884 3.74271 54.0884 4.24432V13.9711C54.0884 14.4727 54.3733 14.8387 54.878 14.8387H56.8199C57.3246 14.8387 57.6098 14.4727 57.6098 13.9711V8.64971C57.6098 7.10129 58.6289 6.27255 59.7699 6.27255C60.7902 6.27255 61.6019 7.21032 61.6019 8.22445V13.9711C61.6019 14.4727 61.8871 14.8387 62.3918 14.8387H64.3334C64.838 14.8387 65.1223 14.4727 65.1223 13.9711V7.66832C65.1223 4.99674 63.3134 3.22584 60.823 3.22584Z" fill="black"/>
<path d="M83.4022 10.667V6.49064H85.0804C85.5847 6.49064 85.8917 6.20713 85.8917 5.70552V4.24432C85.8917 3.74271 85.5847 3.4839 85.0804 3.4839H83.4022V0.725629C83.4022 0.283898 83.143 0.00393739 82.7168 4.12122e-05C82.6626 -0.000454723 82.6055 0.00352216 82.5461 0.012141L80.5824 0.28945C80.0998 0.365781 79.8584 0.649297 79.8584 1.12909V3.4839H78.9468C78.4422 3.4839 78.103 3.74271 78.103 4.24432V5.70552C78.103 6.20713 78.4422 6.49064 78.9468 6.49064H79.8584V11.0269C79.8584 13.5567 81.3503 15.0968 83.7748 15.0968C84.3671 15.0968 84.9376 15.0023 85.4202 14.8387C85.8372 14.697 85.8917 14.2982 85.8917 13.8621V12.7389C85.8917 12.2155 85.7165 11.9647 85.1901 11.9865H84.85C83.8076 11.9865 83.4022 11.5721 83.4022 10.667Z" fill="black"/>
<path d="M69.3681 10.0782H77.2171C77.689 10.0782 78.02 9.84923 78.0638 9.38032C78.0859 9.22768 78.1031 9.0641 78.1031 8.92235C78.1031 5.74916 75.5445 3.22584 72.0668 3.22584C68.5233 3.22584 65.771 5.79277 65.771 9.10771C65.771 12.4227 68.4578 15.0968 72.3849 15.0968C74.4034 15.0968 75.9605 14.2874 77.1233 13.2078C77.4962 12.8589 77.4745 12.4663 77.1451 12.0955L76.6735 11.5721C76.3444 11.2014 75.9823 11.1905 75.5656 11.474C74.6877 12.0846 73.6466 12.3791 72.429 12.3791C70.7395 12.3791 69.6206 11.5067 69.3681 10.0782ZM72.023 5.83639C73.3286 5.83639 74.2821 6.62152 74.5563 7.86461H69.4229C69.763 6.59971 70.7395 5.83639 72.023 5.83639Z" fill="black"/>
</g>
<defs>
<clipPath id="clip0_9589_5485">
<rect width="86" height="20" fill="white"/>
</clipPath>
</defs>
</svg>
