<svg width="86" height="28" viewBox="0 0 86 28" fill="none" xmlns="http://www.w3.org/2000/svg">
<path d="M5.42226 0.00206989H75.2855C76.0902 0.00206989 76.8003 0.33525 77.203 0.97678L84.2847 12.5077C84.8291 13.4111 84.7356 14.5037 83.9529 15.4081L73.9827 26.939C73.4382 27.5568 72.7281 27.9375 71.921 27.9375H2.26845C0.871918 27.9375 -0.1474 26.8438 0.017505 25.4645L2.64877 2.47299C2.81573 1.07094 4.02263 0 5.4202 0H5.42123L5.42226 0.00206989Z" fill="#00C0C9"/>
<path d="M41.421 7.79053L37.7952 16.0766L35.9111 7.79053H32.1894L35.505 19.7881L33.5736 23.7159H37.2469L45.0468 7.79053H41.42H41.421ZM6.30859 23.7159H9.64795L10.1963 19.1911C10.7209 19.5977 11.6989 20.053 12.9388 20.053C16.8038 20.053 19.165 16.6281 19.165 12.8938C19.165 9.70888 17.6623 7.48218 14.8476 7.48218C13.5109 7.48218 12.2947 7.91263 11.365 8.68035L11.4835 7.79468H8.24005L6.30859 23.7201V23.717V23.7159ZM10.4828 16.8423L11.2228 10.9516C11.938 10.3773 12.7492 10.1373 13.4644 10.1611C14.895 10.1838 15.6824 11.3345 15.6824 13.1307C15.6824 15.4537 14.4663 17.4414 12.4142 17.4414C11.7701 17.4414 11.0311 17.2262 10.4828 16.8423ZM19.8092 16.5318C19.7844 18.471 21.3603 20.053 23.7679 20.053C25.4623 20.053 26.7012 19.3349 27.4164 18.5444L27.2732 19.7654H30.5167L31.3041 13.2766C31.6864 10.0679 30.6362 7.45733 26.5332 7.45733C24.8635 7.45733 22.8362 7.84123 21.7386 8.55931L21.4036 11.2413C22.2869 10.7612 24.004 10.1776 25.5778 10.1776C27.4618 10.1776 28.1307 11.1213 28.0585 12.1281H26.0549C23.1444 12.1281 19.8288 13.2528 19.8051 16.5339H19.8082L19.8092 16.5318ZM23.1733 16.267C23.1733 14.9736 24.6759 14.4945 26.225 14.4945H27.7988L27.5597 16.4336C26.8918 16.9602 25.6994 17.5107 24.6966 17.5107C23.7906 17.5107 23.1701 17.0078 23.1701 16.2649H23.1712L23.1733 16.267ZM64.1242 14.2792C64.0771 17.2727 66.2475 20.0499 70.6834 20.0499C72.257 20.0499 73.5941 19.7385 74.7853 18.9956L75.0247 16.1697C74.0473 16.7688 72.5673 17.1754 71.2802 17.1754C69.5858 17.1754 68.0593 16.4326 67.6316 14.7087H75.8853C76.0038 14.3973 76.0997 13.6543 76.0997 12.9362C76.0997 9.77614 74.3576 7.47594 70.7793 7.47594C67.201 7.47594 64.1718 9.6075 64.1242 14.2762V14.2783V14.2792ZM67.6543 12.6744C67.989 11.0944 69.1319 10.159 70.5399 10.159C71.9479 10.159 72.7108 10.9495 72.7108 12.2191C72.7108 12.3629 72.7108 12.5306 72.6882 12.6744H67.6554H67.6543ZM47.7657 19.7633L48.8634 10.9992C49.6034 10.4963 50.4372 10.0897 51.1545 10.0897C52.0841 10.0897 52.5377 10.785 52.3954 11.9811L51.441 19.7643H54.8051L55.8553 11.2631L55.878 11.023C56.618 10.5201 57.4766 10.0897 58.1919 10.0897C59.1217 10.0897 59.5749 10.785 59.4325 11.9811L58.4784 19.7643H61.8423L62.8929 11.2631C63.1793 8.89251 61.962 7.45628 59.7922 7.45628C58.2895 7.45628 56.6912 8.31822 55.6183 9.10875C55.1648 8.05438 54.163 7.45628 52.7551 7.45628C51.3472 7.45628 49.9878 8.15162 48.9149 8.86976L49.0581 7.79258H45.9105L44.4078 19.7664H47.7719H47.7677L47.7657 19.7633Z" fill="white"/>
</svg>
