<svg width="20" height="15" viewBox="0 0 20 15" fill="none" xmlns="http://www.w3.org/2000/svg">
<path d="M17 0.5C18.654 0.5 20 1.846 20 3.5V11.5C20 13.154 18.654 14.5 17 14.5H3C1.346 14.5 0 13.154 0 11.5V3.5C0 1.846 1.346 0.5 3 0.5H17ZM2 6.5V11.5C2 12.051 2.448 12.5 3 12.5H17C17.552 12.5 18 12.051 18 11.5V6.5H2ZM9 8.5C9.55 8.5 10 8.95 10 9.5C10 10.05 9.55 10.5 9 10.5H5C4.45 10.5 4 10.05 4 9.5C4 8.95 4.45 8.5 5 8.5H9ZM15 8.5C15.55 8.5 16 8.95 16 9.5C16 10.05 15.55 10.5 15 10.5H13C12.45 10.5 12 10.05 12 9.5C12 8.95 12.45 8.5 13 8.5H15ZM3 2.5C2.448 2.5 2 2.949 2 3.5V4.5H18V3.5C18 2.949 17.552 2.5 17 2.5H3Z" fill="white"/>
</svg>
