<svg width="32" height="32" viewBox="0 0 32 32" fill="none" xmlns="http://www.w3.org/2000/svg">
<circle cx="16" cy="16" r="14.75" fill="#F6F7FB" stroke="#FF9914" stroke-width="2.5"/>
<path fill-rule="evenodd" clip-rule="evenodd" d="M17.8668 12.2667C17.8668 11.2372 17.0296 10.4 16.0001 10.4C14.9707 10.4 14.1335 11.2372 14.1335 12.2667C14.1335 13.2961 14.9707 14.1333 16.0001 14.1333C17.0296 14.1333 17.8668 13.2961 17.8668 12.2667ZM19.7335 12.2667C19.7335 14.3256 18.0591 16 16.0001 16C13.9412 16 12.2668 14.3256 12.2668 12.2667C12.2668 10.2077 13.9412 8.53333 16.0001 8.53333C18.0591 8.53333 19.7335 10.2077 19.7335 12.2667ZM9.4668 23.4667C9.4668 19.864 12.3984 16.9333 16.0001 16.9333C19.6019 16.9333 22.5335 19.864 22.5335 23.4667C22.5335 23.9819 22.1163 24.4 21.6001 24.4C21.084 24.4 20.6668 23.9819 20.6668 23.4667C20.6668 20.8935 18.5733 18.8 16.0001 18.8C13.4269 18.8 11.3335 20.8935 11.3335 23.4667C11.3335 23.9819 10.9163 24.4 10.4001 24.4C9.884 24.4 9.4668 23.9819 9.4668 23.4667Z" fill="#BDC0C6"/>
</svg>
