<svg width="135" height="133" viewBox="0 0 135 133" fill="none" xmlns="http://www.w3.org/2000/svg">
<path d="M117.745 114.386C114.255 117.975 111.142 120.089 108.75 121.678C85.4659 137.228 58.8559 132.738 50.6304 131.214C37.3582 128.74 26.1505 127.003 16.5322 118.303C-5.34241 98.5418 -4.27736 57.3162 12.4358 31.7714C14.4185 28.7401 31.1153 3.99823 57.7745 0.524528C58.4299 0.442602 58.9214 0.393445 59.3475 0.344289C63.4766 -0.0981154 89.038 -2.39207 109.88 15.0583C112.862 17.5653 117.663 22.0713 122.12 28.9368C138.407 54.0883 138.457 93.0363 117.745 114.386Z" fill="#F4F7FA"/>
<path d="M123.661 63.7228C123.661 91.3485 101.279 114.78 72.7024 116.074C43.0282 117.434 18.1223 94.5764 18.1223 64.9844C18.1223 35.3925 43.0282 11.9614 72.7024 12.6004C101.279 13.2067 123.661 36.097 123.661 63.7228Z" fill="url(#paint0_linear_544_6123)"/>
<path d="M126.004 63.7227C126.004 91.3484 103.622 114.78 75.0456 116.074C45.3879 117.434 20.4819 94.5928 20.4819 65.0008C20.4819 35.4088 45.3879 11.9614 75.0456 12.6004C103.622 13.2067 126.004 36.097 126.004 63.7227Z" fill="url(#paint1_linear_544_6123)"/>
<path d="M123.071 63.7555C123.071 89.7919 101.95 111.814 75.0618 112.994C47.1901 114.222 23.8408 92.7249 23.8408 64.9517C23.8408 37.1785 47.1901 15.1402 75.0455 15.6809C101.95 16.2052 123.071 37.7192 123.071 63.7555Z" fill="url(#paint2_linear_544_6123)"/>
<path d="M55.1863 35.9004C56.366 34.9009 57.6605 33.9505 59.0696 33.0493C60.4788 32.1481 61.9863 31.378 63.6084 30.7226C65.2306 30.0672 66.9674 29.5592 68.8518 29.1988C70.7361 28.8383 72.7515 28.658 74.9308 28.6908C77.8802 28.7236 80.551 29.1496 82.9597 29.9689C85.3519 30.7881 87.4001 31.9351 89.1042 33.4262C90.8083 34.9009 92.1191 36.6869 93.0367 38.7678C93.9707 40.8487 94.4295 43.1591 94.4295 45.7316C94.4295 48.2385 94.069 50.4014 93.3317 52.2202C92.5943 54.0553 91.6767 55.6447 90.5625 57.0047C89.4483 58.3647 88.2358 59.5444 86.9413 60.5439C85.6305 61.5434 84.4016 62.4938 83.2218 63.395C82.0421 64.2798 81.0262 65.1646 80.1741 66.0166C79.3221 66.8687 78.7978 67.8354 78.6339 68.9005L77.4705 76.192L68.8518 76.3558L67.9833 68.1959C67.9506 68.0321 67.9342 67.8846 67.9342 67.7699C67.9342 67.6552 67.9342 67.5077 67.9342 67.3439C67.9342 65.8692 68.311 64.5911 69.0648 63.4933C69.8185 62.3955 70.7525 61.3632 71.8831 60.4129C73.0137 59.4461 74.2098 58.5122 75.5043 57.611C76.7987 56.7098 77.9949 55.7266 79.1091 54.6616C80.2233 53.6129 81.1409 52.4168 81.8946 51.0896C82.632 49.7624 83.0088 48.2058 83.0088 46.4198C83.0088 45.2236 82.7794 44.1586 82.3206 43.2082C81.8618 42.2579 81.2392 41.455 80.4363 40.7668C79.6334 40.0786 78.6503 39.5543 77.5197 39.1938C76.3891 38.817 75.1602 38.6367 73.833 38.6203C71.8995 38.6039 70.2445 38.817 68.9009 39.2266C67.5409 39.6362 66.3939 40.1114 65.46 40.6193C64.5096 41.1437 63.7067 41.6025 63.0677 42.0285C62.4123 42.4545 61.8224 42.6511 61.3145 42.6511C60.0692 42.6511 59.168 42.1432 58.6108 41.1273L55.1863 35.9004ZM64.9848 95.2317C64.9848 94.1995 65.1814 93.2 65.5747 92.2496C65.9679 91.2993 66.525 90.48 67.2132 89.7918C67.9178 89.1036 68.7371 88.5465 69.7038 88.1205C70.6542 87.6945 71.6865 87.4651 72.7679 87.4323C73.8166 87.3995 74.8161 87.5798 75.7664 87.9566C76.7168 88.3335 77.5197 88.8414 78.2079 89.4805C78.8797 90.1195 79.4204 90.906 79.83 91.8236C80.2397 92.7412 80.4363 93.7079 80.4363 94.7402C80.4363 95.8052 80.2397 96.7884 79.83 97.7223C79.4204 98.6563 78.8797 99.4592 78.2079 100.147C77.5361 100.836 76.7168 101.393 75.7664 101.802C74.8161 102.212 73.8166 102.441 72.7679 102.49C71.6701 102.523 70.6542 102.376 69.7038 102.032C68.7535 101.688 67.9178 101.18 67.2132 100.541C66.5086 99.9016 65.9679 99.1151 65.5747 98.2139C65.1814 97.2963 64.9848 96.3132 64.9848 95.2317Z" fill="white"/>
<path opacity="0.3" d="M52.0568 41.9139C50.3035 36.1954 50.3854 27.5111 58.9387 14.6814C36.8674 21.0389 20.4819 41.0618 20.4819 65.0009C20.4819 94.5928 45.3879 117.45 75.062 116.09C86.0075 115.582 96.019 111.863 104.195 105.931C103.95 98.0338 102.229 89.3987 97.3954 81.4354C84.1232 59.5118 57.5623 59.8559 52.0568 41.9139Z" fill="url(#paint3_linear_544_6123)"/>
<path d="M128.151 3.03127L90.9559 1.32719C88.2359 1.26165 86.0239 3.34259 86.0239 5.98063V20.5472L80.0759 26.2166L86.0239 26.2985L90.8248 26.364L129.675 26.8556C132.247 26.8884 134.328 24.8402 134.328 22.2677V7.22592C134.345 4.65342 130.74 3.09681 128.151 3.03127Z" fill="url(#paint4_linear_544_6123)"/>
<path d="M130.33 2.44139L91.6114 1.32719C88.8914 1.26165 86.6794 3.34259 86.6794 5.98063V20.5472L80.7314 26.2166L86.6794 26.2985L91.4803 26.364L130.33 26.8556C132.903 26.8884 134.984 24.8402 134.984 22.2677V7.22592C135 4.65342 132.903 2.50694 130.33 2.44139Z" fill="url(#paint5_linear_544_6123)"/>
<g opacity="0.54">
<path opacity="0.54" d="M91.4966 10.2409L129.658 11.1257V9.32334L91.4966 8.40576V10.2409Z" fill="white"/>
<path opacity="0.54" d="M91.4966 13.8457L129.658 14.6322V12.8298L91.4966 11.9941V13.8457Z" fill="white"/>
<path opacity="0.54" d="M106.506 17.7292L129.658 18.1388V16.3364L106.506 15.894V17.7292Z" fill="white"/>
</g>
<defs>
<linearGradient id="paint0_linear_544_6123" x1="33.7376" y1="135.317" x2="113.324" y2="-16.824" gradientUnits="userSpaceOnUse">
<stop stop-color="#444B8C"/>
<stop offset="0.9964" stop-color="#26264F"/>
</linearGradient>
<linearGradient id="paint1_linear_544_6123" x1="36.0867" y1="135.317" x2="115.673" y2="-16.824" gradientUnits="userSpaceOnUse">
<stop stop-color="#FFC444"/>
<stop offset="0.9964" stop-color="#F36F56"/>
</linearGradient>
<linearGradient id="paint2_linear_544_6123" x1="101.429" y1="33.3615" x2="-37.0966" y2="186.603" gradientUnits="userSpaceOnUse">
<stop stop-color="#FFC444"/>
<stop offset="0.9964" stop-color="#F36F56"/>
</linearGradient>
<linearGradient id="paint3_linear_544_6123" x1="20.4793" y1="65.4125" x2="104.193" y2="65.4125" gradientUnits="userSpaceOnUse">
<stop stop-color="#FFC444"/>
<stop offset="0.9964" stop-color="#F36F56"/>
</linearGradient>
<linearGradient id="paint4_linear_544_6123" x1="80.0749" y1="14.0811" x2="134.337" y2="14.0811" gradientUnits="userSpaceOnUse">
<stop stop-color="#444B8C"/>
<stop offset="0.9964" stop-color="#26264F"/>
</linearGradient>
<linearGradient id="paint5_linear_544_6123" x1="119.618" y1="-10.1725" x2="89.4761" y2="73.1757" gradientUnits="userSpaceOnUse">
<stop stop-color="#FF9085"/>
<stop offset="1" stop-color="#FB6FBB"/>
</linearGradient>
</defs>
</svg>
