<svg width="24" height="22" viewBox="0 0 24 22" fill="none" xmlns="http://www.w3.org/2000/svg">
<path fill-rule="evenodd" clip-rule="evenodd" d="M10.0677 9.37501C14.5215 9.37501 18.539 11.4175 21.0802 14.6988C19.9115 9.86251 15.4177 6.25001 10.0677 6.25001C9.37649 6.25001 8.81774 5.69126 8.81774 5.00001V2.59626L2.78774 7.81376L8.81774 13.0788V10.625C8.81774 9.93376 9.37649 9.37501 10.0677 9.37501ZM22.2765 21.25C21.7002 21.25 21.1977 20.8563 21.0615 20.2963C19.949 15.735 16.0352 12.44 11.3177 11.9413V13.3425C11.3177 14.225 10.794 15.0113 9.95149 15.3925C9.03774 15.8088 7.97149 15.6588 7.23024 15.0125L0.897744 9.48251C0.406494 9.05251 0.125244 8.44376 0.125244 7.81251C0.125244 7.18126 0.406494 6.57251 0.897744 6.14251L7.23024 0.612509C7.97149 -0.0337412 9.03774 -0.183741 9.95149 0.232509C10.794 0.613759 11.3177 1.40001 11.3177 2.28251V3.80501C18.3477 4.42126 23.8752 10.1875 23.8752 17.1875C23.8752 18.2 23.7452 19.245 23.4902 20.295C23.3552 20.8563 22.854 21.25 22.2765 21.25Z" fill="#2E3A59"/>
</svg>
