<svg width="17" height="18" viewBox="0 0 17 18" fill="none" xmlns="http://www.w3.org/2000/svg">
<path fill-rule="evenodd" clip-rule="evenodd" d="M2.61871 10.0099C2.99129 9.89165 3.38937 10.0978 3.50837 10.4704C4.17208 12.5571 6.12567 13.9582 8.36967 13.9582C11.1761 13.9582 13.4583 11.734 13.4583 8.99986C13.4583 6.2664 11.1761 4.04153 8.36967 4.04153C7.14567 4.04153 5.99108 4.46795 5.07946 5.22445L6.61371 4.97157C7.00329 4.90074 7.36454 5.1692 7.42829 5.55453C7.49204 5.94057 7.23067 6.30536 6.84462 6.3684L3.83704 6.86565C3.79808 6.87203 3.75842 6.87486 3.72087 6.87486C3.63658 6.87486 3.55442 6.85999 3.47792 6.83165C3.45171 6.82174 3.43046 6.80332 3.40496 6.78986C3.35821 6.76578 3.30933 6.74453 3.26896 6.71053C3.24346 6.68999 3.22717 6.66024 3.20521 6.63615C3.17192 6.60145 3.1365 6.56815 3.11171 6.52565C3.094 6.4952 3.08692 6.45907 3.07346 6.42507C3.05646 6.38328 3.03379 6.34432 3.02529 6.29828L2.49121 3.46495C2.41896 3.08032 2.67183 2.70915 3.05646 2.63761C3.43967 2.5682 3.81154 2.81824 3.88379 3.20215L4.07646 4.22286C5.25512 3.20215 6.766 2.62486 8.36967 2.62486C11.9567 2.62486 14.875 5.4844 14.875 8.99986C14.875 12.5153 11.9567 15.3749 8.36967 15.3749C5.50658 15.3749 3.01042 13.5764 2.15829 10.8996C2.04 10.527 2.24612 10.1289 2.61871 10.0099Z" fill="#FF3A44"/>
</svg>
