<svg width="21" height="22" viewBox="0 0 21 22" fill="none" xmlns="http://www.w3.org/2000/svg">
<path fill-rule="evenodd" clip-rule="evenodd" d="M7.57903 21.2125C5.79193 21.2125 4.09332 20.4938 2.79616 19.189C0.219115 16.5958 0.113357 12.4842 2.55983 10.0226L10.5306 2.00439C11.3604 1.16912 12.4806 0.708313 13.6839 0.708313C14.9713 0.708313 16.1951 1.22523 17.1286 2.16411C18.9858 4.03215 19.057 7.00093 17.2861 8.78156L9.3057 16.7987C8.78878 17.3199 8.09271 17.6059 7.34593 17.6059C6.55706 17.6059 5.8092 17.2908 5.24156 16.7199C4.10519 15.5749 4.06958 13.75 5.16278 12.6493L12.5281 5.2516C12.949 4.82857 13.631 4.82641 14.054 5.24729C14.476 5.66816 14.4781 6.35128 14.0573 6.77323L6.69304 14.172C6.43404 14.4332 6.46965 14.894 6.77289 15.1983C6.93045 15.3569 7.13981 15.4476 7.34593 15.4476C7.46464 15.4476 7.63515 15.4184 7.77544 15.2771L15.7559 7.25993C16.6915 6.31782 16.6214 4.71526 15.5983 3.68573C14.6195 2.70153 12.9587 2.62383 12.0608 3.52602L4.09009 11.5442C2.47781 13.1662 2.58357 15.9138 4.3275 17.6674C5.21566 18.562 6.37036 19.0541 7.57903 19.0541C8.65928 19.0541 9.66074 18.6462 10.3967 17.9059L18.3685 9.8877C18.7883 9.46575 19.4714 9.46251 19.8945 9.88339C20.3164 10.3043 20.3186 10.9863 19.8988 11.4093L11.927 19.4275C10.7831 20.5779 9.23879 21.2125 7.57903 21.2125Z" fill="#BDC0C6"/>
</svg>
