<svg width="38" height="24" viewBox="0 0 38 24" fill="none" xmlns="http://www.w3.org/2000/svg">
    <path fill-rule="evenodd" clip-rule="evenodd"
        d="M32 10C32 9.449 31.552 9 31 9C30.448 9 30 9.449 30 10C30 10.551 30.448 11 31 11C31.552 11 32 10.551 32 10ZM34 10C34 11.654 32.654 13 31 13C29.346 13 28 11.654 28 10C28 8.346 29.346 7 31 7C32.654 7 34 8.346 34 10ZM25 7C25 5.897 24.103 5 23 5C21.897 5 21 5.897 21 7C21 8.103 21.897 9 23 9C24.103 9 25 8.103 25 7ZM27 7C27 9.206 25.206 11 23 11C20.794 11 19 9.206 19 7C19 4.794 20.794 3 23 3C25.206 3 27 4.794 27 7ZM27.94 15.046C28.809 14.374 29.879 14 31 14C33.757 14 36 16.243 36 19C36 19.552 35.553 20 35 20C34.447 20 34 19.552 34 19C34 17.346 32.654 16 31 16C30.317 16 29.668 16.234 29.144 16.649C29.688 17.645 30 18.787 30 20C30 20.552 29.553 21 29 21C28.447 21 28 20.552 28 20C28 17.243 25.757 15 23 15C20.243 15 18 17.243 18 20C18 20.552 17.553 21 17 21C16.447 21 16 20.552 16 20C16 16.14 19.141 13 23 13C24.927 13 26.673 13.783 27.94 15.046Z"
        fill="#2E3A59" />
    <path fill-rule="evenodd" clip-rule="evenodd"
        d="M11.0833 11.4168H7.58331V7.91683C7.58331 7.59425 7.32198 7.3335 6.99998 7.3335C6.67798 7.3335 6.41665 7.59425 6.41665 7.91683V11.4168H2.91665C2.59465 11.4168 2.33331 11.6776 2.33331 12.0002C2.33331 12.3227 2.59465 12.5835 2.91665 12.5835H6.41665V16.0835C6.41665 16.4061 6.67798 16.6668 6.99998 16.6668C7.32198 16.6668 7.58331 16.4061 7.58331 16.0835V12.5835H11.0833C11.4053 12.5835 11.6666 12.3227 11.6666 12.0002C11.6666 11.6776 11.4053 11.4168 11.0833 11.4168Z"
        fill="#2E3A59" />
</svg>
