<svg width="24" height="24" viewBox="0 0 24 24" fill="none" xmlns="http://www.w3.org/2000/svg">
<g clip-path="url(#clip0_8752_1565)">
<path d="M12 24C18.6274 24 24 18.6274 24 12C24 5.37258 18.6274 0 12 0C5.37258 0 0 5.37258 0 12C0 18.6274 5.37258 24 12 24Z" fill="#039BE5"/>
<path d="M5.49102 11.7403L17.061 7.27927C17.598 7.08527 18.067 7.41027 17.893 8.22227L17.894 8.22127L15.924 17.5023C15.778 18.1603 15.387 18.3203 14.84 18.0103L11.84 15.7993L10.393 17.1933C10.233 17.3533 10.098 17.4883 9.78802 17.4883L10.001 14.4353L15.561 9.41227C15.803 9.19927 15.507 9.07927 15.188 9.29127L8.31702 13.6173L5.35502 12.6933C4.71202 12.4893 4.69802 12.0503 5.49102 11.7403Z" fill="white"/>
</g>
<defs>
<clipPath id="clip0_8752_1565">
<rect width="24" height="24" fill="white"/>
</clipPath>
</defs>
</svg>
