<svg width="38" height="24" viewBox="0 0 38 24" fill="none" xmlns="http://www.w3.org/2000/svg">
    <path fill-rule="evenodd" clip-rule="evenodd"
        d="M11.0833 11.4168H7.58331V7.91683C7.58331 7.59425 7.32198 7.3335 6.99998 7.3335C6.67798 7.3335 6.41665 7.59425 6.41665 7.91683V11.4168H2.91665C2.59465 11.4168 2.33331 11.6776 2.33331 12.0002C2.33331 12.3227 2.59465 12.5835 2.91665 12.5835H6.41665V16.0835C6.41665 16.4061 6.67798 16.6668 6.99998 16.6668C7.32198 16.6668 7.58331 16.4061 7.58331 16.0835V12.5835H11.0833C11.4053 12.5835 11.6666 12.3227 11.6666 12.0002C11.6666 11.6776 11.4053 11.4168 11.0833 11.4168Z"
        fill="#2E3A59" />
    <path fill-rule="evenodd" clip-rule="evenodd"
        d="M26 14H23C22.448 14 22 13.552 22 13C22 12.448 22.448 12 23 12H26C26.552 12 27 12.448 27 13C27 13.552 26.552 14 26 14ZM22 17C22 16.448 22.448 16 23 16H29C29.553 16 30 16.448 30 17C30 17.552 29.553 18 29 18H23C22.448 18 22 17.552 22 17ZM31.4443 20H20.5553C20.2493 20 20.0003 19.776 20.0003 19.5V4.5C20.0003 4.224 20.2493 4 20.5553 4H26.0003V7.15C26.0003 8.722 27.2173 10 28.7143 10H32.0003V19.5C32.0003 19.776 31.7513 20 31.4443 20ZM28.0003 4.978L30.7423 8H28.7143C28.3203 8 28.0003 7.619 28.0003 7.15V4.978ZM33.7403 8.328L28.2963 2.328C28.1063 2.119 27.8383 2 27.5553 2H20.5553C19.1463 2 18.0003 3.122 18.0003 4.5V19.5C18.0003 20.878 19.1463 22 20.5553 22H31.4443C32.8533 22 34.0003 20.878 34.0003 19.5V9C34.0003 8.751 33.9073 8.512 33.7403 8.328Z"
        fill="#2E3A59" />
</svg>
