<svg width="12" height="12" viewBox="0 0 12 12" fill="none" xmlns="http://www.w3.org/2000/svg">
<path fill-rule="evenodd" clip-rule="evenodd" d="M11.9932 1.04879C11.9932 0.499786 11.5492 0.0527864 10.9992 0.0497864L3.0062 -0.000213623H3.0002C2.4502 -0.000213623 2.0042 0.443786 2.0002 0.993786C1.9962 1.54579 2.4412 1.99679 2.9942 1.99979L8.5522 2.03479L0.293204 10.2928C-0.0977958 10.6838 -0.0977958 11.3168 0.293204 11.7068C0.488204 11.9028 0.744204 11.9998 1.0002 11.9998C1.2562 11.9998 1.5122 11.9028 1.7072 11.7068L9.9952 3.41879L10.0002 9.00079C10.0002 9.55279 10.4482 9.99979 11.0002 9.99979H11.0012C11.5532 9.99979 12.0002 9.55079 12.0002 8.99879L11.9932 1.04879Z" fill="#B7BFCA"/>
</svg>
