<svg width="38" height="24" viewBox="0 0 38 24" fill="none" xmlns="http://www.w3.org/2000/svg">
    <path fill-rule="evenodd" clip-rule="evenodd"
        d="M34 18C34 18.551 33.551 19 33 19H31V9H33C33.551 9 34 9.449 34 10V18ZM18 18V10C18 9.449 18.449 9 19 9H21V19H19C18.449 19 18 18.551 18 18ZM24 5.49998C24 5.22398 24.224 4.99998 24.5 4.99998H27.5C27.776 4.99998 28 5.22398 28 5.49998V6.99998H24V5.49998ZM23 19H29V9H23V19ZM33 7H30V5.5C30 4.122 28.878 3 27.5 3H24.5C23.122 3 22 4.122 22 5.5V7H19C17.346 7 16 8.346 16 10V18C16 19.654 17.346 21 19 21H33C34.654 21 36 19.654 36 18V10C36 8.346 34.654 7 33 7Z"
        fill="#2E3A59" />
    <path fill-rule="evenodd" clip-rule="evenodd"
        d="M11.0833 11.4168H7.58331V7.91683C7.58331 7.59425 7.32198 7.3335 6.99998 7.3335C6.67798 7.3335 6.41665 7.59425 6.41665 7.91683V11.4168H2.91665C2.59465 11.4168 2.33331 11.6776 2.33331 12.0002C2.33331 12.3227 2.59465 12.5835 2.91665 12.5835H6.41665V16.0835C6.41665 16.4061 6.67798 16.6668 6.99998 16.6668C7.32198 16.6668 7.58331 16.4061 7.58331 16.0835V12.5835H11.0833C11.4053 12.5835 11.6666 12.3227 11.6666 12.0002C11.6666 11.6776 11.4053 11.4168 11.0833 11.4168Z"
        fill="#2E3A59" />
</svg>
