<svg width="40" height="40" viewBox="0 0 40 40" fill="none" xmlns="http://www.w3.org/2000/svg">
<path d="M5.48751 5.48878C6.13913 4.83741 7.1943 4.83739 7.8459 5.48878L10.8859 8.52882L13.4709 11.1128L17.5744 15.2173L34.5129 32.1558C35.1626 32.8057 35.1625 33.8606 34.5129 34.5122C34.1862 34.8372 33.7589 35.0005 33.3322 35.0005C32.9073 35.0004 32.4811 34.8371 32.1545 34.5122L25.7356 28.0923L16.5158 18.8726L13.9387 16.2964L10.216 12.5728L7.78047 10.1392L5.48751 7.8462C4.83751 7.19453 4.83751 6.13878 5.48751 5.48878ZM20.0002 30.0005C20.9217 30.0006 21.6661 30.7467 21.6662 31.6665C21.6662 32.5864 20.9218 33.3334 20.0002 33.3335C19.0785 33.3335 18.3332 32.5865 18.3332 31.6665C18.3333 30.7466 19.0786 30.0005 20.0002 30.0005ZM22.9357 27.6509C21.0325 26.2926 18.2359 26.4207 16.5275 28.0689C15.8675 28.7105 14.8101 28.6921 14.1701 28.0288C13.5321 27.3672 13.5506 26.3123 14.2121 25.6724C15.4654 24.4607 17.0438 23.712 18.7404 23.4536L22.9357 27.6509ZM14.843 19.5571C13.648 20.1471 12.5443 20.926 11.6076 21.896C10.9676 22.5591 9.9111 22.5769 9.25118 21.937C8.58955 21.2987 8.57093 20.2422 9.20919 19.5806C10.1509 18.6039 11.2293 17.7801 12.3859 17.1001L14.843 19.5571ZM20.0002 14.9995C24.0469 14.9995 27.9802 16.6696 30.7902 19.5796C31.4286 20.2429 31.4116 21.2977 30.7482 21.936C30.4266 22.2493 30.0086 22.4048 29.592 22.4048C29.1553 22.4048 28.7185 22.2343 28.3918 21.896C27.0719 20.5278 25.4303 19.5195 23.6438 18.9312L19.7287 15.0142C19.8187 15.0125 19.9086 14.9995 20.0002 14.9995ZM8.75997 13.4732C7.82674 14.1098 6.93323 14.8145 6.10665 15.6128C5.44835 16.2527 4.3902 16.235 3.7502 15.5718C3.11187 14.9101 3.13053 13.8544 3.79219 13.2144C4.60365 12.4329 5.47517 11.7382 6.37325 11.0884L8.75997 13.4732ZM19.9992 6.66749C26.0791 6.66749 31.8339 8.99216 36.2072 13.2153C36.8689 13.8536 36.8875 14.9101 36.2492 15.5718C35.9226 15.9101 35.486 16.0806 35.051 16.0806C34.6343 16.0806 34.2161 15.9252 33.8928 15.6118C30.1428 11.9935 25.2092 10.0005 19.9992 10.0005C18.3943 10.0005 16.8188 10.212 15.2922 10.5786L12.6008 7.88721C14.9608 7.10056 17.4476 6.6675 19.9992 6.66749Z" fill="#FF3A44"/>
</svg>
