<svg width="16" height="12" viewBox="0 0 16 12" fill="none" xmlns="http://www.w3.org/2000/svg">
    <path fill-rule="evenodd" clip-rule="evenodd"
          d="M8.00003 7.125C7.37978 7.125 6.87503 6.62025 6.87503 6C6.87503 5.37975 7.37978 4.875 8.00003 4.875C8.62028 4.875 9.12503 5.37975 9.12503 6C9.12503 6.62025 8.62028 7.125 8.00003 7.125M8.00003 3.375C6.55253 3.375 5.37503 4.5525 5.37503 6C5.37503 7.4475 6.55253 8.625 8.00003 8.625C9.44753 8.625 10.625 7.4475 10.625 6C10.625 4.5525 9.44753 3.375 8.00003 3.375M8.16481 9.7482C4.93531 9.8232 2.82856 7.06095 2.12956 5.9967C2.89906 4.79295 4.83706 2.32845 7.83556 2.25195C11.0523 2.1702 13.1711 4.9392 13.8701 6.00345C13.1013 7.2072 11.1626 9.6717 8.16481 9.7482M15.4008 5.62695C14.9223 4.79295 12.2793 0.61245 7.79731 0.7527C3.65131 0.8577 1.24006 4.5102 0.599563 5.62695C0.466812 5.85795 0.466812 6.1422 0.599563 6.3732C1.07131 7.19595 3.62131 11.2497 8.01856 11.2497C8.08006 11.2497 8.14156 11.249 8.20306 11.2475C12.3483 11.1417 14.7603 7.48995 15.4008 6.3732C15.5328 6.1422 15.5328 5.85795 15.4008 5.62695"
          fill="#888888"></path>
</svg>
