<svg width="15" height="14" viewBox="0 0 15 14" fill="none" xmlns="http://www.w3.org/2000/svg">
    <mask id="path-1-outside-1" maskUnits="userSpaceOnUse" x="-0.110352" y="-0.166529" width="15" height="14"
          fill="black">
        <rect fill="white" x="-0.110352" y="-0.166529" width="15" height="14"></rect>
        <path fill-rule="evenodd" clip-rule="evenodd"
              d="M13.194 7.24993C13.4112 7.46758 13.5371 7.7627 13.5371 8.0794C13.5371 8.53629 13.2757 8.93785 12.8868 9.13389C12.9675 9.29514 13.0101 9.47379 13.0101 9.66034C13.0101 10.1172 12.7482 10.5193 12.3593 10.7148C12.4795 10.9551 12.5148 11.2318 12.4542 11.5069C12.3361 12.0402 11.8339 12.427 11.26 12.427L6.42291 12.427C6.05666 12.427 5.46645 12.3084 5.02799 12.0828C4.8446 12.5903 4.35767 12.9539 3.78802 12.9539L2.20709 12.9539C1.4804 12.9539 0.88965 12.3632 0.88965 11.6365L0.88965 7.42068C0.889649 6.69399 1.4804 6.10324 2.20708 6.10321L4.84195 6.10321C4.9874 6.10321 5.10545 6.22127 5.10545 6.36671L5.10545 6.46737L5.16817 6.43524L6.68638 3.14741L6.68638 1.36044C6.68638 1.28036 6.72274 1.20447 6.78546 1.1544L6.78603 1.15396C6.80921 1.13595 7.19852 0.833472 7.74035 0.833472C8.35007 0.833472 9.32128 1.79836 9.32128 2.94137C9.32128 3.66228 9.06307 4.5597 8.90181 5.04927L12.157 5.04927C12.8662 5.04927 13.4696 5.57414 13.5313 6.24394C13.5656 6.61966 13.4402 6.98066 13.194 7.24993ZM12.2054 8.90833C12.2381 8.81083 12.324 8.74182 12.4257 8.72969C12.7588 8.69123 13.0101 8.41192 13.0101 8.0794C13.0101 7.83384 12.8721 7.61041 12.6491 7.4971C12.5648 7.45336 12.51 7.36798 12.5063 7.27261C12.5027 7.17724 12.5506 7.08764 12.6312 7.03811C12.89 6.87844 13.0344 6.59281 13.0064 6.29243C12.9696 5.89087 12.5965 5.57627 12.157 5.57627L8.53081 5.57627C8.4444 5.57627 8.36323 5.53358 8.31371 5.46244C8.2647 5.39078 8.25417 5.29961 8.28473 5.21898C8.28483 5.2187 8.28516 5.21781 8.28571 5.21634C8.31079 5.14891 8.79431 3.84907 8.79431 2.94137C8.79431 2.07818 8.02914 1.36044 7.74035 1.36044C7.51324 1.36044 7.32298 1.44265 7.21335 1.50324L7.21335 3.20485C7.21335 3.24279 7.20493 3.28073 7.18912 3.31551L5.60819 6.74087C5.58289 6.79514 5.54021 6.83941 5.48697 6.86577L5.10512 7.0567L5.10512 11.5149C5.40211 11.7332 6.0329 11.9 6.42291 11.9L11.2601 11.9C11.5889 11.9 11.8745 11.6871 11.9394 11.393C11.9915 11.1569 11.922 10.9277 11.7486 10.7643C11.6738 10.6937 11.6469 10.5868 11.679 10.4893C11.7117 10.3918 11.7976 10.3227 11.8993 10.3106C12.2318 10.2722 12.4832 9.99285 12.4832 9.66034C12.4832 9.47905 12.4089 9.30937 12.275 9.18341C12.2002 9.11279 12.1733 9.00583 12.2054 8.90833ZM4.57839 11.6486C4.57192 12.0788 4.21981 12.427 3.78802 12.427L2.20709 12.427C1.77127 12.427 1.41662 12.0723 1.41662 11.6365L1.41662 7.42068C1.41662 6.98486 1.77127 6.63021 2.20708 6.63021L4.57848 6.63021L4.57848 6.87999C4.57825 6.88457 4.57813 6.88918 4.57813 6.89382L4.57813 11.6366C4.57813 11.6406 4.57822 11.6446 4.57839 11.6486Z"></path>
    </mask>
    <path fill-rule="evenodd" clip-rule="evenodd"
          d="M13.194 7.24993C13.4112 7.46758 13.5371 7.7627 13.5371 8.0794C13.5371 8.53629 13.2757 8.93785 12.8868 9.13389C12.9675 9.29514 13.0101 9.47379 13.0101 9.66034C13.0101 10.1172 12.7482 10.5193 12.3593 10.7148C12.4795 10.9551 12.5148 11.2318 12.4542 11.5069C12.3361 12.0402 11.8339 12.427 11.26 12.427L6.42291 12.427C6.05666 12.427 5.46645 12.3084 5.02799 12.0828C4.8446 12.5903 4.35767 12.9539 3.78802 12.9539L2.20709 12.9539C1.4804 12.9539 0.88965 12.3632 0.88965 11.6365L0.88965 7.42068C0.889649 6.69399 1.4804 6.10324 2.20708 6.10321L4.84195 6.10321C4.9874 6.10321 5.10545 6.22127 5.10545 6.36671L5.10545 6.46737L5.16817 6.43524L6.68638 3.14741L6.68638 1.36044C6.68638 1.28036 6.72274 1.20447 6.78546 1.1544L6.78603 1.15396C6.80921 1.13595 7.19852 0.833472 7.74035 0.833472C8.35007 0.833472 9.32128 1.79836 9.32128 2.94137C9.32128 3.66228 9.06307 4.5597 8.90181 5.04927L12.157 5.04927C12.8662 5.04927 13.4696 5.57414 13.5313 6.24394C13.5656 6.61966 13.4402 6.98066 13.194 7.24993ZM12.2054 8.90833C12.2381 8.81083 12.324 8.74182 12.4257 8.72969C12.7588 8.69123 13.0101 8.41192 13.0101 8.0794C13.0101 7.83384 12.8721 7.61041 12.6491 7.4971C12.5648 7.45336 12.51 7.36798 12.5063 7.27261C12.5027 7.17724 12.5506 7.08764 12.6312 7.03811C12.89 6.87844 13.0344 6.59281 13.0064 6.29243C12.9696 5.89087 12.5965 5.57627 12.157 5.57627L8.53081 5.57627C8.4444 5.57627 8.36323 5.53358 8.31371 5.46244C8.2647 5.39078 8.25417 5.29961 8.28473 5.21898C8.28483 5.2187 8.28516 5.21781 8.28571 5.21634C8.31079 5.14891 8.79431 3.84907 8.79431 2.94137C8.79431 2.07818 8.02914 1.36044 7.74035 1.36044C7.51324 1.36044 7.32298 1.44265 7.21335 1.50324L7.21335 3.20485C7.21335 3.24279 7.20493 3.28073 7.18912 3.31551L5.60819 6.74087C5.58289 6.79514 5.54021 6.83941 5.48697 6.86577L5.10512 7.0567L5.10512 11.5149C5.40211 11.7332 6.0329 11.9 6.42291 11.9L11.2601 11.9C11.5889 11.9 11.8745 11.6871 11.9394 11.393C11.9915 11.1569 11.922 10.9277 11.7486 10.7643C11.6738 10.6937 11.6469 10.5868 11.679 10.4893C11.7117 10.3918 11.7976 10.3227 11.8993 10.3106C12.2318 10.2722 12.4832 9.99285 12.4832 9.66034C12.4832 9.47905 12.4089 9.30937 12.275 9.18341C12.2002 9.11279 12.1733 9.00583 12.2054 8.90833ZM4.57839 11.6486C4.57192 12.0788 4.21981 12.427 3.78802 12.427L2.20709 12.427C1.77127 12.427 1.41662 12.0723 1.41662 11.6365L1.41662 7.42068C1.41662 6.98486 1.77127 6.63021 2.20708 6.63021L4.57848 6.63021L4.57848 6.87999C4.57825 6.88457 4.57813 6.88918 4.57813 6.89382L4.57813 11.6366C4.57813 11.6406 4.57822 11.6446 4.57839 11.6486Z"
          fill="#15CF74"></path>
    <path d="M13.194 7.24993L12.825 6.91262L12.5029 7.26503L12.84 7.60304L13.194 7.24993ZM12.8868 9.13389L12.6618 8.6874L12.2167 8.91173L12.4396 9.35749L12.8868 9.13389ZM12.3593 10.7148L12.1347 10.2681L11.689 10.4922L11.9121 10.9384L12.3593 10.7148ZM12.4542 11.5069L12.9424 11.6149L12.9425 11.6144L12.4542 11.5069ZM11.26 12.427L11.26 12.927L11.26 12.927L11.26 12.427ZM6.42291 12.427L6.42291 11.927L6.42291 11.927L6.42291 12.427ZM5.02799 12.0828L5.25671 11.6382L4.75102 11.3781L4.55775 11.9129L5.02799 12.0828ZM3.78802 12.9539L3.78802 13.4539L3.78802 12.9539ZM2.20709 12.9539L2.20709 12.4539L2.20709 12.9539ZM2.20708 6.10321L2.20708 5.60321L2.20707 5.60321L2.20708 6.10321ZM4.84195 6.10321L4.84195 6.60321L4.84195 6.60321L4.84195 6.10321ZM5.10545 6.46737L4.60545 6.46737L4.60545 7.2854L5.33346 6.91236L5.10545 6.46737ZM5.16817 6.43524L5.39618 6.88022L5.54976 6.80152L5.62211 6.64485L5.16817 6.43524ZM6.68638 3.14741L7.14032 3.35703L7.18638 3.25728L7.18638 3.14741L6.68638 3.14741ZM6.68638 1.36044L6.18638 1.36044L6.68638 1.36044ZM6.78546 1.1544L6.47873 0.759485L6.47351 0.763652L6.78546 1.1544ZM6.78603 1.15396L7.09273 1.54885L7.09279 1.5488L6.78603 1.15396ZM8.90181 5.04927L8.42691 4.89285L8.2107 5.54927L8.90181 5.54927L8.90181 5.04927ZM12.157 5.04927L12.157 5.54927L12.157 5.54927L12.157 5.04927ZM13.5313 6.24394L14.0292 6.19853L14.0292 6.19811L13.5313 6.24394ZM12.4257 8.72969L12.3684 8.23298L12.3665 8.2332L12.4257 8.72969ZM12.2054 8.90833L11.7313 8.74953L11.7306 8.7518L12.2054 8.90833ZM13.0101 8.0794L12.5101 8.0794L12.5101 8.07944L13.0101 8.0794ZM12.6491 7.4971L12.4188 7.94093L12.4226 7.94282L12.6491 7.4971ZM12.5063 7.27261L13.006 7.25333L13.006 7.25333L12.5063 7.27261ZM12.6312 7.03811L12.8929 7.46415L12.8938 7.46361L12.6312 7.03811ZM13.0064 6.29243L12.5085 6.33816L12.5086 6.33874L13.0064 6.29243ZM12.157 5.57627L12.157 6.07627L12.157 6.07627L12.157 5.57627ZM8.53081 5.57627L8.53081 5.07627L8.53081 5.07627L8.53081 5.57627ZM8.31371 5.46244L7.90098 5.74471L7.90336 5.74812L8.31371 5.46244ZM8.28473 5.21898L8.75235 5.3962L8.75528 5.38806L8.28473 5.21898ZM8.28571 5.21634L7.81708 5.04202L7.81707 5.04205L8.28571 5.21634ZM7.21335 1.50324L6.97148 1.06564L6.71335 1.20831L6.71335 1.50324L7.21335 1.50324ZM7.21335 3.20485L7.71335 3.20485L7.21335 3.20485ZM7.18912 3.31551L7.64311 3.52504L7.6443 3.52241L7.18912 3.31551ZM5.60819 6.74087L6.06138 6.9521L6.06217 6.9504L5.60819 6.74087ZM5.48697 6.86577L5.26511 6.41768L5.26336 6.41856L5.48697 6.86577ZM5.10512 7.0567L4.8815 6.6095L4.60512 6.7477L4.60512 7.0567L5.10512 7.0567ZM5.10512 11.5149L4.60512 11.5149L4.60512 11.768L4.80901 11.9178L5.10512 11.5149ZM6.42291 11.9L6.42291 11.4L6.42291 11.4L6.42291 11.9ZM11.2601 11.9L11.2601 12.4L11.2601 12.4L11.2601 11.9ZM11.9394 11.393L11.4511 11.2852L11.4511 11.2854L11.9394 11.393ZM11.7486 10.7643L11.4054 11.128L11.4057 11.1283L11.7486 10.7643ZM11.679 10.4893L11.2049 10.3305L11.2041 10.3327L11.679 10.4893ZM11.8993 10.3106L11.8418 9.81393L11.8401 9.81414L11.8993 10.3106ZM12.275 9.18341L11.9318 9.54702L11.9324 9.54756L12.275 9.18341ZM4.57839 11.6486L5.07834 11.6561L5.07856 11.6412L5.07789 11.6262L4.57839 11.6486ZM3.78802 12.427L3.78802 12.927L3.78802 12.427ZM2.20709 12.427L2.20709 11.927L2.20709 12.427ZM1.41662 11.6365L1.91662 11.6365L1.91662 11.6365L1.41662 11.6365ZM1.41662 7.42068L0.916618 7.42068L0.916618 7.42068L1.41662 7.42068ZM2.20708 6.63021L2.20708 6.13021L2.20708 6.13021L2.20708 6.63021ZM4.57848 6.63021L5.07848 6.63021L5.07848 6.13021L4.57848 6.13021L4.57848 6.63021ZM4.57848 6.87999L5.07781 6.90586L5.07848 6.89293L5.07848 6.87999L4.57848 6.87999ZM14.0371 8.0794C14.0371 7.62811 13.8571 7.20664 13.548 6.89682L12.84 7.60304C12.9652 7.72853 13.0371 7.89728 13.0371 8.0794L14.0371 8.0794ZM13.1119 9.58037C13.6641 9.30199 14.0371 8.73089 14.0371 8.0794L13.0371 8.0794C13.0371 8.34169 12.8873 8.5737 12.6618 8.6874L13.1119 9.58037ZM13.5101 9.66034C13.5101 9.39658 13.4496 9.14133 13.334 8.91028L12.4396 9.35749C12.4853 9.44895 12.5101 9.55099 12.5101 9.66034L13.5101 9.66034ZM12.5839 11.1615C13.1365 10.8837 13.5101 10.3119 13.5101 9.66034L12.5101 9.66034C12.5101 9.92255 12.3599 10.1549 12.1347 10.2681L12.5839 11.1615ZM12.9425 11.6144C13.0274 11.229 12.9786 10.8353 12.8065 10.4912L11.9121 10.9384C11.9803 11.0749 12.0022 11.2345 11.9659 11.3993L12.9425 11.6144ZM11.26 12.927C12.0511 12.927 12.77 12.3937 12.9424 11.6149L11.966 11.3988C11.9023 11.6866 11.6168 11.927 11.26 11.927L11.26 12.927ZM6.42291 12.927L11.26 12.927L11.26 11.927L6.42291 11.927L6.42291 12.927ZM4.79927 12.5275C5.31361 12.7921 5.98308 12.927 6.42291 12.927L6.42291 11.927C6.13024 11.927 5.61929 11.8247 5.25671 11.6382L4.79927 12.5275ZM3.78802 13.4539C4.57533 13.4539 5.24568 12.9516 5.49823 12.2528L4.55775 11.9129C4.44352 12.229 4.14001 12.4539 3.78802 12.4539L3.78802 13.4539ZM2.20709 13.4539L3.78802 13.4539L3.78802 12.4539L2.20709 12.4539L2.20709 13.4539ZM0.38965 11.6365C0.389651 12.6394 1.20426 13.4539 2.20709 13.4539L2.20709 12.4539C1.75654 12.4539 1.38965 12.0871 1.38965 11.6365L0.38965 11.6365ZM0.38965 7.42068L0.38965 11.6365L1.38965 11.6365L1.38965 7.42068L0.38965 7.42068ZM2.20707 5.60321C1.20426 5.60325 0.389649 6.41784 0.38965 7.42068L1.38965 7.42068C1.38965 6.97014 1.75654 6.60323 2.2071 6.60321L2.20707 5.60321ZM4.84195 5.60321L2.20708 5.60321L2.20708 6.60321L4.84195 6.60321L4.84195 5.60321ZM5.60545 6.36671C5.60545 5.94512 5.26354 5.60321 4.84195 5.60321L4.84195 6.60321C4.71126 6.60321 4.60545 6.49741 4.60545 6.36671L5.60545 6.36671ZM5.60545 6.46737L5.60545 6.36671L4.60545 6.36671L4.60545 6.46737L5.60545 6.46737ZM4.94016 5.99025L4.87744 6.02239L5.33346 6.91236L5.39618 6.88022L4.94016 5.99025ZM6.23244 2.9378L4.71423 6.22562L5.62211 6.64485L7.14032 3.35703L6.23244 2.9378ZM6.18638 1.36044L6.18638 3.14741L7.18638 3.14741L7.18638 1.36044L6.18638 1.36044ZM6.47351 0.763652C6.29156 0.908911 6.18638 1.12879 6.18638 1.36044L7.18638 1.36044C7.18638 1.43193 7.15393 1.50004 7.09742 1.54515L6.47351 0.763652ZM6.47932 0.759082L6.47876 0.75952L7.09217 1.54928L7.09273 1.54885L6.47932 0.759082ZM7.74035 0.333472C7.02542 0.333472 6.52372 0.724588 6.47926 0.759131L7.09279 1.5488C7.09471 1.54731 7.37161 1.33347 7.74035 1.33347L7.74035 0.333472ZM9.82128 2.94137C9.82128 2.23003 9.5214 1.59361 9.14409 1.13933C8.95413 0.91062 8.73504 0.716197 8.50581 0.575752C8.28269 0.439052 8.01665 0.333472 7.74035 0.333472L7.74035 1.33347C7.76891 1.33347 7.85291 1.3485 7.98338 1.42844C8.10774 1.50463 8.24576 1.62287 8.37482 1.77826C8.63556 2.09218 8.82128 2.50971 8.82128 2.94137L9.82128 2.94137ZM9.37672 5.2057C9.53878 4.71368 9.82128 3.74946 9.82128 2.94137L8.82128 2.94137C8.82128 3.5751 8.58736 4.40573 8.42691 4.89285L9.37672 5.2057ZM12.157 4.54927L8.90181 4.54927L8.90181 5.54927L12.157 5.54927L12.157 4.54927ZM14.0292 6.19811C13.9419 5.24989 13.1029 4.54927 12.157 4.54927L12.157 5.54927C12.6296 5.54927 12.9974 5.8984 13.0334 6.28977L14.0292 6.19811ZM13.5631 7.58725C13.9033 7.21505 14.0764 6.71542 14.0292 6.19853L13.0334 6.28935C13.0548 6.5239 12.977 6.74626 12.825 6.91262L13.5631 7.58725ZM12.3665 8.2332C12.0752 8.26794 11.8261 8.46648 11.7313 8.74954L12.6796 9.06713C12.6501 9.15519 12.5728 9.21569 12.4849 9.22617L12.3665 8.2332ZM12.5101 8.07944C12.5101 8.15405 12.4531 8.22321 12.3684 8.23299L12.4831 9.22639C13.0645 9.15925 13.5102 8.66979 13.5101 8.07937L12.5101 8.07944ZM12.4226 7.94282C12.4807 7.97237 12.5101 8.02536 12.5101 8.0794L13.5101 8.0794C13.5101 7.64232 13.2634 7.24845 12.8757 7.05138L12.4226 7.94282ZM12.0067 7.29189C12.0174 7.56872 12.1766 7.8152 12.4189 7.94091L12.8794 7.05329C12.9531 7.09151 13.0026 7.16725 13.006 7.25333L12.0067 7.29189ZM12.3695 6.61207C12.1345 6.75646 11.9961 7.01657 12.0067 7.29189L13.006 7.25333C13.0092 7.3379 12.9667 7.41882 12.8929 7.46415L12.3695 6.61207ZM12.5086 6.33874C12.5186 6.44669 12.4685 6.55102 12.3686 6.61262L12.8938 7.46361C13.3115 7.20586 13.5501 6.73893 13.5043 6.24613L12.5086 6.33874ZM12.157 6.07627C12.3741 6.07627 12.4984 6.22834 12.5085 6.33816L13.5043 6.2467C13.4407 5.55341 12.8188 5.07627 12.157 5.07627L12.157 6.07627ZM8.53081 6.07627L12.157 6.07627L12.157 5.07627L8.53081 5.07627L8.53081 6.07627ZM7.90336 5.74812C8.04554 5.95236 8.27936 6.07627 8.53081 6.07627L8.53081 5.07627C8.60945 5.07627 8.68093 5.11481 8.72406 5.17676L7.90336 5.74812ZM7.81718 5.04178C7.72902 5.2744 7.75913 5.53726 7.90099 5.7447L8.72642 5.18019C8.77027 5.2443 8.77932 5.32481 8.75228 5.39617L7.81718 5.04178ZM7.81707 5.04205C7.81683 5.04269 7.81652 5.04352 7.81626 5.04422C7.81613 5.04457 7.81593 5.04513 7.81569 5.04576C7.81559 5.04603 7.81495 5.04777 7.81419 5.0499L8.75528 5.38806C8.75485 5.38925 8.75451 5.39017 8.75437 5.39055C8.7542 5.39102 8.75407 5.39137 8.75401 5.39155C8.75388 5.39189 8.75381 5.39209 8.75384 5.392C8.75391 5.39181 8.75404 5.39147 8.75435 5.39064L7.81707 5.04205ZM8.29431 2.94137C8.29431 3.32471 8.18902 3.82284 8.06763 4.26024C7.94906 4.68746 7.8274 5.01428 7.81708 5.04202L8.75434 5.39066C8.7691 5.35096 8.90174 4.99415 9.03121 4.52767C9.15784 4.07137 9.29431 3.46573 9.29431 2.94137L8.29431 2.94137ZM7.74035 1.86044C7.64784 1.86044 7.64069 1.82424 7.73498 1.89204C7.80522 1.94254 7.89505 2.02567 7.98355 2.1375C8.16417 2.36573 8.29431 2.65474 8.29431 2.94137L9.29431 2.94137C9.29431 2.36482 9.04186 1.86336 8.7677 1.51693C8.62881 1.34142 8.4732 1.19117 8.31874 1.08011C8.18834 0.986358 7.97725 0.860442 7.74035 0.860442L7.74035 1.86044ZM7.45523 1.94085C7.52494 1.90232 7.62976 1.86044 7.74035 1.86044L7.74035 0.860442C7.39671 0.860442 7.12102 0.982985 6.97148 1.06564L7.45523 1.94085ZM7.71335 3.20485L7.71335 1.50324L6.71335 1.50324L6.71335 3.20485L7.71335 3.20485ZM7.6443 3.52241C7.6888 3.42453 7.71335 3.31619 7.71335 3.20485L6.71335 3.20485C6.71335 3.16939 6.72106 3.13694 6.73394 3.10861L7.6443 3.52241ZM6.06217 6.9504L7.6431 3.52504L6.73514 3.10598L5.15421 6.53134L6.06217 6.9504ZM5.70883 7.31385C5.86636 7.23586 5.98931 7.10673 6.06138 6.9521L5.155 6.52964C5.17648 6.48356 5.21406 6.44296 5.26512 6.41768L5.70883 7.31385ZM5.32874 7.50391L5.71059 7.31298L5.26336 6.41856L4.8815 6.6095L5.32874 7.50391ZM5.60512 11.5149L5.60512 7.0567L4.60512 7.0567L4.60512 11.5149L5.60512 11.5149ZM6.42291 11.4C6.28716 11.4 6.07941 11.3689 5.86538 11.3082C5.64535 11.2459 5.47953 11.1696 5.40123 11.112L4.80901 11.9178C5.0277 12.0785 5.32576 12.1947 5.59288 12.2704C5.86599 12.3477 6.16864 12.4 6.42291 12.4L6.42291 11.4ZM11.2601 11.4L6.42291 11.4L6.42291 12.4L11.2601 12.4L11.2601 11.4ZM11.4511 11.2854C11.447 11.304 11.4336 11.3307 11.3997 11.356C11.3656 11.3815 11.3169 11.4 11.2601 11.4L11.2601 12.4C11.7921 12.4 12.3058 12.0532 12.4276 11.5007L11.4511 11.2854ZM11.4057 11.1283C11.4486 11.1687 11.466 11.2178 11.4511 11.2852L12.4276 11.5009C12.517 11.0961 12.3953 10.6867 12.0915 10.4004L11.4057 11.1283ZM11.2041 10.3327C11.1115 10.614 11.1891 10.9238 11.4054 11.128L12.0918 10.4007C12.1584 10.4636 12.1823 10.5596 12.1539 10.6458L11.2041 10.3327ZM11.8401 9.81414C11.5488 9.84887 11.2997 10.0474 11.2049 10.3305L12.1531 10.6481C12.1236 10.7361 12.0464 10.7966 11.9585 10.8071L11.8401 9.81414ZM11.9832 9.66034C11.9832 9.73522 11.9258 9.80422 11.8418 9.81393L11.9567 10.8073C12.5378 10.7401 12.9832 10.2505 12.9832 9.66034L11.9832 9.66034ZM11.9324 9.54756C11.9679 9.581 11.9832 9.61979 11.9832 9.66034L12.9832 9.66034C12.9832 9.3383 12.8498 9.03774 12.6176 8.81927L11.9324 9.54756ZM11.7306 8.7518C11.6379 9.03304 11.7155 9.34288 11.9318 9.54702L12.6182 8.8198C12.6848 8.8827 12.7087 8.97862 12.6803 9.06486L11.7306 8.7518ZM4.07845 11.641C4.07608 11.7986 3.94614 11.927 3.78802 11.927L3.78802 12.927C4.49347 12.927 5.06776 12.3591 5.07834 11.6561L4.07845 11.641ZM3.78802 11.927L2.20709 11.927L2.20709 12.927L3.78802 12.927L3.78802 11.927ZM2.20709 11.927C2.04741 11.927 1.91662 11.7962 1.91662 11.6365L0.916619 11.6365C0.91662 12.3485 1.49512 12.927 2.20709 12.927L2.20709 11.927ZM1.91662 11.6365L1.91662 7.42068L0.916618 7.42068L0.916619 11.6365L1.91662 11.6365ZM1.91662 7.42068C1.91662 7.261 2.04741 7.13021 2.20708 7.13021L2.20708 6.13021C1.49512 6.13021 0.916618 6.70871 0.916618 7.42068L1.91662 7.42068ZM2.20708 7.13021L4.57848 7.13021L4.57848 6.13021L2.20708 6.13021L2.20708 7.13021ZM4.07848 6.63021L4.07848 6.87999L5.07848 6.87999L5.07848 6.63021L4.07848 6.63021ZM4.07915 6.85412C4.07847 6.86732 4.07813 6.88056 4.07813 6.89382L5.07813 6.89382C5.07813 6.8978 5.07802 6.90182 5.07781 6.90586L4.07915 6.85412ZM4.07813 6.89382L4.07813 11.6366L5.07813 11.6366L5.07813 6.89382L4.07813 6.89382ZM4.07813 11.6366C4.07813 11.6481 4.07838 11.6595 4.07889 11.6709L5.07789 11.6262C5.07805 11.6297 5.07813 11.6332 5.07813 11.6366L4.07813 11.6366Z"
          fill="#15CF74" mask="url(#path-1-outside-1)"></path>
</svg>
