<svg width="12" height="14" viewBox="0 0 12 14" fill="none" xmlns="http://www.w3.org/2000/svg">
    <path fill-rule="evenodd" clip-rule="evenodd"
          d="M2.66667 9.66667C2.66667 9.3 2.96667 9 3.33333 9C3.7 9 4 9.3 4 9.66667C4 10.0333 3.7 10.3333 3.33333 10.3333C2.96667 10.3333 2.66667 10.0333 2.66667 9.66667ZM6 9H8.66667C9.03333 9 9.33333 9.3 9.33333 9.66667C9.33333 10.0333 9.03333 10.3333 8.66667 10.3333H6C5.63333 10.3333 5.33333 10.0333 5.33333 9.66667C5.33333 9.3 5.63333 9 6 9ZM10 12.3333H2C1.63267 12.3333 1.33333 12.034 1.33333 11.6667V7.66667H10.6667V11.6667C10.6667 12.034 10.3673 12.3333 10 12.3333M2 3H2.66667V3.66667C2.66667 4.03334 2.96667 4.33334 3.33333 4.33334C3.7 4.33334 4 4.03334 4 3.66667V3H8V3.66667C8 4.03334 8.3 4.33334 8.66667 4.33334C9.03333 4.33334 9.33333 4.03334 9.33333 3.66667V3H10C10.3673 3 10.6667 3.29934 10.6667 3.66667V6.33334H1.33333V3.66667C1.33333 3.29934 1.63267 3 2 3M10 1.66667H9.33333V1C9.33333 0.633336 9.03333 0.333336 8.66667 0.333336C8.3 0.333336 8 0.633336 8 1V1.66667H4V1C4 0.633336 3.7 0.333336 3.33333 0.333336C2.96667 0.333336 2.66667 0.633336 2.66667 1V1.66667H2C0.897333 1.66667 0 2.564 0 3.66667V11.6667C0 12.7693 0.897333 13.6667 2 13.6667H10C11.1027 13.6667 12 12.7693 12 11.6667V3.66667C12 2.564 11.1027 1.66667 10 1.66667"
          fill="#888888"></path>
</svg>
