<svg width="15" height="14" viewBox="0 0 15 14" fill="none" xmlns="http://www.w3.org/2000/svg"><mask id="path-1-outside-1" maskUnits="userSpaceOnUse" x="0.110351" y="0.166526" width="15" height="14" fill="black"><rect fill="white" x="0.110351" y="0.166526" width="15" height="14"></rect><path fill-rule="evenodd" clip-rule="evenodd" d="M1.80596 6.75006C1.58885 6.53241 1.4629 6.2373 1.4629 5.92059C1.4629 5.4637 1.72427 5.06215 2.11318 4.86611C2.03255 4.70486 1.98987 4.52621 1.98987 4.33966C1.98987 3.88277 2.25178 3.4807 2.64069 3.28518C2.52054 3.04488 2.48524 2.76821 2.54583 2.49313C2.66386 1.95984 3.16608 1.57303 3.73996 1.57303L8.57709 1.57303C8.94335 1.57303 9.53355 1.6916 9.97202 1.91715C10.1554 1.40968 10.6423 1.04606 11.212 1.04606L12.7929 1.04606C13.5196 1.04606 14.1104 1.63679 14.1104 2.3635L14.1104 6.57932C14.1104 7.30601 13.5196 7.89676 12.7929 7.89679L10.158 7.89678C10.0126 7.89678 9.89455 7.77873 9.89455 7.63329L9.89455 7.53263L9.83183 7.56476L8.31362 10.8526L8.31362 12.6396C8.31362 12.7196 8.27726 12.7955 8.21454 12.8456L8.21397 12.846C8.19079 12.864 7.80148 13.1665 7.25965 13.1665C6.64993 13.1665 5.67872 12.2016 5.67872 11.0586C5.67872 10.3377 5.93693 9.44029 6.09819 8.95072L2.84305 8.95072C2.13375 8.95072 1.53036 8.42585 1.4687 7.75606C1.43444 7.38034 1.55985 7.01934 1.80596 6.75006ZM2.79456 5.09167C2.7619 5.18916 2.67599 5.25818 2.57429 5.27031C2.24123 5.30877 1.98986 5.58808 1.98989 5.92059C1.98989 6.16616 2.12795 6.38959 2.35086 6.50289C2.43517 6.54664 2.48998 6.63201 2.49366 6.72739C2.49734 6.82276 2.4494 6.91236 2.36877 6.96188C2.11004 7.12156 1.96563 7.40719 1.99357 7.70757C2.03045 8.10912 2.40355 8.42373 2.84305 8.42373L6.46919 8.42373C6.5556 8.42373 6.63677 8.46641 6.68629 8.53756C6.7353 8.60922 6.74583 8.70039 6.71527 8.78102C6.71517 8.7813 6.71484 8.78218 6.71429 8.78366C6.68921 8.85109 6.20569 10.1509 6.20569 11.0586C6.20569 11.9218 6.97086 12.6396 7.25965 12.6396C7.48676 12.6396 7.67702 12.5573 7.78665 12.4968L7.78665 10.7952C7.78665 10.7572 7.79507 10.7193 7.81088 10.6845L9.39181 7.25913C9.41711 7.20486 9.45979 7.16059 9.51303 7.13423L9.89488 6.94329L9.89488 2.48507C9.59789 2.26679 8.96711 2.1 8.57709 2.1L3.73993 2.1C3.4111 2.1 3.12547 2.31291 3.06065 2.60696C3.00848 2.84306 3.07804 3.0723 3.25142 3.23565C3.32625 3.30627 3.35312 3.41323 3.32098 3.51073C3.28833 3.60823 3.20242 3.67725 3.10072 3.68938C2.7682 3.72784 2.51683 4.00715 2.51683 4.33966C2.51683 4.52095 2.59114 4.69063 2.725 4.81658C2.79982 4.88721 2.8267 4.99417 2.79456 5.09167ZM10.4216 2.35143C10.4281 1.92115 10.7802 1.57303 11.212 1.57303L12.7929 1.57303C13.2287 1.57303 13.5834 1.92768 13.5834 2.3635L13.5834 6.57932C13.5834 7.01514 13.2287 7.36979 12.7929 7.36979L10.4215 7.36979L10.4215 7.12001C10.4218 7.11543 10.4219 7.11082 10.4219 7.10618L10.4219 2.36338C10.4219 2.35938 10.4218 2.35539 10.4216 2.35143Z"></path></mask><path fill-rule="evenodd" clip-rule="evenodd" d="M1.80596 6.75006C1.58885 6.53241 1.4629 6.2373 1.4629 5.92059C1.4629 5.4637 1.72427 5.06215 2.11318 4.86611C2.03255 4.70486 1.98987 4.52621 1.98987 4.33966C1.98987 3.88277 2.25178 3.4807 2.64069 3.28518C2.52054 3.04488 2.48524 2.76821 2.54583 2.49313C2.66386 1.95984 3.16608 1.57303 3.73996 1.57303L8.57709 1.57303C8.94335 1.57303 9.53355 1.6916 9.97202 1.91715C10.1554 1.40968 10.6423 1.04606 11.212 1.04606L12.7929 1.04606C13.5196 1.04606 14.1104 1.63679 14.1104 2.3635L14.1104 6.57932C14.1104 7.30601 13.5196 7.89676 12.7929 7.89679L10.158 7.89678C10.0126 7.89678 9.89455 7.77873 9.89455 7.63329L9.89455 7.53263L9.83183 7.56476L8.31362 10.8526L8.31362 12.6396C8.31362 12.7196 8.27726 12.7955 8.21454 12.8456L8.21397 12.846C8.19079 12.864 7.80148 13.1665 7.25965 13.1665C6.64993 13.1665 5.67872 12.2016 5.67872 11.0586C5.67872 10.3377 5.93693 9.44029 6.09819 8.95072L2.84305 8.95072C2.13375 8.95072 1.53036 8.42585 1.4687 7.75606C1.43444 7.38034 1.55985 7.01934 1.80596 6.75006ZM2.79456 5.09167C2.7619 5.18916 2.67599 5.25818 2.57429 5.27031C2.24123 5.30877 1.98986 5.58808 1.98989 5.92059C1.98989 6.16616 2.12795 6.38959 2.35086 6.50289C2.43517 6.54664 2.48998 6.63201 2.49366 6.72739C2.49734 6.82276 2.4494 6.91236 2.36877 6.96188C2.11004 7.12156 1.96563 7.40719 1.99357 7.70757C2.03045 8.10912 2.40355 8.42373 2.84305 8.42373L6.46919 8.42373C6.5556 8.42373 6.63677 8.46641 6.68629 8.53756C6.7353 8.60922 6.74583 8.70039 6.71527 8.78102C6.71517 8.7813 6.71484 8.78218 6.71429 8.78366C6.68921 8.85109 6.20569 10.1509 6.20569 11.0586C6.20569 11.9218 6.97086 12.6396 7.25965 12.6396C7.48676 12.6396 7.67702 12.5573 7.78665 12.4968L7.78665 10.7952C7.78665 10.7572 7.79507 10.7193 7.81088 10.6845L9.39181 7.25913C9.41711 7.20486 9.45979 7.16059 9.51303 7.13423L9.89488 6.94329L9.89488 2.48507C9.59789 2.26679 8.96711 2.1 8.57709 2.1L3.73993 2.1C3.4111 2.1 3.12547 2.31291 3.06065 2.60696C3.00848 2.84306 3.07804 3.0723 3.25142 3.23565C3.32625 3.30627 3.35312 3.41323 3.32098 3.51073C3.28833 3.60823 3.20242 3.67725 3.10072 3.68938C2.7682 3.72784 2.51683 4.00715 2.51683 4.33966C2.51683 4.52095 2.59114 4.69063 2.725 4.81658C2.79982 4.88721 2.8267 4.99417 2.79456 5.09167ZM10.4216 2.35143C10.4281 1.92115 10.7802 1.57303 11.212 1.57303L12.7929 1.57303C13.2287 1.57303 13.5834 1.92768 13.5834 2.3635L13.5834 6.57932C13.5834 7.01514 13.2287 7.36979 12.7929 7.36979L10.4215 7.36979L10.4215 7.12001C10.4218 7.11543 10.4219 7.11082 10.4219 7.10618L10.4219 2.36338C10.4219 2.35938 10.4218 2.35539 10.4216 2.35143Z" fill="#FF0000"></path><path d="M1.80596 6.75006L2.17503 7.08738L2.49712 6.73497L2.15995 6.39695L1.80596 6.75006ZM2.11318 4.86611L2.33823 5.3126L2.78327 5.08827L2.56039 4.64251L2.11318 4.86611ZM2.64069 3.28518L2.86527 3.7319L3.31102 3.50781L3.0879 3.06157L2.64069 3.28518ZM2.54583 2.49313L2.05765 2.38509L2.05754 2.38557L2.54583 2.49313ZM3.73996 1.57303L3.73996 2.07303L3.73996 2.07303L3.73996 1.57303ZM8.57709 1.57303L8.57709 2.07303L8.57709 1.57303ZM9.97202 1.91715L9.74329 2.36177L10.249 2.62191L10.4423 2.08708L9.97202 1.91715ZM11.212 1.04606L11.212 0.546061L11.212 1.04606ZM12.7929 1.04606L12.7929 1.54606L12.7929 1.04606ZM12.7929 7.89679L12.7929 8.39679L12.7929 8.39679L12.7929 7.89679ZM10.158 7.89678L10.158 7.39678L10.158 7.89678ZM9.89455 7.53263L10.3945 7.53263L10.3945 6.71461L9.66654 7.08764L9.89455 7.53263ZM9.83183 7.56476L9.60382 7.11978L9.45024 7.19848L9.37789 7.35515L9.83183 7.56476ZM8.31362 10.8526L7.85968 10.643L7.81362 10.7427L7.81362 10.8526L8.31362 10.8526ZM8.31362 12.6396L8.81362 12.6396L8.31362 12.6396ZM8.21454 12.8456L8.52127 13.2405L8.52649 13.2363L8.21454 12.8456ZM8.21397 12.846L7.90727 12.4512L7.90721 12.4512L8.21397 12.846ZM5.67872 11.0586L6.17872 11.0586L6.17872 11.0586L5.67872 11.0586ZM6.09819 8.95072L6.57309 9.10715L6.7893 8.45072L6.09819 8.45072L6.09819 8.95072ZM2.84305 8.95072L2.84305 9.45072L2.84305 8.95072ZM1.4687 7.75606L0.970766 7.80146L0.970805 7.80189L1.4687 7.75606ZM2.57429 5.27031L2.63165 5.76701L2.6335 5.76679L2.57429 5.27031ZM2.79456 5.09167L3.26868 5.25047L3.26943 5.24819L2.79456 5.09167ZM1.98989 5.92059L2.48989 5.92059L2.48989 5.92056L1.98989 5.92059ZM2.35086 6.50289L2.58116 6.05907L2.57743 6.05717L2.35086 6.50289ZM2.49366 6.72739L1.99403 6.74667L1.99403 6.74667L2.49366 6.72739ZM2.36877 6.96188L2.10706 6.53584L2.10618 6.53639L2.36877 6.96188ZM1.99357 7.70757L2.49147 7.66184L2.49142 7.66126L1.99357 7.70757ZM2.84305 8.42373L2.84305 8.92373L2.84305 8.42373ZM6.46919 8.42373L6.46919 7.92373L6.46919 8.42373ZM6.68629 8.53756L7.09902 8.25529L7.09665 8.25188L6.68629 8.53756ZM6.71527 8.78102L6.24765 8.6038L6.24473 8.61194L6.71527 8.78102ZM6.71429 8.78366L7.18292 8.95798L7.18293 8.95795L6.71429 8.78366ZM7.25965 12.6396L7.25965 13.1396L7.25965 12.6396ZM7.78665 12.4968L8.02852 12.9344L8.28665 12.7917L8.28665 12.4968L7.78665 12.4968ZM7.78665 10.7952L7.28665 10.7952L7.78665 10.7952ZM7.81088 10.6845L7.35689 10.475L7.3557 10.4776L7.81088 10.6845ZM9.39181 7.25913L8.93862 7.0479L8.93783 7.0496L9.39181 7.25913ZM9.51303 7.13423L9.73489 7.58232L9.73664 7.58144L9.51303 7.13423ZM9.89488 6.94329L10.1185 7.3905L10.3949 7.2523L10.3949 6.94329L9.89488 6.94329ZM9.89488 2.48507L10.3949 2.48507L10.3949 2.23203L10.191 2.08218L9.89488 2.48507ZM8.57709 2.1L8.57709 2.6L8.57709 2.1ZM3.73993 2.1L3.73993 1.6L3.73993 2.1ZM3.06065 2.60696L3.54887 2.71484L3.54893 2.71459L3.06065 2.60696ZM3.25142 3.23565L3.59463 2.87204L3.5943 2.87173L3.25142 3.23565ZM3.32098 3.51073L3.7951 3.66953L3.79585 3.66726L3.32098 3.51073ZM3.10072 3.68938L3.15817 4.18607L3.15993 4.18586L3.10072 3.68938ZM2.725 4.81658L3.0682 4.45297L3.06764 4.45244L2.725 4.81658ZM10.4216 2.35143L9.92167 2.34391L9.92144 2.35884L9.92211 2.37377L10.4216 2.35143ZM13.5834 2.3635L13.0834 2.3635L13.5834 2.3635ZM13.5834 6.57932L13.0834 6.57932L13.5834 6.57932ZM10.4215 7.36979L9.92152 7.36979L9.92152 7.86979L10.4215 7.86979L10.4215 7.36979ZM10.4215 7.12001L9.92219 7.09414L9.92152 7.10707L9.92152 7.12001L10.4215 7.12001ZM0.962895 5.92059C0.962895 6.37188 1.14292 6.79336 1.45196 7.10317L2.15995 6.39695C2.03478 6.27147 1.9629 6.10271 1.9629 5.92059L0.962895 5.92059ZM1.88812 4.41963C1.33586 4.698 0.962895 5.2691 0.962895 5.92059L1.9629 5.92059C1.9629 5.65831 2.11268 5.42629 2.33823 5.3126L1.88812 4.41963ZM1.48987 4.33966C1.48987 4.60342 1.55044 4.85866 1.66596 5.08972L2.56039 4.64251C2.51466 4.55105 2.48987 4.44901 2.48987 4.33966L1.48987 4.33966ZM2.41611 2.83845C1.86348 3.11628 1.48987 3.6881 1.48987 4.33966L2.48987 4.33966C2.48987 4.07744 2.64008 3.84511 2.86527 3.7319L2.41611 2.83845ZM2.05754 2.38557C1.97265 2.77095 2.02141 3.16465 2.19348 3.50879L3.0879 3.06157C3.01967 2.9251 2.99783 2.76548 3.03413 2.60069L2.05754 2.38557ZM3.73996 1.07303C2.94892 1.07303 2.23001 1.6063 2.05765 2.38509L3.03402 2.60118C3.09772 2.31338 3.38324 2.07303 3.73996 2.07303L3.73996 1.07303ZM8.57709 1.07303L3.73996 1.07303L3.73996 2.07303L8.57709 2.07303L8.57709 1.07303ZM10.2007 1.47254C9.68639 1.20795 9.01693 1.07303 8.57709 1.07303L8.57709 2.07303C8.86977 2.07303 9.38071 2.17526 9.74329 2.36177L10.2007 1.47254ZM11.212 0.546061C10.4247 0.546061 9.75432 1.04837 9.50178 1.74723L10.4423 2.08708C10.5565 1.77098 10.86 1.54606 11.212 1.54606L11.212 0.546061ZM12.7929 0.546061L11.212 0.546061L11.212 1.54606L12.7929 1.54606L12.7929 0.546061ZM14.6104 2.3635C14.6104 1.36064 13.7957 0.546061 12.7929 0.546061L12.7929 1.54606C13.2435 1.54606 13.6104 1.91294 13.6104 2.3635L14.6104 2.3635ZM14.6104 6.57932L14.6104 2.3635L13.6104 2.3635L13.6104 6.57932L14.6104 6.57932ZM12.7929 8.39679C13.7957 8.39675 14.6104 7.58216 14.6104 6.57932L13.6104 6.57932C13.6104 7.02986 13.2435 7.39677 12.7929 7.39679L12.7929 8.39679ZM10.158 8.39678L12.7929 8.39679L12.7929 7.39679L10.158 7.39678L10.158 8.39678ZM9.39455 7.63329C9.39455 8.05488 9.73646 8.39678 10.158 8.39678L10.158 7.39678C10.2887 7.39678 10.3945 7.50259 10.3945 7.63329L9.39455 7.63329ZM9.39455 7.53263L9.39455 7.63329L10.3945 7.63329L10.3945 7.53263L9.39455 7.53263ZM10.0598 8.00975L10.1226 7.97761L9.66654 7.08764L9.60382 7.11978L10.0598 8.00975ZM8.76756 11.0622L10.2858 7.77438L9.37789 7.35515L7.85968 10.643L8.76756 11.0622ZM8.81362 12.6396L8.81362 10.8526L7.81362 10.8526L7.81362 12.6396L8.81362 12.6396ZM8.52649 13.2363C8.70844 13.0911 8.81362 12.8712 8.81362 12.6396L7.81362 12.6396C7.81362 12.5681 7.84607 12.5 7.90259 12.4548L8.52649 13.2363ZM8.52068 13.2409L8.52124 13.2405L7.90783 12.4507L7.90727 12.4512L8.52068 13.2409ZM7.25965 13.6665C7.97458 13.6665 8.47628 13.2754 8.52074 13.2409L7.90721 12.4512C7.90529 12.4527 7.62839 12.6665 7.25965 12.6665L7.25965 13.6665ZM5.17872 11.0586C5.17872 11.77 5.4786 12.4064 5.85591 12.8607C6.04587 13.0894 6.26497 13.2838 6.49419 13.4242C6.71731 13.5609 6.98335 13.6665 7.25965 13.6665L7.25965 12.6665C7.23109 12.6665 7.14709 12.6515 7.01662 12.5716C6.89226 12.4954 6.75424 12.3771 6.62518 12.2217C6.36445 11.9078 6.17872 11.4903 6.17872 11.0586L5.17872 11.0586ZM5.62329 8.7943C5.46122 9.28632 5.17872 10.2505 5.17872 11.0586L6.17872 11.0586C6.17872 10.4249 6.41264 9.59427 6.57309 9.10715L5.62329 8.7943ZM2.84305 9.45072L6.09819 9.45072L6.09819 8.45072L2.84305 8.45072L2.84305 9.45072ZM0.970805 7.80189C1.05809 8.75011 1.89715 9.45072 2.84305 9.45072L2.84305 8.45072C2.37036 8.45072 2.00262 8.10159 1.9666 7.71022L0.970805 7.80189ZM1.43688 6.41275C1.09671 6.78495 0.923631 7.28457 0.970766 7.80146L1.96663 7.71065C1.94525 7.4761 2.023 7.25373 2.17503 7.08738L1.43688 6.41275ZM2.6335 5.76679C2.92478 5.73205 3.17386 5.53352 3.26867 5.25047L2.32045 4.93287C2.34994 4.84481 2.4272 4.78431 2.51508 4.77383L2.6335 5.76679ZM2.48989 5.92056C2.48988 5.84595 2.54694 5.77679 2.63165 5.76701L2.51693 4.77361C1.93552 4.84075 1.48985 5.33021 1.48989 5.92063L2.48989 5.92056ZM2.57743 6.05717C2.51929 6.02762 2.48989 5.97464 2.48989 5.92059L1.48989 5.92059C1.48989 6.35767 1.7366 6.75155 2.12429 6.94862L2.57743 6.05717ZM2.99329 6.70811C2.98261 6.43128 2.82341 6.18479 2.58115 6.05909L2.12057 6.9467C2.04693 6.90849 1.99736 6.83275 1.99403 6.74667L2.99329 6.70811ZM2.63048 7.38792C2.86553 7.24354 3.00392 6.98342 2.99329 6.7081L1.99403 6.74667C1.99077 6.6621 2.03326 6.58118 2.10706 6.53584L2.63048 7.38792ZM2.49142 7.66126C2.48138 7.55331 2.53155 7.44898 2.63136 7.38738L2.10618 6.53639C1.68853 6.79414 1.44988 7.26107 1.49572 7.75387L2.49142 7.66126ZM2.84305 7.92373C2.62592 7.92373 2.50156 7.77166 2.49147 7.66184L1.49567 7.75329C1.55934 8.44659 2.18118 8.92373 2.84305 8.92373L2.84305 7.92373ZM6.46919 7.92373L2.84305 7.92373L2.84305 8.92373L6.46919 8.92373L6.46919 7.92373ZM7.09665 8.25188C6.95446 8.04764 6.72064 7.92373 6.46919 7.92373L6.46919 8.92373C6.39055 8.92373 6.31907 8.88519 6.27594 8.82323L7.09665 8.25188ZM7.18282 8.95821C7.27098 8.7256 7.24087 8.46274 7.09901 8.2553L6.27358 8.81981C6.22973 8.75569 6.22068 8.67518 6.24772 8.60383L7.18282 8.95821ZM7.18293 8.95795C7.18317 8.95731 7.18348 8.95648 7.18374 8.95578C7.18387 8.95543 7.18408 8.95487 7.18431 8.95424C7.18441 8.95397 7.18505 8.95222 7.18582 8.9501L6.24473 8.61194C6.24515 8.61075 6.24549 8.60983 6.24563 8.60944C6.2458 8.60898 6.24593 8.60863 6.246 8.60845C6.24612 8.60811 6.2462 8.60791 6.24616 8.608C6.24609 8.60819 6.24596 8.60853 6.24566 8.60936L7.18293 8.95795ZM6.70569 11.0586C6.70569 10.6753 6.81098 10.1772 6.93238 9.73975C7.05094 9.31254 7.1726 8.98571 7.18292 8.95798L6.24566 8.60934C6.2309 8.64903 6.09826 9.00585 5.9688 9.47233C5.84216 9.92863 5.70569 10.5343 5.70569 11.0586L6.70569 11.0586ZM7.25965 12.1396C7.35216 12.1396 7.35931 12.1758 7.26502 12.108C7.19478 12.0575 7.10495 11.9743 7.01645 11.8625C6.83583 11.6343 6.70569 11.3453 6.70569 11.0586L5.70569 11.0586C5.70569 11.6352 5.95814 12.1366 6.2323 12.4831C6.37119 12.6586 6.5268 12.8088 6.68126 12.9199C6.81166 13.0136 7.02275 13.1396 7.25965 13.1396L7.25965 12.1396ZM7.54477 12.0592C7.47506 12.0977 7.37024 12.1396 7.25965 12.1396L7.25965 13.1396C7.60329 13.1396 7.87898 13.017 8.02852 12.9344L7.54477 12.0592ZM7.28665 10.7952L7.28665 12.4968L8.28665 12.4968L8.28665 10.7952L7.28665 10.7952ZM7.3557 10.4776C7.3112 10.5755 7.28665 10.6838 7.28665 10.7952L8.28665 10.7952C8.28665 10.8306 8.27894 10.8631 8.26606 10.8914L7.3557 10.4776ZM8.93783 7.0496L7.3569 10.475L8.26486 10.894L9.84579 7.46865L8.93783 7.0496ZM9.29117 6.68615C9.13365 6.76414 9.01069 6.89327 8.93862 7.0479L9.84501 7.47035C9.82352 7.51644 9.78594 7.55704 9.73489 7.58232L9.29117 6.68615ZM9.67127 6.49609L9.28941 6.68702L9.73664 7.58144L10.1185 7.3905L9.67127 6.49609ZM9.39488 2.48507L9.39488 6.94329L10.3949 6.94329L10.3949 2.48507L9.39488 2.48507ZM8.57709 2.6C8.71284 2.6 8.92059 2.63114 9.13462 2.69176C9.35465 2.75407 9.52047 2.83041 9.59877 2.88796L10.191 2.08218C9.97231 1.92145 9.67424 1.80525 9.40712 1.7296C9.13401 1.65225 8.83136 1.6 8.57709 1.6L8.57709 2.6ZM3.73993 2.6L8.57709 2.6L8.57709 1.6L3.73993 1.6L3.73993 2.6ZM3.54893 2.71459C3.55303 2.69596 3.56637 2.66926 3.60027 2.64397C3.63439 2.61851 3.68311 2.6 3.73993 2.6L3.73993 1.6C3.20786 1.6 2.69418 1.94676 2.57237 2.49933L3.54893 2.71459ZM3.5943 2.87173C3.55139 2.83131 3.53398 2.78223 3.54887 2.71484L2.57243 2.49908C2.48298 2.90389 2.60469 3.31328 2.90855 3.59957L3.5943 2.87173ZM3.79585 3.66726C3.88855 3.38602 3.81091 3.07619 3.59463 2.87204L2.90822 3.59926C2.84158 3.53636 2.81769 3.44044 2.84611 3.35421L3.79585 3.66726ZM3.15993 4.18586C3.4512 4.15112 3.70029 3.95259 3.7951 3.66953L2.84687 3.35194C2.87637 3.26387 2.95363 3.20338 3.0415 3.1929L3.15993 4.18586ZM3.01683 4.33966C3.01683 4.26478 3.07417 4.19578 3.15817 4.18607L3.04327 3.19269C2.46223 3.2599 2.01683 3.74951 2.01683 4.33966L3.01683 4.33966ZM3.06764 4.45244C3.03209 4.419 3.01683 4.3802 3.01683 4.33966L2.01683 4.33966C2.01683 4.6617 2.15018 4.96226 2.38236 5.18073L3.06764 4.45244ZM3.26943 5.24819C3.36213 4.96695 3.28448 4.65711 3.0682 4.45297L2.38179 5.18019C2.31516 5.1173 2.29126 5.02138 2.31969 4.93514L3.26943 5.24819ZM10.9216 2.35895C10.9239 2.2014 11.0539 2.07303 11.212 2.07303L11.212 1.07303C10.5065 1.07303 9.93224 1.64091 9.92167 2.34391L10.9216 2.35895ZM11.212 2.07303L12.7929 2.07303L12.7929 1.07303L11.212 1.07303L11.212 2.07303ZM12.7929 2.07303C12.9526 2.07303 13.0834 2.20382 13.0834 2.3635L14.0834 2.3635C14.0834 1.65154 13.5049 1.07303 12.7929 1.07303L12.7929 2.07303ZM13.0834 2.3635L13.0834 6.57932L14.0834 6.57932L14.0834 2.3635L13.0834 2.3635ZM13.0834 6.57932C13.0834 6.739 12.9526 6.86979 12.7929 6.86979L12.7929 7.86979C13.5049 7.86979 14.0834 7.29129 14.0834 6.57932L13.0834 6.57932ZM12.7929 6.86979L10.4215 6.86979L10.4215 7.86979L12.7929 7.86979L12.7929 6.86979ZM10.9215 7.36979L10.9215 7.12001L9.92152 7.12001L9.92152 7.36979L10.9215 7.36979ZM10.9208 7.14588C10.9215 7.13268 10.9219 7.11944 10.9219 7.10618L9.92188 7.10618C9.92188 7.1022 9.92198 7.09818 9.92219 7.09414L10.9208 7.14588ZM10.9219 7.10618L10.9219 2.36338L9.92188 2.36338L9.92188 7.10618L10.9219 7.10618ZM10.9219 2.36338C10.9219 2.35192 10.9216 2.34048 10.9211 2.32909L9.92211 2.37377C9.92195 2.3703 9.92188 2.36684 9.92188 2.36338L10.9219 2.36338Z" fill="#FF0000" mask="url(#path-1-outside-1)"></path></svg>
