<svg width="20" height="24" viewBox="0 0 20 24" fill="none" xmlns="http://www.w3.org/2000/svg">
<path fill-rule="evenodd" clip-rule="evenodd" d="M9.99998 14.3335H6.49998C5.85598 14.3335 5.33331 13.8108 5.33331 13.1668C5.33331 12.5228 5.85598 12.0002 6.49998 12.0002H9.99998C10.644 12.0002 11.1666 12.5228 11.1666 13.1668C11.1666 13.8108 10.644 14.3335 9.99998 14.3335ZM6.49998 16.6668H13.5C14.1451 16.6668 14.6666 17.1895 14.6666 17.8335C14.6666 18.4775 14.1451 19.0002 13.5 19.0002H6.49998C5.85598 19.0002 5.33331 18.4775 5.33331 17.8335C5.33331 17.1895 5.85598 16.6668 6.49998 16.6668ZM16.3517 21.3335H3.64783C3.29083 21.3335 3.00033 21.0722 3.00033 20.7502V3.25016C3.00033 2.92816 3.29083 2.66683 3.64783 2.66683H10.0003V6.34183C10.0003 8.17583 11.4202 9.66683 13.1667 9.66683H17.0003V20.7502C17.0003 21.0722 16.7098 21.3335 16.3517 21.3335ZM12.3337 3.80783L15.5327 7.3335H13.1667C12.707 7.3335 12.3337 6.889 12.3337 6.34183V3.80783ZM19.0303 7.71616L12.679 0.716163C12.4573 0.472329 12.1447 0.333496 11.8145 0.333496H3.64783C2.00399 0.333496 0.666992 1.6425 0.666992 3.25016V20.7502C0.666992 22.3578 2.00399 23.6668 3.64783 23.6668H16.3517C17.9955 23.6668 19.3337 22.3578 19.3337 20.7502V8.50016C19.3337 8.20966 19.2252 7.93083 19.0303 7.71616Z" fill="#888888"/>
</svg>
