<svg width="24" height="22" viewBox="0 0 24 22" fill="none" xmlns="http://www.w3.org/2000/svg">
    <path fill-rule="evenodd" clip-rule="evenodd"
          d="M21.3333 18C21.3333 18.6428 20.8095 19.1667 20.1666 19.1667H17.8333V7.5H20.1666C20.8095 7.5 21.3333 8.02383 21.3333 8.66667V18ZM2.66665 18V8.66667C2.66665 8.02383 3.19048 7.5 3.83331 7.5H6.16665V19.1667H3.83331C3.19048 19.1667 2.66665 18.6428 2.66665 18ZM9.66665 3.41667C9.66665 3.09467 9.92798 2.83333 10.25 2.83333H13.75C14.072 2.83333 14.3333 3.09467 14.3333 3.41667V5.16667H9.66665V3.41667ZM8.49998 19.1667H15.5V7.5H8.49998V19.1667ZM20.1666 5.16667H16.6666V3.41667C16.6666 1.809 15.3576 0.5 13.75 0.5H10.25C8.64231 0.5 7.33331 1.809 7.33331 3.41667V5.16667H3.83331C1.90365 5.16667 0.333313 6.737 0.333313 8.66667V18C0.333313 19.9297 1.90365 21.5 3.83331 21.5H20.1666C22.0963 21.5 23.6666 19.9297 23.6666 18V8.66667C23.6666 6.737 22.0963 5.16667 20.1666 5.16667Z"
          fill="#888888"/>
</svg>
