<svg width="18" height="21" viewBox="0 0 18 21" fill="none" xmlns="http://www.w3.org/2000/svg">
    <path fill-rule="evenodd" clip-rule="evenodd"
          d="M11.3333 5.33317C11.3333 4.04634 10.2868 2.99984 8.99998 2.99984C7.71315 2.99984 6.66665 4.04634 6.66665 5.33317C6.66665 6.62 7.71315 7.6665 8.99998 7.6665C10.2868 7.6665 11.3333 6.62 11.3333 5.33317ZM13.6666 5.33317C13.6666 7.90684 11.5736 9.99984 8.99998 9.99984C6.42631 9.99984 4.33331 7.90684 4.33331 5.33317C4.33331 2.7595 6.42631 0.666504 8.99998 0.666504C11.5736 0.666504 13.6666 2.7595 13.6666 5.33317ZM0.833313 19.3332C0.833313 14.8298 4.49781 11.1665 8.99998 11.1665C13.5021 11.1665 17.1666 14.8298 17.1666 19.3332C17.1666 19.9772 16.6451 20.4998 16 20.4998C15.3548 20.4998 14.8333 19.9772 14.8333 19.3332C14.8333 16.1167 12.2165 13.4998 8.99998 13.4998C5.78348 13.4998 3.16665 16.1167 3.16665 19.3332C3.16665 19.9772 2.64515 20.4998 1.99998 20.4998C1.35481 20.4998 0.833313 19.9772 0.833313 19.3332Z"
          fill="#FF9914"/>
</svg>
