<svg width="22" height="24" viewBox="0 0 22 24" fill="none" xmlns="http://www.w3.org/2000/svg">
    <path fill-rule="evenodd" clip-rule="evenodd"
          d="M19.1552 21.3334H15.6669V13.1667C15.6669 12.5215 15.1442 12 14.5002 12H7.50025C6.85508 12 6.33358 12.5215 6.33358 13.1667V21.3334H2.83358L2.84058 11.5135L10.9979 3.17071L19.1669 11.5614L19.1552 21.3334ZM8.66691 21.3334H13.3336V14.3334H8.66691V21.3334ZM20.8282 9.88253L11.8344 0.684531C11.3946 0.235365 10.6059 0.235365 10.1661 0.684531L1.17108 9.8837C0.745244 10.3212 0.500244 10.9325 0.500244 11.5614V21.3334C0.500244 22.6202 1.48841 23.6667 2.70291 23.6667H7.50024H14.5002H19.2964C20.5109 23.6667 21.5002 22.6202 21.5002 21.3334V11.5614C21.5002 10.9325 21.2552 10.3212 20.8282 9.88253Z"
          fill="#FF9914"/>
</svg>
