<svg width="24" height="22" viewBox="0 0 24 22" fill="none" xmlns="http://www.w3.org/2000/svg">
<path fill-rule="evenodd" clip-rule="evenodd" d="M19 8.66667C19 8.02383 18.4773 7.5 17.8333 7.5C17.1893 7.5 16.6666 8.02383 16.6666 8.66667C16.6666 9.3095 17.1893 9.83333 17.8333 9.83333C18.4773 9.83333 19 9.3095 19 8.66667ZM21.3333 8.66667C21.3333 10.5963 19.763 12.1667 17.8333 12.1667C15.9036 12.1667 14.3333 10.5963 14.3333 8.66667C14.3333 6.737 15.9036 5.16667 17.8333 5.16667C19.763 5.16667 21.3333 6.737 21.3333 8.66667ZM10.8333 5.16667C10.8333 3.87983 9.78681 2.83333 8.49998 2.83333C7.21315 2.83333 6.16665 3.87983 6.16665 5.16667C6.16665 6.4535 7.21315 7.5 8.49998 7.5C9.78681 7.5 10.8333 6.4535 10.8333 5.16667ZM13.1666 5.16667C13.1666 7.74033 11.0736 9.83333 8.49998 9.83333C5.92631 9.83333 3.83331 7.74033 3.83331 5.16667C3.83331 2.593 5.92631 0.5 8.49998 0.5C11.0736 0.5 13.1666 2.593 13.1666 5.16667ZM14.2633 14.5537C15.2771 13.7697 16.5255 13.3333 17.8333 13.3333C21.0498 13.3333 23.6666 15.9502 23.6666 19.1667C23.6666 19.8107 23.1451 20.3333 22.5 20.3333C21.8548 20.3333 21.3333 19.8107 21.3333 19.1667C21.3333 17.237 19.763 15.6667 17.8333 15.6667C17.0365 15.6667 16.2793 15.9397 15.668 16.4238C16.3026 17.5858 16.6666 18.9182 16.6666 20.3333C16.6666 20.9773 16.1451 21.5 15.5 21.5C14.8548 21.5 14.3333 20.9773 14.3333 20.3333C14.3333 17.1168 11.7165 14.5 8.49998 14.5C5.28348 14.5 2.66665 17.1168 2.66665 20.3333C2.66665 20.9773 2.14515 21.5 1.49998 21.5C0.854813 21.5 0.333313 20.9773 0.333313 20.3333C0.333313 15.83 3.99781 12.1667 8.49998 12.1667C10.7481 12.1667 12.7851 13.0802 14.2633 14.5537Z" fill="#888888"/>
</svg>
